<svg xmlns="http://www.w3.org/2000/svg" width="175" height="55" fill="none"><path fill="#A6A6A6" d="M160.814.954H14.534c-.533 0-1.06 0-1.592.002-.445.003-.887.011-1.336.018q-1.466.016-2.914.238a10.2 10.2 0 0 0-2.764.844 9.4 9.4 0 0 0-2.353 1.587A8.5 8.5 0 0 0 .953 8.388Q.709 9.726.692 11.084c-.014.412-.015.827-.022 1.24v31.121c.007.418.008.823.022 1.242q.018 1.357.26 2.695a8.42 8.42 0 0 0 2.623 4.737 9.1 9.1 0 0 0 2.353 1.587c.87.41 1.802.697 2.764.85.964.146 1.938.226 2.914.238.45.009.891.014 1.336.014.532.003 1.059.003 1.592.003h146.28c.522 0 1.053 0 1.576-.003.443 0 .897-.005 1.34-.014q1.464-.017 2.909-.238c.965-.155 1.9-.44 2.774-.85a9.1 9.1 0 0 0 2.352-1.587 8.7 8.7 0 0 0 1.718-2.173 8.5 8.5 0 0 0 .9-2.564c.162-.891.252-1.792.27-2.695.006-.419.006-.824.006-1.242.011-.489.011-.975.011-1.473V13.794c0-.494 0-.983-.011-1.47q.001-.62-.006-1.24a17 17 0 0 0-.27-2.696 8.5 8.5 0 0 0-.9-2.563c-.898-1.62-2.321-2.938-4.07-3.77a10.4 10.4 0 0 0-2.774-.844 20.5 20.5 0 0 0-2.909-.238c-.443-.006-.897-.014-1.34-.017-.523-.002-1.054-.002-1.576-.002"/><path fill="#2A2A2A" d="M12.951 53.633c-.443 0-.875-.005-1.315-.014a20 20 0 0 1-2.717-.22 9 9 0 0 1-2.41-.738 7.9 7.9 0 0 1-2.03-1.368 7.311 7.311 0 0 1-2.273-4.112q-.226-1.253-.243-2.524c-.01-.284-.022-1.23-.022-1.23V12.324s.013-.931.022-1.204c.01-.845.091-1.688.24-2.521a7.35 7.35 0 0 1 2.267-4.12 8.1 8.1 0 0 1 2.039-1.377 9 9 0 0 1 2.404-.732 20 20 0 0 1 2.727-.221l1.312-.017h149.433l1.328.017q1.36.015 2.702.22a9.1 9.1 0 0 1 2.429.737c1.509.72 2.737 1.86 3.512 3.258.379.7.641 1.448.778 2.22.151.84.236 1.69.253 2.541.004.382.004.791.004 1.199.012.505.012.985.012 1.47v28.179c0 .489 0 .966-.012 1.448 0 .437 0 .839-.006 1.251q-.026 1.256-.248 2.496a7.4 7.4 0 0 1-.785 2.249 7.5 7.5 0 0 1-1.477 1.865 7.9 7.9 0 0 1-2.035 1.377 9 9 0 0 1-2.425.74c-.899.136-1.808.21-2.718.22-.426.009-.872.014-1.305.014l-1.576.003z"/><path fill="#fff" d="M36.677 28.287a6.3 6.3 0 0 1 .937-3.203 6.9 6.9 0 0 1 2.49-2.387 7.2 7.2 0 0 0-2.532-2.088 7.8 7.8 0 0 0-3.272-.818c-2.442-.237-4.81 1.353-6.053 1.353-1.269 0-3.185-1.329-5.247-1.29-1.335.04-2.635.4-3.775 1.043a7.44 7.44 0 0 0-2.73 2.63c-2.812 4.509-.714 11.134 1.98 14.779 1.348 1.784 2.923 3.778 4.984 3.707 2.017-.078 2.77-1.191 5.205-1.191 2.412 0 3.118 1.19 5.221 1.146 2.164-.033 3.528-1.793 4.828-3.594a14.3 14.3 0 0 0 2.208-4.164 6.86 6.86 0 0 1-3.085-2.37 6.1 6.1 0 0 1-1.16-3.553M32.705 17.395c1.18-1.312 1.762-2.998 1.62-4.7-1.802.175-3.467.973-4.663 2.234a6.15 6.15 0 0 0-1.318 2.11 5.8 5.8 0 0 0-.345 2.416 6.4 6.4 0 0 0 2.609-.53 5.9 5.9 0 0 0 2.097-1.53M62.18 37.495h-6.883l-1.653 4.52h-2.916l6.52-16.72h3.029l6.519 16.72H63.83zm-6.17-2.085h5.455l-2.69-7.334H58.7zM80.872 35.92c0 3.788-2.19 6.222-5.494 6.222a4.76 4.76 0 0 1-2.403-.515 4.3 4.3 0 0 1-1.74-1.618h-.062v6.038H68.47V29.824h2.615v2.028h.05a4.5 4.5 0 0 1 1.775-1.614 5 5 0 0 1 2.417-.541c3.341 0 5.543 2.445 5.543 6.223m-2.778 0c0-2.468-1.377-4.09-3.479-4.09-2.065 0-3.453 1.656-3.453 4.09 0 2.456 1.388 4.101 3.453 4.101 2.102 0 3.479-1.61 3.479-4.101M95.366 35.92c0 3.788-2.19 6.222-5.494 6.222a4.76 4.76 0 0 1-2.402-.515 4.3 4.3 0 0 1-1.74-1.618h-.063v6.038h-2.702V29.824h2.615v2.028h.05a4.5 4.5 0 0 1 1.775-1.614 5 5 0 0 1 2.417-.541c3.341 0 5.544 2.445 5.544 6.223m-2.778 0c0-2.468-1.377-4.09-3.479-4.09-2.064 0-3.453 1.656-3.453 4.09 0 2.456 1.388 4.101 3.453 4.101 2.102 0 3.48-1.61 3.48-4.101M104.938 37.356c.2 1.658 1.94 2.746 4.317 2.746 2.278 0 3.916-1.088 3.916-2.583 0-1.298-.988-2.075-3.328-2.608l-2.34-.522c-3.316-.741-4.855-2.177-4.855-4.507 0-2.885 2.715-4.866 6.57-4.866 3.815 0 6.431 1.981 6.519 4.866h-2.728c-.163-1.669-1.653-2.676-3.829-2.676s-3.667 1.02-3.667 2.502c0 1.183.952 1.878 3.279 2.41l1.989.453c3.705.811 5.244 2.19 5.244 4.635 0 3.128-2.691 5.087-6.97 5.087-4.005 0-6.708-1.913-6.883-4.937zM121.864 26.94v2.885h2.503v1.981h-2.503v6.72c0 1.045.501 1.531 1.601 1.531q.446-.007.889-.058v1.97a8 8 0 0 1-1.501.116c-2.665 0-3.704-.927-3.704-3.291v-6.988h-1.915v-1.981h1.914V26.94zM125.816 35.92c0-3.836 2.44-6.246 6.244-6.246 3.817 0 6.245 2.41 6.245 6.246 0 3.846-2.415 6.245-6.245 6.245-3.828 0-6.244-2.4-6.244-6.245m9.736 0c0-2.632-1.302-4.185-3.492-4.185s-3.49 1.565-3.49 4.185c0 2.641 1.3 4.182 3.49 4.182s3.492-1.541 3.492-4.182M140.525 29.824h2.578v2.075h.062a2.9 2.9 0 0 1 1.161-1.622 3.3 3.3 0 0 1 2.006-.58q.468-.002.926.093v2.34a4 4 0 0 0-1.215-.15 2.9 2.9 0 0 0-1.147.187c-.363.139-.69.348-.957.615-.268.266-.47.583-.593.929a2.35 2.35 0 0 0-.118 1.073v7.23h-2.703zM159.725 38.435c-.364 2.212-2.691 3.731-5.669 3.731-3.829 0-6.206-2.376-6.206-6.188 0-3.823 2.389-6.303 6.093-6.303 3.642 0 5.933 2.317 5.933 6.013v.857h-9.299v.151c-.042.449.018.9.178 1.326.161.425.417.814.752 1.14.335.327.741.584 1.191.754s.935.25 1.421.233a3.17 3.17 0 0 0 1.827-.39 2.83 2.83 0 0 0 1.213-1.325zm-9.135-3.639h6.582a2.74 2.74 0 0 0-.194-1.185 2.9 2.9 0 0 0-.691-1.015 3.2 3.2 0 0 0-1.071-.674 3.4 3.4 0 0 0-1.273-.22 3.6 3.6 0 0 0-1.284.23 3.4 3.4 0 0 0-1.089.67c-.311.288-.558.63-.727 1.007s-.254.78-.253 1.187M100.579 17.013h1.263v.834h-1.302q-.256 2.631-2.97 2.631-1.28 0-2.009-.712-.83-.811-.829-2.464 0-1.118.284-2.164l1.085-.206a8 8 0 0 0-.323 2.264q0 1.335.612 1.958.485.495 1.28.496 1.857 0 1.857-2.315V12.49h1.052zm-3.02-3.416a.6.6 0 0 1-.435-.178.58.58 0 0 1-.183-.434q0-.26.183-.445a.58.58 0 0 1 .434-.183q.255 0 .44.178.189.183.189.45a.59.59 0 0 1-.19.434.6.6 0 0 1-.439.178m4.116 4.25v-.834h.901q.395 0 .662.06-.846-.533-.846-1.924 0-1.179.718-1.947.773-.834 2.131-.834 2.436 0 2.436 2.553v2.926zm4.979-2.748q0-1.902-1.502-1.902-.79 0-1.247.523-.456.505-.456 1.368 0 1.925 2.075 1.925h1.13zm7.721 2.748q-2.988 0-2.987-2.653 0-1.207.706-1.98.774-.847 2.164-.846 1.251 0 2.292.4v4.245h1.263v.834zm1.146-4.383q-.556-.267-1.374-.267-.79 0-1.246.517-.456.511-.456 1.363 0 1.936 2.074 1.936h1.002zm2.119 3.549h1.664V12.49h1.045v4.523h1.769v.834h-4.478zm1.575 2.53q0 .257-.178.435a.58.58 0 0 1-.429.183.57.57 0 0 1-.428-.178.6.6 0 0 1-.173-.44q0-.25.173-.422a.57.57 0 0 1 .428-.178q.25 0 .429.172a.57.57 0 0 1 .178.429m1.674 0a.6.6 0 0 1-.172.435.56.56 0 0 1-.423.183.6.6 0 0 1-.434-.178.6.6 0 0 1-.178-.44q0-.25.178-.422a.6.6 0 0 1 .434-.178q.25 0 .423.172a.58.58 0 0 1 .172.429m1.068-2.53h1.597V9.814h1.046v7.199h1.251v.834h-3.894zm3.727 0h2.198q-1.22-.546-1.219-2.014 0-1.13.701-1.847.762-.784 2.114-.784.796 0 1.48.25l-.195.846a3.3 3.3 0 0 0-1.352-.279q-.762 0-1.223.473-.473.48-.473 1.296 0 .924.712 1.463.79.596 2.314.596h.935v.834h-5.992zm13.98-7.199h1.051v7.199h1.219v.834h-1.252q-.312 2.631-2.782 2.631-2.803 0-2.803-3.176 0-1.118.283-2.164l1.085-.206a8 8 0 0 0-.322 2.264q0 2.454 1.858 2.454 1.663 0 1.663-2.381zm2.097 7.199h1.641V12.49h1.046v.445q0 1.18-.122 2.042h.011q.389-1.24 1.268-1.947a2.9 2.9 0 0 1 1.853-.662q1.095 0 1.691.684.59.674.589 1.902 0 1.32-.778 2.059h1.641v.834h-8.84zm4.762 0q2.13 0 2.131-1.98 0-1.836-1.391-1.836-1.107 0-1.93 1.218-.751 1.107-.907 2.598zm3.85 0h4.706q.078-.695.078-1.169 0-1.335-.546-1.93-.584-.634-1.947-.634-.678 0-1.268.078v-.818a9 9 0 0 1 1.357-.094q1.831 0 2.66.845.784.802.784 2.47 0 .99-.184 2.086h-5.64zm7.665-7.199h1.046v8.033h-1.046z"/></svg>