<svg xmlns="http://www.w3.org/2000/svg" width="24" height="23" fill="none"><g fill="#F3F4F6" clip-path="url(#a)"><path d="M16.416-.001h.159c.127 1.572-.473 2.748-1.203 3.599-.716.845-1.696 1.664-3.281 1.54-.106-1.55.495-2.638 1.224-3.487C13.99.86 15.229.155 16.416-.001M21.216 16.369v.044c-.446 1.35-1.082 2.506-1.857 3.579-.708.974-1.576 2.286-3.125 2.286-1.339 0-2.228-.861-3.6-.885-1.451-.023-2.25.72-3.576.907h-.453c-.974-.14-1.76-.913-2.333-1.608-1.69-2.054-2.995-4.708-3.238-8.104v-.998c.103-2.43 1.284-4.407 2.854-5.365.828-.509 1.967-.943 3.235-.749.544.084 1.1.27 1.586.454.461.178 1.038.492 1.584.475.37-.01.739-.203 1.112-.34 1.093-.394 2.164-.846 3.576-.634 1.697.257 2.902 1.01 3.646 2.174-1.436.914-2.57 2.29-2.377 4.642.173 2.136 1.414 3.385 2.965 4.122"/></g><defs><clipPath id="a"><path fill="#fff" d="M.976 0h22.3v22.301H.977z"/></clipPath></defs></svg>