<svg xmlns="http://www.w3.org/2000/svg" width="25" height="25" fill="none" viewBox="0 0 19 20"><path fill="#C891C3" fill-rule="evenodd" d="M2.194.151H16.19c1.1 0 1.999.9 1.999 2v15.193c0 1.4-1.4 2.399-2.7 1.9l-1.598-.6c-.5-.2-1-.2-1.5.1l-2.399 1.099c-.5.2-1.1.2-1.6 0l-2.398-1.1c-.5-.2-1-.2-1.5-.1l-1.599.5c-1.3.5-2.699-.5-2.699-1.799V2.15c0-1.1.9-1.999 2-1.999M14.19 5.95c.4 0 .8-.3.8-.8s-.4-.8-.8-.8H4.194c-.4 0-.8.4-.8.8s.4.8.8.8zm.8 3.198c0 .4-.3.8-.8.8H4.194c-.4 0-.8-.3-.8-.8s.3-.8.8-.8h9.996c.4 0 .8.4.8.8m-5.798 4.798c.4 0 .8-.3.8-.8s-.3-.799-.8-.799H4.194c-.4 0-.8.3-.8.8s.3.8.8.8z" clip-rule="evenodd"/></svg>