<svg xmlns="http://www.w3.org/2000/svg" width="25" height="25" fill="none" viewBox="0 0 24 21"><path fill="#C891C3" d="M19.79 1.622H17.9V1.5a.675.675 0 0 0-1.35 0v.122h-3.898V1.5a.675.675 0 0 0-1.349 0v.122H7.405V1.5a.675.675 0 0 0-1.35 0v.122h-1.89A3.36 3.36 0 0 0 .806 4.98v12.606a3.36 3.36 0 0 0 3.357 3.358H19.79a3.36 3.36 0 0 0 3.358-3.358V4.979a3.36 3.36 0 0 0-3.358-3.357m-7.813 14.851a4.8 4.8 0 0 1-4.793-4.792 4.8 4.8 0 0 1 4.793-4.793 4.8 4.8 0 0 1 4.793 4.793 4.8 4.8 0 0 1-4.793 4.792"/><path fill="#C891C3" d="M11.977 8.238a3.45 3.45 0 0 0-3.443 3.443 3.447 3.447 0 0 0 3.443 3.443 3.45 3.45 0 0 0 3.443-3.443 3.447 3.447 0 0 0-3.443-3.443m1.824 3.267-2.01 1.62a.67.67 0 0 1-.5.144.67.67 0 0 1-.454-.253l-.79-1.008a.675.675 0 0 1 1.06-.833l.37.47 1.478-1.19a.675.675 0 0 1 .846 1.05"/></svg>