<svg xmlns="http://www.w3.org/2000/svg" width="25" height="25" fill="none" viewBox="0 0 21 22"><path fill="#C891C3" d="M17.163.915H3.187A3.106 3.106 0 0 0 .081 4.021V18.8a3.106 3.106 0 0 0 3.106 3.107h13.975a3.106 3.106 0 0 0 3.106-3.106V4.02A3.105 3.105 0 0 0 17.163.915M6.743 4.88h6.863a.675.675 0 0 1 0 1.35H6.744a.675.675 0 0 1 0-1.35m3.918 12.314H3.924a.675.675 0 0 1 0-1.35h6.737a.675.675 0 0 1 0 1.35m0-5.324H3.924a.675.675 0 0 1 0-1.35h6.737a.675.675 0 0 1 0 1.35m6.188 4.425-1.86 1.5a.675.675 0 0 1-.954-.11l-.732-.932a.676.676 0 0 1 1.062-.834l.31.394 1.327-1.07a.676.676 0 0 1 .847 1.052m0-5.323-1.86 1.499a.675.675 0 0 1-.954-.11l-.732-.933a.676.676 0 0 1 1.062-.833l.31.395 1.327-1.07a.676.676 0 0 1 .847 1.052"/></svg>