<svg xmlns="http://www.w3.org/2000/svg" width="58" height="58" fill="none"><rect width="55.973" height="55.973" x=".983" y="1.333" stroke="#D1D5DB" stroke-width=".8" rx="27.987"/><path fill="#C891C3" d="M38 15.758H19.94a4.014 4.014 0 0 0-4.014 4.013v19.097a4.014 4.014 0 0 0 4.014 4.015h18.058a4.014 4.014 0 0 0 4.014-4.014V19.771a4.01 4.01 0 0 0-4.013-4.013m-13.464 5.121h8.868a.872.872 0 0 1 0 1.744h-8.868a.872.872 0 0 1 0-1.744m5.062 15.913h-8.706a.872.872 0 0 1 0-1.744h8.706a.872.872 0 0 1 0 1.744m0-6.88h-8.706a.872.872 0 0 1 0-1.744h8.706a.872.872 0 0 1 0 1.744m7.995 5.718-2.403 1.938a.87.87 0 0 1-1.232-.141l-.946-1.206a.873.873 0 0 1 1.372-1.077l.4.51L36.5 34.27a.873.873 0 0 1 1.093 1.36m0-6.879-2.403 1.937a.87.87 0 0 1-1.232-.141l-.946-1.206a.873.873 0 0 1 1.372-1.077l.4.51 1.716-1.383a.873.873 0 0 1 1.094 1.36"/></svg>