<svg xmlns="http://www.w3.org/2000/svg" width="58" height="58" fill="none"><rect width="55.973" height="55.973" x=".813" y=".865" stroke="#D1D5DB" stroke-width=".8" rx="27.987"/><path fill="#C891C3" d="M39.216 16.503h-2.52v-.163a.9.9 0 0 0-1.8 0v.163H29.7v-.163a.9.9 0 0 0-1.799 0v.163h-5.197v-.163a.9.9 0 0 0-1.8 0v.163h-2.521a4.48 4.48 0 0 0-4.477 4.477v16.808a4.48 4.48 0 0 0 4.477 4.476h20.834a4.48 4.48 0 0 0 4.477-4.476v-16.81a4.48 4.48 0 0 0-4.477-4.475M28.799 36.304a6.4 6.4 0 0 1-6.391-6.39 6.4 6.4 0 0 1 6.39-6.39 6.4 6.4 0 0 1 6.392 6.39 6.4 6.4 0 0 1-6.391 6.39"/><path fill="#C891C3" d="M28.798 25.324c-2.53 0-4.59 2.06-4.59 4.59 0 2.532 2.06 4.591 4.59 4.591 2.531 0 4.591-2.06 4.591-4.59 0-2.532-2.06-4.591-4.59-4.591m2.432 4.355-2.68 2.16a.9.9 0 0 1-.667.193.9.9 0 0 1-.605-.337l-1.054-1.344a.9.9 0 0 1 1.415-1.111l.492.626 1.97-1.587a.9.9 0 1 1 1.13 1.4"/></svg>