<svg xmlns="http://www.w3.org/2000/svg" width="58" height="58" fill="none"><rect width="55.973" height="55.973" x=".982" y="1.069" stroke="#D1D5DB" stroke-width=".8" rx="27.987"/><path fill="#C891C3" fill-rule="evenodd" d="M19.642 15.73h18.655c1.465 0 2.665 1.2 2.665 2.665V38.65c0 1.865-1.866 3.197-3.598 2.531l-2.132-.8c-.666-.266-1.333-.266-1.999.134l-3.198 1.466a2.94 2.94 0 0 1-2.132 0l-3.198-1.466c-.666-.267-1.332-.267-1.999-.133l-2.132.666c-1.732.666-3.597-.666-3.597-2.398V18.396c0-1.466 1.199-2.666 2.665-2.666m15.99 7.729c.533 0 1.066-.4 1.066-1.066s-.533-1.066-1.066-1.066H22.307c-.533 0-1.066.533-1.066 1.066s.533 1.066 1.066 1.066zm1.066 4.264c0 .533-.4 1.066-1.066 1.066H22.307c-.533 0-1.066-.4-1.066-1.066s.4-1.066 1.066-1.066h13.325c.533 0 1.066.533 1.066 1.066m-7.729 6.396c.533 0 1.066-.4 1.066-1.066s-.4-1.066-1.066-1.066h-6.662c-.533 0-1.066.4-1.066 1.066s.4 1.066 1.066 1.066z" clip-rule="evenodd"/></svg>