<svg width="25" height="24" viewBox="0 0 25 24" fill="none" xmlns="http://www.w3.org/2000/svg">
<g clip-path="url(#clip0_5096_11157)">
<path d="M6.46349 19.3453C6.32509 19.3454 6.18978 19.3043 6.0747 19.2275C5.95961 19.1506 5.86991 19.0413 5.81694 18.9134C5.76397 18.7855 5.75012 18.6448 5.77712 18.5091C5.80413 18.3734 5.87079 18.2487 5.96867 18.1508L18.8989 5.22059C19.0301 5.08935 19.2081 5.01562 19.3937 5.01562C19.5793 5.01562 19.7573 5.08935 19.8885 5.22059C20.0198 5.35182 20.0935 5.52981 20.0935 5.71541C20.0935 5.901 20.0198 6.07899 19.8885 6.21022L6.95831 19.1405C6.89339 19.2055 6.81626 19.2571 6.73134 19.2923C6.64642 19.3274 6.5554 19.3455 6.46349 19.3453Z" fill="#321853"/>
<path d="M19.3937 19.3453C19.3018 19.3455 19.2108 19.3274 19.1258 19.2923C19.0409 19.2571 18.9638 19.2055 18.8989 19.1405L5.96863 6.21022C5.8374 6.07899 5.76367 5.901 5.76367 5.71541C5.76367 5.52981 5.8374 5.35182 5.96863 5.22059C6.09987 5.08935 6.27786 5.01562 6.46345 5.01562C6.64905 5.01562 6.82704 5.08935 6.95827 5.22059L19.8885 18.1508C19.9864 18.2487 20.053 18.3734 20.0801 18.5091C20.1071 18.6448 20.0932 18.7855 20.0402 18.9134C19.9873 19.0413 19.8976 19.1506 19.7825 19.2275C19.6674 19.3043 19.5321 19.3454 19.3937 19.3453Z" fill="#321853"/>
</g>
<defs>
<clipPath id="clip0_5096_11157">
<rect width="14.3296" height="14.3296" fill="white" transform="translate(5.76367 5.01562)"/>
</clipPath>
</defs>
</svg>
