<svg width="279" height="263" viewBox="0 0 279 263" fill="none" xmlns="http://www.w3.org/2000/svg">
<rect x="114.608" y="0.415771" width="50.057" height="50.057" rx="25.0285" fill="url(#paint0_radial_5096_10639)"/>
<path d="M133.372 35.9443V32.7683L139.559 26.3334C140.332 25.5233 140.894 24.8052 141.243 24.1792C141.593 23.5532 141.768 22.9088 141.768 22.246C141.768 21.4174 141.501 20.7914 140.967 20.368C140.433 19.9445 139.669 19.7328 138.675 19.7328C137.847 19.7328 137.027 19.8893 136.217 20.2023C135.425 20.4968 134.643 20.9571 133.87 21.5831L132.516 18.4347C133.326 17.7351 134.33 17.1827 135.527 16.7777C136.723 16.3726 137.966 16.1701 139.255 16.1701C141.428 16.1701 143.094 16.658 144.254 17.6338C145.414 18.5912 145.994 19.9629 145.994 21.7489C145.994 22.9456 145.718 24.0871 145.165 25.1734C144.613 26.2597 143.72 27.4105 142.486 28.6257L137.515 33.514V32.4093H146.739V35.9443H133.372Z" fill="white"/>
<g filter="url(#filter0_b_5096_10639)">
<rect x="1.54736" y="28.0336" width="276.177" height="218.832" rx="18.9962" fill="url(#paint1_linear_5096_10639)" fill-opacity="0.2"/>
<rect x="1.97889" y="28.4651" width="275.314" height="217.969" rx="18.5646" stroke="url(#paint2_linear_5096_10639)" stroke-width="0.863052"/>
<line x1="138.841" y1="76.3798" x2="138.841" y2="97.3204" stroke="#C891C3" stroke-width="1.72692" stroke-dasharray="1.39 1.39"/>
<line x1="138.338" y1="108.143" x2="138.338" y2="123.496" stroke="#C891C3" stroke-width="0.696172" stroke-dasharray="1.39 1.39"/>
<line x1="110.503" y1="122.632" x2="138.464" y2="122.632" stroke="#C891C3" stroke-width="1.72692" stroke-dasharray="1.39 1.39"/>
<line x1="150.174" y1="105.449" x2="164.539" y2="105.449" stroke="#C891C3" stroke-width="1.72692" stroke-dasharray="1.39 1.39"/>
<g clip-path="url(#clip0_5096_10639)">
<path d="M96.2069 116.667H94.9581C94.6304 116.667 94.3347 116.862 94.2051 117.162L90.748 125.212L98.9582 121.018C97.9753 119.659 97.0029 118.159 96.2069 116.667Z" fill="#BBBBBB"/>
<path d="M112.09 117.162C111.961 116.862 111.665 116.667 111.337 116.667H110.089C108.585 119.484 106.395 122.395 105.002 123.997C104.022 125.121 102.272 125.119 101.293 123.997C101.193 123.882 100.671 123.277 99.9514 122.347L98.4712 123.103L104.07 128.691L114.679 123.191L112.09 117.162Z" fill="#BBBBBB"/>
<path d="M89.7381 127.564L89.2915 128.604C89.0604 129.142 89.4564 129.743 90.0443 129.743H102.067C102.142 129.687 102.143 129.691 102.547 129.482L96.9393 123.886L89.7381 127.564Z" fill="#BBBBBB"/>
<path d="M117.004 128.604L115.327 124.698L105.595 129.743H116.252C116.838 129.743 117.236 129.143 117.004 128.604Z" fill="#BBBBBB"/>
<path d="M103.966 109.256C103.966 108.805 103.599 108.439 103.147 108.439C102.695 108.439 102.328 108.805 102.328 109.256C102.328 109.707 102.695 110.074 103.147 110.074C103.599 110.074 103.966 109.707 103.966 109.256Z" fill="#BBBBBB"/>
<path d="M103.766 122.869C104.042 122.553 110.519 115.06 110.519 109.91C110.519 99.2899 95.7769 99.1603 95.7769 109.91C95.7769 115.06 102.254 122.553 102.53 122.869C102.856 123.244 103.44 123.244 103.766 122.869ZM100.691 109.256C100.691 107.904 101.793 106.804 103.148 106.804C104.502 106.804 105.605 107.904 105.605 109.256C105.605 110.608 104.502 111.708 103.148 111.708C101.793 111.708 100.691 110.608 100.691 109.256Z" fill="#C891C3"/>
</g>
<g clip-path="url(#clip1_5096_10639)">
<path d="M141.757 75.6249C141.939 75.4431 142.157 75.2976 142.375 75.1886C141.939 73.8433 140.666 72.9343 139.248 72.9343H136.74C135.285 72.9343 134.049 73.8797 133.613 75.1886C133.831 75.334 134.013 75.4794 134.231 75.6249C135.067 76.3521 135.649 77.3701 135.794 78.4609L136.158 81.006H139.867L140.23 78.4609C140.376 77.3701 140.921 76.3521 141.757 75.6249Z" fill="#C891C3"/>
<path d="M137.977 71.9528C139.613 71.9528 140.922 70.6075 140.922 69.0077V68.7529C140.922 67.1168 139.577 65.8079 137.977 65.8079C136.341 65.8079 135.032 67.1531 135.032 68.7529V69.0077C135.032 70.6075 136.341 71.9528 137.977 71.9528Z" fill="#C891C3"/>
<path d="M134.414 78.6791C134.159 77.043 132.777 75.8431 131.141 75.8431H128.632C126.996 75.8431 125.578 77.043 125.36 78.6791L124.778 82.6786C124.669 83.3331 125.178 83.9148 125.869 83.9148H133.941C134.595 83.9148 135.104 83.3331 135.032 82.6786L134.414 78.6791Z" fill="#BBBBBB"/>
<path d="M129.868 74.8616C131.505 74.8616 132.813 73.5163 132.813 71.9166V71.6617C132.813 70.0256 131.468 68.7167 129.868 68.7167C128.232 68.7167 126.923 70.062 126.923 71.6617V71.9166C126.923 73.5163 128.269 74.8616 129.868 74.8616Z" fill="#BBBBBB"/>
<path d="M151.212 82.6786L150.63 78.6791C150.375 77.043 148.994 75.8431 147.358 75.8431H144.849C143.213 75.8431 141.795 77.043 141.576 78.6791L140.995 82.6786C140.886 83.3331 141.395 83.9148 142.085 83.9148H150.194C150.775 83.9512 151.284 83.3331 151.212 82.6786Z" fill="#BBBBBB"/>
<path d="M146.048 74.8616C147.684 74.8616 148.993 73.5163 148.993 71.9166V71.6617C148.993 70.0256 147.648 68.7167 146.048 68.7167C144.412 68.7167 143.103 70.062 143.103 71.6617V71.9166C143.103 73.5163 144.448 74.8616 146.048 74.8616Z" fill="#BBBBBB"/>
</g>
<path d="M177.19 92.4112C177.19 91.6102 176.54 90.9608 175.739 90.9608C174.938 90.9608 174.289 91.6102 174.289 92.4112V94.1516C174.289 94.9526 174.938 95.602 175.739 95.602C176.54 95.602 177.19 94.9526 177.19 94.1516V92.4112Z" fill="#BBBBBB"/>
<path d="M178.35 92.7013V94.1517C178.35 94.844 178.075 95.5081 177.586 95.9977C177.096 96.4872 176.432 96.7623 175.74 96.7623C175.047 96.7623 174.383 96.4872 173.894 95.9977C173.404 95.5081 173.129 94.844 173.129 94.1517V92.7013H167.908V94.1517C167.908 94.844 167.633 95.5081 167.143 95.9977C166.653 96.4872 165.989 96.7623 165.297 96.7623C164.605 96.7623 163.941 96.4872 163.451 95.9977C162.961 95.5081 162.686 94.844 162.686 94.1517V92.7013C161.917 92.7013 161.179 93.0069 160.635 93.5509C160.091 94.0949 159.786 94.8327 159.786 95.602V98.5027H181.251V95.602C181.251 94.8327 180.945 94.0949 180.401 93.5509C179.857 93.0069 179.12 92.7013 178.35 92.7013Z" fill="#BBBBBB"/>
<path d="M166.746 92.4112C166.746 91.6102 166.097 90.9608 165.296 90.9608C164.495 90.9608 163.846 91.6102 163.846 92.4112V94.1516C163.846 94.9526 164.495 95.602 165.296 95.602C166.097 95.602 166.746 94.9526 166.746 94.1516V92.4112Z" fill="#BBBBBB"/>
<path d="M172.549 110.685C172.548 109.536 172.833 108.405 173.377 107.392C173.921 106.38 174.707 105.518 175.665 104.884H174.869C174.562 104.884 174.267 104.762 174.049 104.544C173.831 104.326 173.709 104.031 173.709 103.724V102.563C173.709 102.256 173.831 101.96 174.049 101.743C174.267 101.525 174.562 101.403 174.869 101.403H176.03C176.337 101.403 176.633 101.525 176.85 101.743C177.068 101.96 177.19 102.256 177.19 102.563V103.724C177.19 103.873 177.16 104.021 177.104 104.16C178.431 103.661 179.88 103.588 181.251 103.952V99.6626H159.786V110.685C159.786 111.066 159.861 111.443 160.006 111.795C160.152 112.147 160.366 112.467 160.635 112.736C160.905 113.006 161.224 113.219 161.576 113.365C161.928 113.511 162.305 113.586 162.686 113.586H173.187C172.767 112.677 172.549 111.687 172.549 110.685ZM166.747 109.525C166.747 109.833 166.625 110.128 166.408 110.345C166.19 110.563 165.895 110.685 165.587 110.685H164.427C164.119 110.685 163.824 110.563 163.606 110.345C163.389 110.128 163.267 109.833 163.267 109.525V108.365C163.267 108.057 163.389 107.762 163.606 107.544C163.824 107.327 164.119 107.204 164.427 107.204H165.587C165.895 107.204 166.19 107.327 166.408 107.544C166.625 107.762 166.747 108.057 166.747 108.365V109.525ZM166.747 103.724C166.747 104.031 166.625 104.326 166.408 104.544C166.19 104.762 165.895 104.884 165.587 104.884H164.427C164.119 104.884 163.824 104.762 163.606 104.544C163.389 104.326 163.267 104.031 163.267 103.724V102.563C163.267 102.256 163.389 101.96 163.606 101.743C163.824 101.525 164.119 101.403 164.427 101.403H165.587C165.895 101.403 166.19 101.525 166.408 101.743C166.625 101.96 166.747 102.256 166.747 102.563V103.724ZM171.969 109.525C171.969 109.833 171.846 110.128 171.629 110.345C171.411 110.563 171.116 110.685 170.808 110.685H169.648C169.34 110.685 169.045 110.563 168.828 110.345C168.61 110.128 168.488 109.833 168.488 109.525V108.365C168.488 108.057 168.61 107.762 168.828 107.544C169.045 107.327 169.34 107.204 169.648 107.204H170.808C171.116 107.204 171.411 107.327 171.629 107.544C171.846 107.762 171.969 108.057 171.969 108.365V109.525ZM171.969 103.724C171.969 104.031 171.846 104.326 171.629 104.544C171.411 104.762 171.116 104.884 170.808 104.884H169.648C169.34 104.884 169.045 104.762 168.828 104.544C168.61 104.326 168.488 104.031 168.488 103.724V102.563C168.488 102.256 168.61 101.96 168.828 101.743C169.045 101.525 169.34 101.403 169.648 101.403H170.808C171.116 101.403 171.411 101.525 171.629 101.743C171.846 101.96 171.969 102.256 171.969 102.563V103.724Z" fill="#BBBBBB"/>
<path d="M179.51 104.884C178.363 104.884 177.241 105.224 176.287 105.862C175.333 106.499 174.59 107.405 174.151 108.465C173.711 109.525 173.597 110.692 173.82 111.817C174.044 112.943 174.597 113.976 175.408 114.788C176.22 115.599 177.253 116.152 178.379 116.375C179.504 116.599 180.67 116.484 181.731 116.045C182.791 115.606 183.697 114.863 184.334 113.909C184.972 112.955 185.312 111.833 185.312 110.685C185.312 109.924 185.162 109.169 184.87 108.465C184.579 107.761 184.151 107.122 183.613 106.583C183.074 106.045 182.434 105.617 181.731 105.326C181.027 105.034 180.272 104.884 179.51 104.884ZM181.661 112.836C181.552 112.945 181.405 113.006 181.251 113.006C181.097 113.006 180.949 112.945 180.841 112.836L179.1 111.096C178.991 110.987 178.93 110.839 178.93 110.685V107.205C178.93 107.051 178.991 106.903 179.1 106.794C179.209 106.686 179.357 106.624 179.51 106.624C179.664 106.624 179.812 106.686 179.921 106.794C180.029 106.903 180.091 107.051 180.091 107.205V110.445L181.661 112.016C181.77 112.125 181.831 112.272 181.831 112.426C181.831 112.58 181.77 112.727 181.661 112.836Z" fill="#C891C3"/>
<path d="M148.197 99.4918C148.136 99.6932 148.056 99.8947 147.965 100.076C147.32 101.295 146.041 102.061 144.731 102.514C143.422 102.967 142.042 103.159 140.722 103.582C139.402 104.005 138.103 104.71 137.387 105.899C136.783 106.896 136.612 108.185 135.735 108.961C134.778 109.807 133.318 109.737 132.22 110.381C130.648 111.308 130.255 113.444 130.547 115.237C130.84 117.03 131.656 118.723 131.877 120.536C132.119 122.48 131.615 124.495 130.547 126.127C126.689 124.253 123.697 120.888 122.307 116.788C123.143 116.315 123.848 115.61 124.292 114.753C124.957 113.464 125.027 111.882 124.463 110.543C124.251 110.029 123.939 109.525 123.949 108.961C123.969 108.034 124.836 107.39 125.621 106.906C126.407 106.422 127.294 105.838 127.425 104.932C127.556 103.964 126.77 103.138 126.065 102.464C125.732 102.141 125.38 101.778 125.138 101.376C128.089 97.7893 132.572 95.5026 137.579 95.5026C141.649 95.5026 145.366 97.0136 148.197 99.5018V99.4918Z" fill="#E6DDF7"/>
<path d="M127.414 104.922C127.293 105.838 126.406 106.422 125.611 106.896C124.825 107.379 123.959 108.034 123.938 108.951C123.928 109.505 124.231 110.019 124.452 110.533C125.016 111.872 124.946 113.454 124.281 114.743C123.838 115.59 123.133 116.305 122.296 116.778C121.752 115.156 121.45 113.424 121.45 111.61C121.45 107.722 122.83 104.156 125.127 101.365C125.369 101.768 125.721 102.131 126.054 102.453C126.759 103.128 127.545 103.954 127.414 104.922Z" fill="#643E96" fill-opacity="0.8"/>
<path d="M144.167 107.793C143.412 108.518 143.23 109.868 143.976 110.613C144.52 111.147 145.336 111.248 146.091 111.369C146.847 111.49 147.673 111.741 148.025 112.416C148.549 113.414 147.703 114.633 147.925 115.741C148.106 116.627 148.932 117.242 149.788 117.554C150.594 117.846 151.45 117.967 152.246 118.279C151.148 120.687 149.476 122.772 147.411 124.374C146.273 124.021 145.164 123.568 143.996 123.387C140.984 122.923 137.76 124.535 136.32 127.225C136.239 127.366 136.169 127.517 136.098 127.668C134.124 127.487 132.24 126.953 130.537 126.127C131.615 124.495 132.109 122.48 131.867 120.536C131.645 118.733 130.83 117.04 130.537 115.237C130.245 113.444 130.638 111.308 132.21 110.382C133.308 109.737 134.768 109.807 135.725 108.961C136.602 108.185 136.763 106.896 137.377 105.899C138.093 104.72 139.402 104.005 140.712 103.582C142.032 103.159 143.412 102.967 144.721 102.514C146.031 102.061 147.31 101.295 147.955 100.076C148.056 99.8948 148.126 99.6933 148.187 99.4918C151.037 101.99 153.002 105.476 153.536 109.414C153.344 109.414 153.143 109.404 152.951 109.374C151.914 109.233 150.947 108.75 150.02 108.266C149.093 107.783 148.146 107.279 147.109 107.087C146.071 106.896 144.913 107.067 144.157 107.793H144.167Z" fill="#643E96" fill-opacity="0.8"/>
<path d="M153.697 111.611C153.697 113.988 153.183 116.255 152.256 118.279C151.461 117.967 150.594 117.856 149.798 117.554C148.952 117.242 148.116 116.627 147.935 115.741C147.713 114.633 148.559 113.414 148.036 112.416C147.683 111.742 146.847 111.49 146.101 111.369C145.346 111.248 144.53 111.147 143.986 110.613C143.24 109.868 143.412 108.518 144.177 107.793C144.933 107.067 146.091 106.896 147.129 107.087C148.166 107.279 149.103 107.783 150.04 108.266C150.967 108.75 151.934 109.233 152.972 109.374C153.163 109.404 153.354 109.414 153.556 109.414C153.657 110.13 153.707 110.865 153.707 111.611H153.697Z" fill="#E6DDF7"/>
<path d="M147.421 124.374C144.701 126.479 141.286 127.729 137.579 127.729C137.086 127.729 136.592 127.708 136.108 127.658C136.179 127.507 136.249 127.366 136.33 127.215C137.771 124.525 140.994 122.913 144.006 123.377C145.185 123.558 146.293 124.011 147.421 124.364V124.374Z" fill="#E6DDF7"/>
<path d="M122.572 159.158L123.588 156.526C124.099 156.747 124.589 156.913 125.059 157.024C125.529 157.134 125.998 157.189 126.468 157.189C126.952 157.189 127.352 157.148 127.67 157.065C128.002 156.968 128.25 156.83 128.416 156.651C128.582 156.471 128.665 156.257 128.665 156.008C128.665 155.773 128.589 155.449 128.437 155.034C128.299 154.62 128.043 154.081 127.67 153.418C127.297 152.741 126.751 151.905 126.033 150.91L128.499 149.273C129.162 150.213 129.736 151.131 130.219 152.029C130.703 152.913 131.076 153.742 131.338 154.516C131.614 155.276 131.753 155.946 131.753 156.526C131.753 157.245 131.559 157.873 131.172 158.412C130.799 158.937 130.24 159.351 129.494 159.655C128.762 159.959 127.857 160.111 126.779 160.111C126.378 160.111 125.929 160.077 125.432 160.008C124.935 159.939 124.43 159.835 123.919 159.697C123.422 159.559 122.973 159.379 122.572 159.158ZM137.07 157.189C137.692 157.189 138.168 157.134 138.5 157.024C138.832 156.913 139.06 156.768 139.184 156.588C139.308 156.409 139.37 156.215 139.37 156.008C139.37 155.677 139.274 155.29 139.08 154.848C138.901 154.406 138.673 153.943 138.396 153.459C138.12 152.976 137.83 152.513 137.526 152.071C137.236 151.629 136.973 151.242 136.739 150.91L139.205 149.273C139.799 150.074 140.31 150.869 140.738 151.656C141.166 152.43 141.512 153.148 141.774 153.811C142.051 154.475 142.244 155.041 142.355 155.511C142.465 155.953 142.631 156.298 142.852 156.547C143.087 156.782 143.356 156.948 143.66 157.044C143.964 157.141 144.268 157.189 144.572 157.189C145.097 157.189 145.47 157.327 145.691 157.604C145.926 157.866 146.043 158.198 146.043 158.598C146.043 159.027 145.898 159.386 145.608 159.676C145.332 159.952 144.917 160.091 144.365 160.091C143.757 160.091 143.225 160.008 142.769 159.842C142.313 159.676 141.926 159.414 141.609 159.054C141.291 158.695 141.021 158.239 140.8 157.687L142.064 157.956C141.954 158.343 141.698 158.702 141.298 159.034C140.911 159.351 140.393 159.614 139.743 159.821C139.108 160.015 138.355 160.111 137.485 160.111C137.07 160.111 136.607 160.077 136.096 160.008C135.599 159.939 135.101 159.835 134.604 159.697C134.121 159.559 133.678 159.379 133.278 159.158L134.293 156.526C134.804 156.747 135.295 156.913 135.765 157.024C136.248 157.134 136.683 157.189 137.07 157.189ZM144.391 160.091L144.599 157.189C145.345 157.189 146.084 157.148 146.816 157.065C147.548 156.982 148.26 156.858 148.95 156.692C149.641 156.526 150.297 156.312 150.919 156.05C151.555 155.787 152.149 155.469 152.701 155.096C152.287 154.848 151.838 154.633 151.354 154.454C150.871 154.274 150.353 154.143 149.8 154.06C149.261 153.963 148.688 153.915 148.08 153.915C147.859 153.915 147.624 153.922 147.376 153.936C147.141 153.95 146.899 153.977 146.65 154.019C146.402 154.046 146.153 154.088 145.904 154.143L145.49 151.304C145.89 151.193 146.312 151.117 146.754 151.076C147.21 151.021 147.61 150.993 147.956 150.993C148.702 150.993 149.386 151.076 150.007 151.242C150.643 151.408 151.223 151.615 151.748 151.863C152.287 152.112 152.784 152.361 153.24 152.61C153.71 152.858 154.152 153.065 154.566 153.231C154.995 153.397 155.409 153.48 155.81 153.48H156.577L156.908 156.236C156.314 156.264 155.755 156.381 155.23 156.588C154.718 156.782 154.207 157.03 153.696 157.334C153.199 157.625 152.66 157.928 152.08 158.246C151.513 158.564 150.871 158.861 150.152 159.137C149.434 159.414 148.605 159.642 147.666 159.821C146.726 160.001 145.635 160.091 144.391 160.091Z" fill="#643E96"/>
<path d="M39.8744 195.106C39.4553 195.106 39.0362 195.066 38.6171 194.985C38.1981 194.905 37.8113 194.764 37.4567 194.562C37.1101 194.361 36.8281 194.083 36.6105 193.728C36.3929 193.374 36.2841 192.934 36.2841 192.411C36.2841 191.871 36.3888 191.395 36.5984 190.984C36.8079 190.581 37.0779 190.227 37.4083 189.92C37.7387 189.614 38.0893 189.336 38.46 189.086C38.8307 188.836 39.1813 188.603 39.5117 188.385C39.8421 188.16 40.1081 187.934 40.3095 187.708C40.5191 187.483 40.6238 187.233 40.6238 186.959C40.6238 186.854 40.5916 186.753 40.5271 186.657C40.4707 186.552 40.37 186.463 40.2249 186.391C40.0879 186.318 39.8985 186.282 39.6568 186.282C39.4956 186.282 39.3143 186.306 39.1128 186.354C38.9194 186.395 38.734 186.451 38.5567 186.524C38.3794 186.596 38.2263 186.677 38.0973 186.765C38.3149 186.943 38.5204 187.124 38.7139 187.309C38.9073 187.487 39.1007 187.672 39.2941 187.865C39.4875 188.059 39.6809 188.264 39.8744 188.482C40.0678 188.595 40.2652 188.695 40.4667 188.784C40.6762 188.865 40.8938 188.937 41.1195 189.002C41.3532 189.066 41.6111 189.119 41.8931 189.159C42.1752 189.191 42.4975 189.207 42.8602 189.207C43.0697 189.207 43.2188 189.264 43.3075 189.376C43.3961 189.489 43.4405 189.622 43.4405 189.775C43.4405 189.945 43.376 190.094 43.247 190.223C43.1181 190.344 42.9489 190.404 42.7393 190.404C42.0704 190.404 41.5103 190.356 41.059 190.259C40.6077 190.154 40.2169 190.009 39.8864 189.824C39.5641 189.638 39.2458 189.425 38.9314 189.183C38.8025 189.014 38.6494 188.836 38.4721 188.651C38.3028 188.466 38.1215 188.28 37.9281 188.095C37.7347 187.91 37.5372 187.744 37.3358 187.599C37.2955 187.567 37.2512 187.495 37.2028 187.382C37.1544 187.261 37.1101 187.14 37.0698 187.019C37.0376 186.89 37.0215 186.798 37.0215 186.741C37.0215 186.604 37.098 186.447 37.2512 186.27C37.4043 186.084 37.6098 185.911 37.8677 185.75C38.1336 185.581 38.4358 185.444 38.7743 185.339C39.1208 185.226 39.4835 185.17 39.8623 185.17C40.4989 185.17 40.9784 185.319 41.3008 185.617C41.6312 185.907 41.7964 186.266 41.7964 186.693C41.7964 187.12 41.6917 187.507 41.4821 187.853C41.2726 188.192 41.0026 188.502 40.6722 188.784C40.3498 189.058 40.0073 189.324 39.6447 189.582C39.282 189.832 38.9355 190.09 38.6051 190.356C38.2827 190.622 38.0168 190.908 37.8072 191.214C37.5977 191.52 37.4929 191.867 37.4929 192.253C37.4929 192.592 37.5735 192.87 37.7347 193.088C37.9039 193.305 38.1135 193.47 38.3633 193.583C38.6131 193.704 38.875 193.789 39.149 193.837C39.423 193.885 39.6648 193.91 39.8744 193.91C40.1484 193.91 40.4264 193.889 40.7085 193.849C40.9986 193.809 41.2968 193.744 41.603 193.656C41.9173 193.567 42.2356 193.458 42.558 193.329L42.9327 194.309C42.6748 194.454 42.3767 194.587 42.0382 194.707C41.6997 194.836 41.3411 194.933 40.9623 194.998C40.5916 195.07 40.2289 195.106 39.8744 195.106ZM42.7389 190.404L42.8598 189.207C43.1983 189.207 43.5126 189.207 43.8027 189.207C44.1009 189.199 44.3709 189.187 44.6127 189.171C44.8625 189.155 45.0801 189.131 45.2654 189.098C45.4508 189.066 45.6079 189.026 45.7369 188.978C45.9706 188.881 46.1519 188.76 46.2809 188.615C46.4179 188.462 46.5146 188.264 46.571 188.023C46.6355 187.773 46.6677 187.458 46.6677 187.08C46.6677 186.725 46.6274 186.407 46.5468 186.125C46.4662 185.835 46.3494 185.609 46.1962 185.448C46.0431 185.278 45.8618 185.194 45.6523 185.194C45.483 185.194 45.3299 185.258 45.1929 185.387C45.0559 185.508 44.9471 185.669 44.8665 185.871C44.7859 186.064 44.7456 186.266 44.7456 186.475C44.7456 186.62 44.7779 186.749 44.8423 186.862C44.9068 186.967 45.0116 187.051 45.1566 187.116C45.3098 187.172 45.5032 187.201 45.7369 187.201C45.9545 187.201 46.1761 187.18 46.4017 187.14C46.6274 187.092 46.8248 187.027 46.9941 186.947L47.0424 187.962C46.9135 188.051 46.7684 188.127 46.6073 188.192C46.4461 188.248 46.2728 188.292 46.0874 188.325C45.9102 188.349 45.7288 188.361 45.5435 188.361C45.1325 188.361 44.7779 188.297 44.4797 188.168C44.1896 188.039 43.9639 187.857 43.8027 187.624C43.6496 187.382 43.573 187.088 43.573 186.741C43.573 186.419 43.6254 186.096 43.7302 185.774C43.835 185.452 43.9841 185.158 44.1775 184.892C44.3709 184.626 44.6006 184.412 44.8665 184.251C45.1325 184.09 45.4266 184.009 45.749 184.009C46.2164 184.009 46.6032 184.154 46.9095 184.444C47.2238 184.734 47.4534 185.121 47.5985 185.605C47.7516 186.08 47.8282 186.596 47.8282 187.152C47.8282 187.74 47.7315 188.252 47.5381 188.687C47.3446 189.115 47.0424 189.461 46.6314 189.727C46.4461 189.864 46.2245 189.977 45.9666 190.065C45.7087 190.154 45.4145 190.227 45.0841 190.283C44.7617 190.331 44.4031 190.364 44.0082 190.38C43.6214 190.396 43.1983 190.404 42.7389 190.404ZM45.5797 182.788C45.3863 182.788 45.2211 182.724 45.0841 182.595C44.9552 182.466 44.8907 182.305 44.8907 182.111C44.8907 181.926 44.9552 181.765 45.0841 181.628C45.2211 181.491 45.3863 181.422 45.5797 181.422C45.7651 181.422 45.9222 181.491 46.0512 181.628C46.1882 181.765 46.2567 181.926 46.2567 182.111C46.2567 182.305 46.1882 182.466 46.0512 182.595C45.9222 182.724 45.7651 182.788 45.5797 182.788ZM50.9575 189.207C51.3443 189.207 51.6506 189.171 51.8762 189.098C52.1019 189.018 52.2631 188.909 52.3598 188.772C52.4645 188.627 52.5169 188.462 52.5169 188.276C52.5169 188.107 52.4686 187.906 52.3718 187.672C52.2832 187.438 52.1623 187.18 52.0092 186.898C51.8641 186.616 51.6989 186.33 51.5136 186.04C51.3282 185.742 51.1388 185.452 50.9454 185.17L51.9488 184.505C52.2792 184.98 52.5612 185.436 52.7949 185.871C53.0367 186.298 53.2382 186.697 53.3994 187.068C53.5605 187.438 53.6814 187.781 53.762 188.095C53.8668 188.417 53.9877 188.659 54.1247 188.82C54.2617 188.982 54.4108 189.086 54.572 189.135C54.7331 189.183 54.8863 189.207 55.0313 189.207C55.2408 189.207 55.3899 189.264 55.4786 189.376C55.5753 189.489 55.6236 189.622 55.6236 189.775C55.6236 189.945 55.5592 190.094 55.4302 190.223C55.3093 190.344 55.1361 190.404 54.9104 190.404C54.6203 190.404 54.3463 190.356 54.0884 190.259C53.8305 190.154 53.6089 189.993 53.4235 189.775C53.2382 189.55 53.1012 189.252 53.0125 188.881L53.5686 188.651C53.5525 188.949 53.4598 189.235 53.2906 189.509C53.1294 189.775 52.8675 189.993 52.5048 190.162C52.1422 190.331 51.6506 190.416 51.03 190.416C50.756 190.416 50.478 190.392 50.1959 190.344C49.9219 190.303 49.66 190.239 49.4102 190.15C49.1684 190.053 48.9548 189.941 48.7695 189.812L49.2893 188.772C49.4908 188.885 49.7325 188.986 50.0146 189.074C50.3047 189.163 50.619 189.207 50.9575 189.207ZM54.9219 190.404L55.0307 189.207C55.4658 189.207 55.7721 189.167 55.9494 189.086C56.1267 188.998 56.2314 188.845 56.2637 188.627C56.2959 188.401 56.304 188.083 56.2879 187.672L56.0582 181.652H57.2549L57.4967 187.636C57.5128 188.071 57.4967 188.462 57.4483 188.808C57.4 189.155 57.2872 189.449 57.1099 189.691C56.9406 189.924 56.6787 190.102 56.3241 190.223C55.9776 190.344 55.5102 190.404 54.9219 190.404ZM59.2675 190.344L59.0257 181.652H60.2225L60.4642 190.344H59.2675ZM70.4712 190.404C69.9957 190.404 69.5767 190.339 69.214 190.211C68.8594 190.074 68.5774 189.852 68.3678 189.546C68.1664 189.231 68.0495 188.8 68.0173 188.252L67.8238 183.852H69.0085L69.214 187.926C69.2301 188.288 69.2906 188.562 69.3953 188.748C69.5082 188.933 69.6613 189.058 69.8547 189.123C70.0562 189.179 70.302 189.207 70.5921 189.207C70.8016 189.207 70.9507 189.264 71.0394 189.376C71.1361 189.489 71.1844 189.622 71.1844 189.775C71.1844 189.945 71.12 190.094 70.991 190.223C70.8621 190.344 70.6888 190.404 70.4712 190.404ZM68.525 189.135C68.0414 189.272 67.574 189.34 67.1227 189.34C66.6714 189.332 66.2604 189.26 65.8897 189.123C65.527 188.986 65.2369 188.784 65.0193 188.518C64.8017 188.252 64.6929 187.926 64.6929 187.539C64.6929 187.168 64.7816 186.826 64.9589 186.511C65.1362 186.197 65.382 185.919 65.6963 185.677C66.0106 185.436 66.3773 185.234 66.7963 185.073C67.2154 184.904 67.6627 184.787 68.1381 184.722L68.3074 185.943C67.9206 185.959 67.574 186.012 67.2678 186.1C66.9696 186.189 66.7157 186.302 66.5062 186.439C66.3047 186.576 66.1476 186.725 66.0348 186.886C65.9219 187.047 65.8655 187.213 65.8655 187.382C65.8655 187.543 65.926 187.676 66.0468 187.781C66.1677 187.886 66.3208 187.97 66.5062 188.035C66.6996 188.091 66.9092 188.123 67.1348 188.131C67.3685 188.139 67.5982 188.131 67.8238 188.107C68.0495 188.075 68.251 188.031 68.4283 187.974L68.525 189.135ZM68.3557 182.498C68.1704 182.498 68.0092 182.434 67.8722 182.305C67.7433 182.176 67.6788 182.019 67.6788 181.833C67.6788 181.656 67.7433 181.499 67.8722 181.362C68.0092 181.225 68.1704 181.156 68.3557 181.156C68.533 181.156 68.6862 181.225 68.8151 181.362C68.9521 181.499 69.0206 181.656 69.0206 181.833C69.0206 182.019 68.9521 182.176 68.8151 182.305C68.6862 182.434 68.533 182.498 68.3557 182.498ZM66.5787 182.498C66.3853 182.498 66.2241 182.434 66.0952 182.305C65.9663 182.168 65.9018 182.011 65.9018 181.833C65.9018 181.648 65.9663 181.491 66.0952 181.362C66.2241 181.225 66.3813 181.156 66.5666 181.156C66.752 181.156 66.9092 181.225 67.0381 181.362C67.167 181.491 67.2315 181.648 67.2315 181.833C67.2315 182.011 67.167 182.168 67.0381 182.305C66.9092 182.434 66.756 182.498 66.5787 182.498ZM70.4692 190.404L70.5901 189.207C70.8238 189.207 71.0535 189.207 71.2792 189.207C71.5129 189.199 71.7345 189.183 71.944 189.159C72.1536 189.135 72.351 189.11 72.5364 189.086C72.7217 189.054 72.8869 189.018 73.032 188.978C73.306 188.889 73.5558 188.776 73.7815 188.639C74.0071 188.494 74.1885 188.325 74.3255 188.131C74.4625 187.938 74.531 187.716 74.531 187.466C74.531 187.297 74.4907 187.12 74.4101 186.935C74.3295 186.749 74.2167 186.596 74.0716 186.475C73.9346 186.346 73.7734 186.282 73.5881 186.282C73.4027 186.282 73.2335 186.342 73.0803 186.463C72.9353 186.576 72.8144 186.729 72.7177 186.922C72.629 187.108 72.5847 187.305 72.5847 187.515C72.5847 187.749 72.6411 187.962 72.754 188.155C72.8748 188.341 73.0239 188.506 73.2012 188.651C73.3785 188.788 73.5679 188.905 73.7694 189.002L72.488 189.425C72.343 189.304 72.1858 189.155 72.0166 188.978C71.8473 188.8 71.6982 188.587 71.5693 188.337C71.4484 188.079 71.388 187.789 71.388 187.466C71.388 187.128 71.4484 186.818 71.5693 186.536C71.6982 186.246 71.8675 185.996 72.077 185.786C72.2946 185.569 72.5364 185.403 72.8023 185.291C73.0683 185.17 73.3423 185.109 73.6243 185.109C74.0434 185.109 74.4101 185.218 74.7244 185.436C75.0387 185.653 75.2805 185.935 75.4497 186.282C75.627 186.62 75.7156 186.983 75.7156 187.37C75.7156 187.724 75.6471 188.047 75.5101 188.337C75.3812 188.627 75.2039 188.885 74.9782 189.11C74.7526 189.328 74.4907 189.517 74.1925 189.679C73.9024 189.84 73.5961 189.973 73.2738 190.078C73.0965 190.134 72.899 190.182 72.6814 190.223C72.4719 190.263 72.2422 190.299 71.9924 190.331C71.7506 190.356 71.5008 190.372 71.2429 190.38C70.985 190.396 70.7271 190.404 70.4692 190.404ZM76.5739 190.404C76.1468 190.404 75.7156 190.38 75.2805 190.331C74.8453 190.275 74.4343 190.202 74.0474 190.114C73.6687 190.025 73.3503 189.924 73.0924 189.812L73.9265 189.002C74.1683 189.042 74.4504 189.078 74.7727 189.11C75.1032 189.143 75.4376 189.167 75.7761 189.183C76.1146 189.199 76.4208 189.207 76.6948 189.207C76.9043 189.207 77.0534 189.264 77.1421 189.376C77.2388 189.489 77.2871 189.622 77.2871 189.775C77.2871 189.945 77.2227 190.094 77.0937 190.223C76.9648 190.344 76.7915 190.404 76.5739 190.404ZM74.4584 183.9C74.2731 183.9 74.1119 183.836 73.9749 183.707C73.846 183.578 73.7815 183.421 73.7815 183.235C73.7815 183.058 73.846 182.901 73.9749 182.764C74.1119 182.627 74.2731 182.559 74.4584 182.559C74.6357 182.559 74.7889 182.627 74.9178 182.764C75.0548 182.901 75.1233 183.058 75.1233 183.235C75.1233 183.421 75.0548 183.578 74.9178 183.707C74.7889 183.836 74.6357 183.9 74.4584 183.9ZM72.6814 183.9C72.488 183.9 72.3268 183.836 72.1979 183.707C72.0689 183.57 72.0045 183.413 72.0045 183.235C72.0045 183.05 72.0689 182.893 72.1979 182.764C72.3268 182.627 72.484 182.559 72.6693 182.559C72.8547 182.559 73.0118 182.627 73.1408 182.764C73.2697 182.893 73.3342 183.05 73.3342 183.235C73.3342 183.413 73.2697 183.57 73.1408 183.707C73.0118 183.836 72.8587 183.9 72.6814 183.9ZM76.5725 190.404L76.6934 189.207C77.1689 189.207 77.5396 189.187 77.8055 189.147C78.0715 189.106 78.2568 189.014 78.3616 188.869C78.4744 188.724 78.5308 188.502 78.5308 188.204C78.5308 187.994 78.4986 187.744 78.4341 187.454C78.3697 187.164 78.285 186.862 78.1803 186.548C78.0836 186.225 77.9788 185.911 77.866 185.605L79.0385 185.218C79.1433 185.484 79.2441 185.786 79.3408 186.125C79.4375 186.463 79.5181 186.802 79.5825 187.14C79.647 187.479 79.6792 187.789 79.6792 188.071C79.6792 188.514 79.6148 188.885 79.4858 189.183C79.3569 189.481 79.1594 189.723 78.8935 189.908C78.6356 190.086 78.3132 190.215 77.9264 190.295C77.5396 190.368 77.0883 190.404 76.5725 190.404ZM79.0265 192.846C78.8411 192.846 78.6799 192.777 78.5429 192.64C78.414 192.511 78.3495 192.358 78.3495 192.181C78.3495 191.996 78.414 191.834 78.5429 191.697C78.6799 191.568 78.8411 191.504 79.0265 191.504C79.2118 191.504 79.369 191.568 79.4979 191.697C79.6269 191.834 79.6913 191.996 79.6913 192.181C79.6913 192.358 79.6269 192.511 79.4979 192.64C79.369 192.777 79.2118 192.846 79.0265 192.846ZM77.2495 192.846C77.056 192.846 76.8949 192.777 76.7659 192.64C76.637 192.511 76.5725 192.358 76.5725 192.181C76.5725 191.996 76.637 191.834 76.7659 191.697C76.8949 191.568 77.056 191.504 77.2495 191.504C77.4268 191.504 77.5799 191.568 77.7088 191.697C77.8378 191.834 77.9022 191.996 77.9022 192.181C77.9022 192.358 77.8378 192.511 77.7088 192.64C77.5799 192.777 77.4268 192.846 77.2495 192.846ZM80.5059 193.148L80.0707 192.06C80.6106 191.875 81.07 191.665 81.4488 191.431C81.8356 191.198 82.1459 190.948 82.3796 190.682C82.6214 190.416 82.7987 190.138 82.9115 189.848C83.0243 189.558 83.0807 189.268 83.0807 188.978C83.0807 188.599 82.9961 188.208 82.8269 187.805C82.6576 187.402 82.4682 187.011 82.2587 186.632L83.3467 186.088C83.4998 186.362 83.6328 186.64 83.7456 186.922C83.8584 187.196 83.9592 187.454 84.0478 187.696C84.1365 187.93 84.205 188.127 84.2533 188.288C84.3661 188.651 84.5152 188.897 84.7006 189.026C84.8859 189.147 85.1559 189.207 85.5105 189.207C85.72 189.207 85.8691 189.264 85.9578 189.376C86.0545 189.489 86.1028 189.622 86.1028 189.775C86.1028 189.945 86.0384 190.094 85.9094 190.223C85.7805 190.344 85.6072 190.404 85.3896 190.404C85.0431 190.404 84.753 190.348 84.5193 190.235C84.2855 190.114 84.1082 189.957 83.9874 189.763C83.8665 189.562 83.7859 189.344 83.7456 189.11L84.1445 189.34C84.1365 189.84 84.0115 190.299 83.7698 190.718C83.5361 191.145 83.2338 191.52 82.8631 191.842C82.5005 192.165 82.1096 192.435 81.6906 192.652C81.2715 192.878 80.8766 193.043 80.5059 193.148ZM85.3909 190.404L85.5118 189.207H88.0867C88.8039 189.207 89.4164 189.179 89.9241 189.123C90.4399 189.058 90.859 188.969 91.1813 188.857C91.5037 188.736 91.7374 188.587 91.8825 188.409C92.0356 188.232 92.1121 188.031 92.1121 187.805C92.1121 187.66 92.0678 187.511 91.9792 187.358C91.8986 187.196 91.7696 187.063 91.5923 186.959C91.4231 186.854 91.1974 186.802 90.9154 186.802C90.5527 186.802 90.1901 186.894 89.8274 187.08C89.4728 187.257 89.1343 187.487 88.812 187.769C88.4896 188.051 88.1955 188.349 87.9295 188.663C87.6636 188.969 87.446 189.247 87.2767 189.497L85.9954 189.401C86.2774 188.949 86.6038 188.498 86.9745 188.047C87.3452 187.595 87.7482 187.188 88.1834 186.826C88.6186 186.455 89.0739 186.157 89.5494 185.931C90.0249 185.706 90.5084 185.593 91 185.593C91.4755 185.593 91.8784 185.689 92.2088 185.883C92.5473 186.076 92.8052 186.338 92.9825 186.669C93.1679 186.991 93.2605 187.362 93.2605 187.781C93.2605 188.208 93.1195 188.619 92.8374 189.014C92.5634 189.401 92.088 189.715 91.411 189.957C91.0806 190.07 90.7099 190.158 90.2989 190.223C89.8959 190.287 89.4285 190.331 88.8966 190.356C88.3647 190.388 87.7522 190.404 87.0592 190.404H85.3909ZM86.5756 189.195L86.3218 181.652H87.5185L87.7482 188.047L86.5756 189.195ZM97.6375 193.124L97.3716 191.927C97.8873 191.863 98.3507 191.774 98.7617 191.661C99.1727 191.548 99.5233 191.387 99.8134 191.178C100.112 190.976 100.337 190.702 100.49 190.356C100.652 190.017 100.732 189.586 100.732 189.062C100.732 188.836 100.708 188.619 100.66 188.409C100.619 188.192 100.555 187.998 100.466 187.829C100.378 187.652 100.273 187.515 100.152 187.418C100.031 187.313 99.89 187.261 99.7288 187.261C99.5515 187.261 99.3944 187.325 99.2574 187.454C99.1204 187.583 99.0116 187.749 98.931 187.95C98.8504 188.143 98.8101 188.341 98.8101 188.542C98.8101 188.695 98.8423 188.828 98.9068 188.941C98.9793 189.046 99.0881 189.127 99.2332 189.183C99.3783 189.239 99.5676 189.268 99.8014 189.268C100.019 189.268 100.241 189.243 100.466 189.195C100.7 189.147 100.901 189.082 101.071 189.002L101.119 189.993C100.926 190.13 100.7 190.239 100.442 190.319C100.184 190.392 99.9101 190.428 99.62 190.428C99.3138 190.428 99.0398 190.396 98.798 190.331C98.5562 190.267 98.3467 190.17 98.1694 190.041C98.0002 189.904 97.8712 189.735 97.7826 189.534C97.6939 189.324 97.6496 189.082 97.6496 188.808C97.6496 188.478 97.702 188.147 97.8068 187.817C97.9115 187.487 98.0606 187.188 98.254 186.922C98.4474 186.657 98.6771 186.443 98.9431 186.282C99.209 186.121 99.4991 186.04 99.8134 186.04C100.16 186.04 100.462 186.129 100.72 186.306C100.986 186.475 101.204 186.709 101.373 187.007C101.55 187.297 101.679 187.624 101.76 187.986C101.848 188.349 101.893 188.716 101.893 189.086C101.893 189.884 101.727 190.569 101.397 191.141C101.075 191.714 100.595 192.165 99.9585 192.495C99.3299 192.826 98.5562 193.035 97.6375 193.124ZM106.011 190.247C106.011 190.061 106.027 189.856 106.059 189.63C106.1 189.397 106.156 189.143 106.229 188.869C106.309 188.595 106.418 188.301 106.555 187.986L107.607 188.373C107.526 188.607 107.454 188.824 107.389 189.026C107.325 189.227 107.276 189.417 107.244 189.594C107.22 189.771 107.208 189.941 107.208 190.102C107.208 190.521 107.308 190.863 107.51 191.129C107.719 191.395 108.006 191.593 108.368 191.722C108.739 191.859 109.154 191.927 109.613 191.927C110.145 191.927 110.588 191.855 110.943 191.71C111.298 191.573 111.576 191.387 111.777 191.153C111.987 190.928 112.132 190.674 112.212 190.392C112.301 190.11 112.345 189.836 112.345 189.57C112.345 189.256 112.285 188.881 112.164 188.446C112.051 188.002 111.842 187.466 111.535 186.838L112.635 186.318C112.797 186.616 112.946 186.939 113.083 187.285C113.22 187.632 113.329 187.99 113.409 188.361C113.498 188.724 113.542 189.086 113.542 189.449C113.542 189.763 113.502 190.09 113.421 190.428C113.341 190.775 113.208 191.105 113.022 191.419C112.845 191.742 112.603 192.032 112.297 192.29C111.999 192.548 111.628 192.749 111.185 192.894C110.742 193.047 110.214 193.124 109.601 193.124C109.11 193.124 108.646 193.067 108.211 192.955C107.776 192.85 107.393 192.681 107.063 192.447C106.74 192.213 106.482 191.915 106.289 191.552C106.104 191.19 106.011 190.755 106.011 190.247ZM109.746 185.496C109.553 185.496 109.388 185.432 109.251 185.303C109.122 185.174 109.057 185.012 109.057 184.819C109.057 184.634 109.122 184.473 109.251 184.336C109.388 184.199 109.553 184.13 109.746 184.13C109.932 184.13 110.089 184.199 110.218 184.336C110.355 184.473 110.423 184.634 110.423 184.819C110.423 185.012 110.355 185.174 110.218 185.303C110.089 185.432 109.932 185.496 109.746 185.496ZM117.763 190.404C117.086 190.404 116.566 190.331 116.203 190.186C115.841 190.033 115.591 189.804 115.454 189.497C115.317 189.183 115.236 188.78 115.212 188.288L114.97 181.652H116.167L116.421 187.781C116.437 188.168 116.473 188.466 116.53 188.675C116.594 188.877 116.727 189.018 116.929 189.098C117.138 189.171 117.457 189.207 117.884 189.207C118.093 189.207 118.242 189.264 118.331 189.376C118.428 189.489 118.476 189.622 118.476 189.775C118.476 189.945 118.411 190.094 118.283 190.223C118.154 190.344 117.98 190.404 117.763 190.404ZM117.761 190.404L117.882 189.207H119.042C119.59 189.207 120.001 189.179 120.275 189.123C120.549 189.058 120.726 188.973 120.807 188.869C120.896 188.764 120.94 188.651 120.94 188.53C120.94 188.353 120.871 188.155 120.734 187.938C120.597 187.712 120.42 187.483 120.203 187.249C119.985 187.007 119.755 186.769 119.514 186.536C119.272 186.302 119.042 186.088 118.824 185.895C118.607 185.693 118.426 185.52 118.28 185.375C118.143 185.23 118.075 185.125 118.075 185.061C118.075 184.908 118.087 184.775 118.111 184.662C118.135 184.541 118.164 184.436 118.196 184.348C118.236 184.251 118.285 184.174 118.341 184.118C118.494 183.957 118.712 183.783 118.994 183.598C119.276 183.413 119.602 183.223 119.973 183.03C120.344 182.829 120.742 182.623 121.17 182.413C121.605 182.204 122.052 181.99 122.511 181.773L123.007 182.837C122.572 183.046 122.157 183.248 121.762 183.441C121.367 183.626 120.992 183.812 120.638 183.997C120.291 184.174 119.969 184.352 119.671 184.529C119.372 184.698 119.102 184.871 118.861 185.049L118.945 184.493C119.3 184.799 119.634 185.093 119.949 185.375C120.263 185.649 120.557 185.931 120.831 186.221C121.105 186.503 121.359 186.806 121.593 187.128C121.834 187.45 122.064 187.805 122.282 188.192C122.451 188.49 122.64 188.712 122.85 188.857C123.068 189.002 123.281 189.098 123.491 189.147C123.7 189.187 123.877 189.207 124.023 189.207C124.232 189.207 124.381 189.264 124.47 189.376C124.566 189.489 124.615 189.622 124.615 189.775C124.615 189.945 124.55 190.094 124.421 190.223C124.292 190.344 124.119 190.404 123.902 190.404C123.668 190.404 123.402 190.368 123.104 190.295C122.806 190.215 122.515 190.074 122.233 189.872C121.959 189.671 121.738 189.368 121.569 188.965L122.016 189.086C121.895 189.32 121.754 189.517 121.593 189.679C121.432 189.84 121.234 189.977 121 190.09C120.767 190.194 120.485 190.275 120.154 190.331C119.824 190.38 119.429 190.404 118.97 190.404H117.761ZM123.899 190.404L124.02 189.207C124.238 189.207 124.407 189.163 124.528 189.074C124.657 188.978 124.782 188.82 124.903 188.603C125.024 188.385 125.177 188.091 125.362 187.72C125.564 187.333 125.765 187.015 125.966 186.765C126.168 186.515 126.365 186.318 126.559 186.173C126.76 186.028 126.954 185.927 127.139 185.871C127.324 185.806 127.502 185.774 127.671 185.774C127.945 185.774 128.195 185.835 128.42 185.955C128.646 186.068 128.86 186.27 129.061 186.56C129.263 186.842 129.464 187.233 129.666 187.732C129.843 188.151 130.004 188.47 130.149 188.687C130.302 188.897 130.459 189.038 130.621 189.11C130.79 189.175 130.975 189.207 131.177 189.207C131.386 189.207 131.535 189.264 131.624 189.376C131.713 189.489 131.757 189.622 131.757 189.775C131.757 189.945 131.692 190.094 131.563 190.223C131.434 190.344 131.265 190.404 131.056 190.404C130.717 190.404 130.407 190.348 130.125 190.235C129.843 190.122 129.613 189.949 129.436 189.715L129.653 189.461C129.573 189.687 129.46 189.884 129.315 190.053C129.17 190.215 128.997 190.339 128.795 190.428C128.602 190.525 128.384 190.573 128.142 190.573C127.901 190.573 127.639 190.521 127.357 190.416C127.083 190.311 126.813 190.158 126.547 189.957C126.281 189.755 126.043 189.509 125.834 189.219C125.64 189.566 125.451 189.824 125.265 189.993C125.08 190.162 124.879 190.275 124.661 190.331C124.443 190.38 124.189 190.404 123.899 190.404ZM126.365 188.155C126.486 188.349 126.619 188.522 126.764 188.675C126.909 188.828 127.058 188.957 127.212 189.062C127.365 189.167 127.518 189.247 127.671 189.304C127.832 189.36 127.981 189.389 128.118 189.389C128.368 189.389 128.553 189.3 128.674 189.123C128.803 188.937 128.799 188.679 128.662 188.349C128.606 188.188 128.537 188.027 128.457 187.865C128.384 187.704 128.304 187.555 128.215 187.418C128.126 187.273 128.026 187.16 127.913 187.08C127.808 186.991 127.695 186.947 127.574 186.947C127.453 186.947 127.328 186.987 127.199 187.068C127.079 187.14 126.946 187.265 126.801 187.442C126.664 187.612 126.519 187.849 126.365 188.155ZM131.053 190.404L131.162 189.207C131.597 189.207 131.903 189.167 132.081 189.086C132.258 188.998 132.363 188.845 132.395 188.627C132.427 188.401 132.435 188.083 132.419 187.672L132.19 181.652H133.386L133.628 187.636C133.644 188.071 133.628 188.462 133.58 188.808C133.531 189.155 133.419 189.449 133.241 189.691C133.072 189.924 132.81 190.102 132.456 190.223C132.109 190.344 131.642 190.404 131.053 190.404ZM135.399 190.344L135.157 181.652H136.354L136.596 190.344H135.399ZM141.175 193.124L140.909 191.927C141.425 191.863 141.888 191.774 142.299 191.661C142.71 191.548 143.061 191.387 143.351 191.178C143.649 190.976 143.875 190.702 144.028 190.356C144.189 190.017 144.27 189.586 144.27 189.062C144.27 188.836 144.245 188.619 144.197 188.409C144.157 188.192 144.092 187.998 144.004 187.829C143.915 187.652 143.81 187.515 143.689 187.418C143.568 187.313 143.427 187.261 143.266 187.261C143.089 187.261 142.932 187.325 142.795 187.454C142.658 187.583 142.549 187.749 142.468 187.95C142.388 188.143 142.347 188.341 142.347 188.542C142.347 188.695 142.38 188.828 142.444 188.941C142.517 189.046 142.626 189.127 142.771 189.183C142.916 189.239 143.105 189.268 143.339 189.268C143.556 189.268 143.778 189.243 144.004 189.195C144.237 189.147 144.439 189.082 144.608 189.002L144.656 189.993C144.463 190.13 144.237 190.239 143.979 190.319C143.722 190.392 143.448 190.428 143.157 190.428C142.851 190.428 142.577 190.396 142.335 190.331C142.094 190.267 141.884 190.17 141.707 190.041C141.538 189.904 141.409 189.735 141.32 189.534C141.231 189.324 141.187 189.082 141.187 188.808C141.187 188.478 141.239 188.147 141.344 187.817C141.449 187.487 141.598 187.188 141.791 186.922C141.985 186.657 142.215 186.443 142.48 186.282C142.746 186.121 143.037 186.04 143.351 186.04C143.697 186.04 144 186.129 144.257 186.306C144.523 186.475 144.741 186.709 144.91 187.007C145.088 187.297 145.216 187.624 145.297 187.986C145.386 188.349 145.43 188.716 145.43 189.086C145.43 189.884 145.265 190.569 144.934 191.141C144.612 191.714 144.133 192.165 143.496 192.495C142.867 192.826 142.094 193.035 141.175 193.124ZM157.37 190.404C156.991 190.404 156.62 190.38 156.257 190.331C155.895 190.275 155.564 190.154 155.266 189.969C154.968 189.775 154.722 189.485 154.529 189.098C154.343 188.704 154.231 188.168 154.19 187.491L155.085 187.055C155.133 187.555 155.226 187.95 155.363 188.24C155.5 188.522 155.673 188.732 155.883 188.869C156.092 189.006 156.334 189.098 156.608 189.147C156.882 189.187 157.176 189.207 157.49 189.207C157.7 189.207 157.849 189.264 157.938 189.376C158.026 189.489 158.071 189.622 158.071 189.775C158.071 189.945 158.006 190.094 157.877 190.223C157.756 190.344 157.587 190.404 157.37 190.404ZM153.61 195.106C153.03 195.106 152.482 195.038 151.966 194.901C151.45 194.764 150.995 194.554 150.6 194.272C150.205 193.998 149.895 193.648 149.669 193.221C149.452 192.801 149.343 192.306 149.343 191.734C149.343 191.242 149.415 190.779 149.56 190.344C149.706 189.908 149.915 189.505 150.189 189.135C150.471 188.756 150.81 188.413 151.204 188.107C151.599 187.793 152.043 187.519 152.534 187.285C153.026 187.051 153.554 186.858 154.118 186.705L154.033 186.874C153.832 186.81 153.618 186.741 153.392 186.669C153.175 186.596 152.941 186.528 152.691 186.463C152.45 186.391 152.188 186.334 151.906 186.294C151.632 186.254 151.337 186.233 151.023 186.233C150.773 186.233 150.544 186.254 150.334 186.294C150.133 186.326 149.947 186.366 149.778 186.415L149.585 185.291C149.802 185.21 150.04 185.145 150.298 185.097C150.564 185.041 150.834 185.012 151.108 185.012C151.503 185.012 151.857 185.049 152.172 185.121C152.486 185.194 152.78 185.282 153.054 185.387C153.336 185.484 153.622 185.585 153.912 185.689C154.21 185.794 154.529 185.883 154.867 185.955C155.206 186.028 155.593 186.064 156.028 186.064H156.257L156.318 187.309C155.955 187.309 155.56 187.354 155.133 187.442C154.706 187.523 154.279 187.648 153.852 187.817C153.425 187.978 153.01 188.18 152.607 188.421C152.212 188.663 151.857 188.945 151.543 189.268C151.237 189.582 150.991 189.932 150.806 190.319C150.628 190.706 150.54 191.129 150.54 191.589C150.54 192 150.624 192.35 150.793 192.64C150.963 192.938 151.192 193.18 151.483 193.366C151.781 193.551 152.123 193.684 152.51 193.765C152.897 193.853 153.308 193.898 153.743 193.898C154.154 193.898 154.573 193.853 155 193.765C155.427 193.676 155.846 193.551 156.257 193.39L156.644 194.405C156.137 194.647 155.625 194.824 155.109 194.937C154.593 195.05 154.094 195.106 153.61 195.106ZM153.03 183.804C152.836 183.804 152.671 183.739 152.534 183.61C152.405 183.481 152.341 183.32 152.341 183.127C152.341 182.941 152.405 182.78 152.534 182.643C152.671 182.506 152.836 182.438 153.03 182.438C153.215 182.438 153.372 182.506 153.501 182.643C153.638 182.78 153.707 182.941 153.707 183.127C153.707 183.32 153.638 183.481 153.501 183.61C153.372 183.739 153.215 183.804 153.03 183.804ZM157.367 190.404L157.488 189.207C157.963 189.207 158.334 189.187 158.6 189.147C158.866 189.106 159.051 189.014 159.156 188.869C159.269 188.724 159.325 188.502 159.325 188.204C159.325 187.994 159.293 187.744 159.229 187.454C159.164 187.164 159.079 186.862 158.975 186.548C158.878 186.225 158.773 185.911 158.66 185.605L159.833 185.218C159.938 185.484 160.039 185.786 160.135 186.125C160.232 186.463 160.313 186.802 160.377 187.14C160.441 187.479 160.474 187.789 160.474 188.071C160.474 188.514 160.409 188.885 160.28 189.183C160.151 189.481 159.954 189.723 159.688 189.908C159.43 190.086 159.108 190.215 158.721 190.295C158.334 190.368 157.883 190.404 157.367 190.404ZM159.821 192.846C159.636 192.846 159.474 192.777 159.337 192.64C159.208 192.511 159.144 192.358 159.144 192.181C159.144 191.996 159.208 191.834 159.337 191.697C159.474 191.568 159.636 191.504 159.821 191.504C160.006 191.504 160.163 191.568 160.292 191.697C160.421 191.834 160.486 191.996 160.486 192.181C160.486 192.358 160.421 192.511 160.292 192.64C160.163 192.777 160.006 192.846 159.821 192.846ZM158.044 192.846C157.85 192.846 157.689 192.777 157.56 192.64C157.431 192.511 157.367 192.358 157.367 192.181C157.367 191.996 157.431 191.834 157.56 191.697C157.689 191.568 157.85 191.504 158.044 191.504C158.221 191.504 158.374 191.568 158.503 191.697C158.632 191.834 158.697 191.996 158.697 192.181C158.697 192.358 158.632 192.511 158.503 192.64C158.374 192.777 158.221 192.846 158.044 192.846ZM161.3 193.124L160.865 192.024C161.647 191.766 162.255 191.468 162.691 191.129C163.126 190.791 163.432 190.436 163.609 190.065C163.787 189.695 163.875 189.332 163.875 188.978C163.875 188.752 163.847 188.53 163.791 188.313C163.742 188.095 163.658 187.853 163.537 187.587C163.416 187.313 163.255 186.995 163.053 186.632L164.141 186.088C164.439 186.62 164.657 187.124 164.794 187.599C164.939 188.067 165.011 188.49 165.011 188.869C165.011 189.344 164.939 189.779 164.794 190.174C164.649 190.569 164.451 190.924 164.202 191.238C163.952 191.56 163.666 191.842 163.343 192.084C163.021 192.326 162.682 192.532 162.328 192.701C161.981 192.878 161.639 193.019 161.3 193.124ZM169.398 190.404C168.722 190.404 168.202 190.331 167.839 190.186C167.476 190.033 167.227 189.804 167.09 189.497C166.953 189.183 166.872 188.78 166.848 188.288L166.606 181.652H167.803L168.057 187.781C168.073 188.168 168.109 188.466 168.165 188.675C168.23 188.877 168.363 189.018 168.564 189.098C168.774 189.171 169.092 189.207 169.519 189.207C169.729 189.207 169.878 189.264 169.967 189.376C170.063 189.489 170.112 189.622 170.112 189.775C170.112 189.945 170.047 190.094 169.918 190.223C169.789 190.344 169.616 190.404 169.398 190.404ZM169.396 190.404L169.517 189.207C169.888 189.207 170.182 189.179 170.4 189.123C170.625 189.058 170.799 188.941 170.92 188.772C171.048 188.595 171.153 188.341 171.234 188.01C171.314 187.68 171.403 187.241 171.5 186.693L172.636 186.898C172.604 187.043 172.568 187.201 172.527 187.37C172.495 187.539 172.467 187.712 172.443 187.89C172.419 188.059 172.406 188.208 172.406 188.337C172.406 188.466 172.419 188.587 172.443 188.699C172.475 188.804 172.543 188.893 172.648 188.965C172.761 189.038 172.934 189.098 173.168 189.147C173.41 189.187 173.74 189.207 174.159 189.207C174.369 189.207 174.518 189.264 174.607 189.376C174.695 189.489 174.739 189.622 174.739 189.775C174.739 189.945 174.675 190.094 174.546 190.223C174.425 190.344 174.256 190.404 174.038 190.404C173.579 190.404 173.204 190.38 172.914 190.331C172.624 190.275 172.394 190.19 172.225 190.078C172.056 189.965 171.931 189.82 171.85 189.642C171.77 189.465 171.713 189.256 171.681 189.014L172.104 189.026C171.975 189.324 171.822 189.566 171.645 189.751C171.476 189.928 171.282 190.065 171.065 190.162C170.855 190.259 170.609 190.323 170.327 190.356C170.053 190.388 169.743 190.404 169.396 190.404ZM172.817 185.496C172.632 185.496 172.471 185.432 172.334 185.303C172.205 185.174 172.14 185.017 172.14 184.831C172.14 184.654 172.205 184.497 172.334 184.36C172.471 184.223 172.632 184.154 172.817 184.154C172.995 184.154 173.148 184.223 173.277 184.36C173.414 184.497 173.482 184.654 173.482 184.831C173.482 185.017 173.414 185.174 173.277 185.303C173.148 185.432 172.995 185.496 172.817 185.496ZM171.028 185.496C170.843 185.496 170.682 185.432 170.545 185.303C170.416 185.166 170.351 185.008 170.351 184.831C170.351 184.646 170.416 184.489 170.545 184.36C170.682 184.223 170.843 184.154 171.028 184.154C171.214 184.154 171.371 184.223 171.5 184.36C171.629 184.489 171.693 184.646 171.693 184.831C171.693 185.008 171.629 185.166 171.5 185.303C171.371 185.432 171.214 185.496 171.028 185.496ZM174.036 190.404L174.145 189.207C174.58 189.207 174.886 189.167 175.063 189.086C175.241 188.998 175.345 188.845 175.378 188.627C175.41 188.401 175.418 188.083 175.402 187.672L175.172 181.652H176.369L176.611 187.636C176.627 188.071 176.611 188.462 176.562 188.808C176.514 189.155 176.401 189.449 176.224 189.691C176.055 189.924 175.793 190.102 175.438 190.223C175.092 190.344 174.624 190.404 174.036 190.404ZM178.381 190.344L178.14 181.652H179.336L179.578 190.344H178.381ZM181.017 193.124L180.751 191.927C181.267 191.863 181.731 191.774 182.142 191.661C182.553 191.548 182.903 191.387 183.193 191.178C183.491 190.976 183.717 190.702 183.87 190.356C184.031 190.017 184.112 189.586 184.112 189.062C184.112 188.836 184.088 188.619 184.039 188.409C183.999 188.192 183.935 187.998 183.846 187.829C183.757 187.652 183.653 187.515 183.532 187.418C183.411 187.313 183.27 187.261 183.109 187.261C182.931 187.261 182.774 187.325 182.637 187.454C182.5 187.583 182.391 187.749 182.311 187.95C182.23 188.143 182.19 188.341 182.19 188.542C182.19 188.695 182.222 188.828 182.287 188.941C182.359 189.046 182.468 189.127 182.613 189.183C182.758 189.239 182.947 189.268 183.181 189.268C183.399 189.268 183.62 189.243 183.846 189.195C184.08 189.147 184.281 189.082 184.45 189.002L184.499 189.993C184.305 190.13 184.08 190.239 183.822 190.319C183.564 190.392 183.29 190.428 183 190.428C182.694 190.428 182.42 190.396 182.178 190.331C181.936 190.267 181.726 190.17 181.549 190.041C181.38 189.904 181.251 189.735 181.162 189.534C181.074 189.324 181.029 189.082 181.029 188.808C181.029 188.478 181.082 188.147 181.187 187.817C181.291 187.487 181.44 187.188 181.634 186.922C181.827 186.657 182.057 186.443 182.323 186.282C182.589 186.121 182.879 186.04 183.193 186.04C183.54 186.04 183.842 186.129 184.1 186.306C184.366 186.475 184.583 186.709 184.753 187.007C184.93 187.297 185.059 187.624 185.139 187.986C185.228 188.349 185.272 188.716 185.272 189.086C185.272 189.884 185.107 190.569 184.777 191.141C184.454 191.714 183.975 192.165 183.338 192.495C182.71 192.826 181.936 193.035 181.017 193.124ZM193.876 190.597L194.19 189.401C194.714 189.401 195.246 189.372 195.786 189.316C196.334 189.252 196.869 189.139 197.393 188.978C197.925 188.816 198.425 188.591 198.892 188.301C199.368 188.01 199.787 187.636 200.149 187.176L201.08 187.672C201.016 187.849 200.971 187.998 200.947 188.119C200.923 188.232 200.911 188.333 200.911 188.421C200.911 188.567 200.955 188.699 201.044 188.82C201.133 188.933 201.298 189.026 201.54 189.098C201.781 189.171 202.116 189.207 202.543 189.207C202.753 189.207 202.902 189.264 202.99 189.376C203.087 189.489 203.135 189.622 203.135 189.775C203.135 189.945 203.071 190.094 202.942 190.223C202.813 190.344 202.64 190.404 202.422 190.404C201.898 190.404 201.439 190.344 201.044 190.223C200.649 190.102 200.351 189.916 200.149 189.667C199.948 189.417 199.863 189.102 199.896 188.724L200.198 188.796C199.884 189.102 199.505 189.368 199.062 189.594C198.618 189.82 198.123 190.009 197.575 190.162C197.035 190.307 196.45 190.416 195.822 190.489C195.201 190.561 194.553 190.597 193.876 190.597ZM193.876 190.597C193.11 190.597 192.445 190.545 191.881 190.44C191.325 190.335 190.861 190.178 190.491 189.969C190.128 189.759 189.858 189.497 189.681 189.183C189.504 188.869 189.415 188.498 189.415 188.071C189.415 187.845 189.431 187.62 189.463 187.394C189.495 187.168 189.54 186.943 189.596 186.717C189.661 186.491 189.721 186.278 189.778 186.076L190.853 186.33C190.821 186.459 190.785 186.608 190.745 186.777C190.704 186.947 190.672 187.116 190.648 187.285C190.624 187.446 190.612 187.591 190.612 187.72C190.612 188.107 190.716 188.425 190.926 188.675C191.144 188.917 191.51 189.098 192.026 189.219C192.55 189.34 193.271 189.401 194.19 189.401L194.432 190.211L193.876 190.597ZM195.967 185.375C195.781 185.375 195.62 185.311 195.483 185.182C195.354 185.053 195.29 184.896 195.29 184.71C195.29 184.533 195.354 184.376 195.483 184.239C195.62 184.102 195.781 184.033 195.967 184.033C196.144 184.033 196.297 184.102 196.426 184.239C196.563 184.376 196.632 184.533 196.632 184.71C196.632 184.896 196.563 185.053 196.426 185.182C196.297 185.311 196.144 185.375 195.967 185.375ZM194.19 185.375C193.996 185.375 193.835 185.311 193.706 185.182C193.577 185.045 193.513 184.888 193.513 184.71C193.513 184.525 193.577 184.368 193.706 184.239C193.835 184.102 193.992 184.033 194.178 184.033C194.363 184.033 194.52 184.102 194.649 184.239C194.778 184.368 194.843 184.525 194.843 184.71C194.843 184.888 194.778 185.045 194.649 185.182C194.52 185.311 194.367 185.375 194.19 185.375ZM202.427 190.404L202.548 189.207C202.887 189.207 203.201 189.207 203.491 189.207C203.789 189.199 204.059 189.187 204.301 189.171C204.551 189.155 204.768 189.131 204.954 189.098C205.139 189.066 205.296 189.026 205.425 188.978C205.659 188.881 205.84 188.76 205.969 188.615C206.106 188.462 206.203 188.264 206.259 188.023C206.324 187.773 206.356 187.458 206.356 187.08C206.356 186.725 206.316 186.407 206.235 186.125C206.154 185.835 206.038 185.609 205.885 185.448C205.731 185.278 205.55 185.194 205.341 185.194C205.171 185.194 205.018 185.258 204.881 185.387C204.744 185.508 204.635 185.669 204.555 185.871C204.474 186.064 204.434 186.266 204.434 186.475C204.434 186.62 204.466 186.749 204.531 186.862C204.595 186.967 204.7 187.051 204.845 187.116C204.998 187.172 205.191 187.201 205.425 187.201C205.643 187.201 205.864 187.18 206.09 187.14C206.316 187.092 206.513 187.027 206.682 186.947L206.731 187.962C206.602 188.051 206.457 188.127 206.296 188.192C206.134 188.248 205.961 188.292 205.776 188.325C205.598 188.349 205.417 188.361 205.232 188.361C204.821 188.361 204.466 188.297 204.168 188.168C203.878 188.039 203.652 187.857 203.491 187.624C203.338 187.382 203.261 187.088 203.261 186.741C203.261 186.419 203.314 186.096 203.418 185.774C203.523 185.452 203.672 185.158 203.866 184.892C204.059 184.626 204.289 184.412 204.555 184.251C204.821 184.09 205.115 184.009 205.437 184.009C205.905 184.009 206.291 184.154 206.598 184.444C206.912 184.734 207.142 185.121 207.287 185.605C207.44 186.08 207.516 186.596 207.516 187.152C207.516 187.74 207.42 188.252 207.226 188.687C207.033 189.115 206.731 189.461 206.32 189.727C206.134 189.864 205.913 189.977 205.655 190.065C205.397 190.154 205.103 190.227 204.772 190.283C204.45 190.331 204.091 190.364 203.696 190.38C203.31 190.396 202.887 190.404 202.427 190.404ZM206.175 182.8C205.989 182.8 205.828 182.736 205.691 182.607C205.562 182.478 205.498 182.321 205.498 182.135C205.498 181.958 205.562 181.801 205.691 181.664C205.828 181.527 205.989 181.458 206.175 181.458C206.352 181.458 206.505 181.527 206.634 181.664C206.771 181.801 206.839 181.958 206.839 182.135C206.839 182.321 206.771 182.478 206.634 182.607C206.505 182.736 206.352 182.8 206.175 182.8ZM204.398 182.8C204.204 182.8 204.043 182.736 203.914 182.607C203.785 182.47 203.721 182.313 203.721 182.135C203.721 181.95 203.785 181.793 203.914 181.664C204.043 181.527 204.2 181.458 204.386 181.458C204.571 181.458 204.728 181.527 204.857 181.664C204.986 181.793 205.05 181.95 205.05 182.135C205.05 182.313 204.986 182.47 204.857 182.607C204.728 182.736 204.575 182.8 204.398 182.8ZM208.736 193.124L208.47 191.927C208.986 191.863 209.449 191.774 209.86 191.661C210.271 191.548 210.622 191.387 210.912 191.178C211.21 190.976 211.436 190.702 211.589 190.356C211.75 190.017 211.83 189.586 211.83 189.062C211.83 188.538 211.738 188.107 211.552 187.769C211.367 187.43 211.125 187.261 210.827 187.261C210.658 187.261 210.505 187.325 210.368 187.454C210.231 187.575 210.122 187.736 210.041 187.938C209.961 188.139 209.92 188.349 209.92 188.567C209.92 188.687 209.949 188.792 210.005 188.881C210.061 188.969 210.154 189.042 210.283 189.098C210.412 189.147 210.589 189.183 210.815 189.207C211.041 189.223 211.319 189.223 211.649 189.207H214.043C214.252 189.207 214.401 189.264 214.49 189.376C214.587 189.489 214.635 189.622 214.635 189.775C214.635 189.945 214.57 190.094 214.442 190.223C214.313 190.344 214.139 190.404 213.922 190.404H210.9C210.497 190.404 210.13 190.352 209.8 190.247C209.477 190.134 209.219 189.961 209.026 189.727C208.841 189.485 208.748 189.171 208.748 188.784C208.748 188.438 208.8 188.103 208.905 187.781C209.018 187.45 209.171 187.156 209.364 186.898C209.566 186.632 209.796 186.423 210.053 186.27C210.319 186.117 210.605 186.04 210.912 186.04C211.315 186.04 211.673 186.161 211.988 186.403C212.302 186.636 212.548 186.983 212.725 187.442C212.902 187.894 212.991 188.442 212.991 189.086C212.991 189.884 212.826 190.569 212.495 191.141C212.173 191.714 211.693 192.165 211.057 192.495C210.428 192.826 209.655 193.035 208.736 193.124ZM213.925 190.404L214.034 189.207C214.469 189.207 214.776 189.167 214.953 189.086C215.13 188.998 215.235 188.845 215.267 188.627C215.299 188.401 215.308 188.083 215.291 187.672L215.062 181.652H216.258L216.5 187.636C216.516 188.071 216.5 188.462 216.452 188.808C216.404 189.155 216.291 189.449 216.113 189.691C215.944 189.924 215.682 190.102 215.328 190.223C214.981 190.344 214.514 190.404 213.925 190.404ZM218.271 190.344L218.029 181.652H219.226L219.468 190.344H218.271ZM223.769 189.812L224.289 188.772C224.49 188.885 224.732 188.986 225.014 189.074C225.296 189.163 225.615 189.207 225.969 189.207C226.34 189.207 226.634 189.171 226.852 189.098C227.077 189.026 227.242 188.921 227.347 188.784C227.46 188.639 227.516 188.47 227.516 188.276C227.516 188.123 227.476 187.93 227.396 187.696C227.323 187.454 227.174 187.132 226.948 186.729C226.731 186.326 226.396 185.806 225.945 185.17L226.948 184.505C227.367 185.077 227.706 185.609 227.964 186.1C228.23 186.592 228.423 187.031 228.544 187.418C228.673 187.797 228.737 188.127 228.737 188.409C228.737 188.764 228.645 189.094 228.459 189.401C228.282 189.699 227.996 189.945 227.601 190.138C227.206 190.323 226.682 190.416 226.03 190.416C225.756 190.416 225.478 190.392 225.195 190.344C224.921 190.303 224.66 190.239 224.41 190.15C224.168 190.053 223.954 189.941 223.769 189.812ZM231.871 189.207C232.258 189.207 232.564 189.171 232.79 189.098C233.016 189.018 233.177 188.909 233.274 188.772C233.378 188.627 233.431 188.462 233.431 188.276C233.431 188.107 233.382 187.906 233.286 187.672C233.197 187.438 233.076 187.18 232.923 186.898C232.778 186.616 232.613 186.33 232.427 186.04C232.242 185.742 232.053 185.452 231.859 185.17L232.863 184.505C233.193 184.98 233.475 185.436 233.709 185.871C233.951 186.298 234.152 186.697 234.313 187.068C234.474 187.438 234.595 187.781 234.676 188.095C234.781 188.417 234.902 188.659 235.039 188.82C235.176 188.982 235.325 189.086 235.486 189.135C235.647 189.183 235.8 189.207 235.945 189.207C236.155 189.207 236.304 189.264 236.393 189.376C236.489 189.489 236.538 189.622 236.538 189.775C236.538 189.945 236.473 190.094 236.344 190.223C236.223 190.344 236.05 190.404 235.824 190.404C235.534 190.404 235.26 190.356 235.002 190.259C234.744 190.154 234.523 189.993 234.337 189.775C234.152 189.55 234.015 189.252 233.926 188.881L234.483 188.651C234.466 188.949 234.374 189.235 234.205 189.509C234.043 189.775 233.781 189.993 233.419 190.162C233.056 190.331 232.564 190.416 231.944 190.416C231.67 190.416 231.392 190.392 231.11 190.344C230.836 190.303 230.574 190.239 230.324 190.15C230.082 190.053 229.869 189.941 229.683 189.812L230.203 188.772C230.405 188.885 230.646 188.986 230.929 189.074C231.219 189.163 231.533 189.207 231.871 189.207ZM235.836 190.404L235.945 189.207C236.372 189.207 236.791 189.179 237.202 189.123C237.613 189.058 238.012 188.969 238.399 188.857C238.793 188.744 239.168 188.603 239.523 188.434C239.885 188.264 240.228 188.071 240.55 187.853C240.333 187.676 240.087 187.523 239.813 187.394C239.539 187.265 239.237 187.168 238.906 187.104C238.584 187.031 238.245 186.995 237.891 186.995C237.762 186.995 237.633 186.999 237.504 187.007C237.383 187.015 237.262 187.031 237.141 187.055C237.02 187.072 236.887 187.096 236.742 187.128L236.537 185.992C236.763 185.927 236.988 185.879 237.214 185.847C237.448 185.814 237.665 185.798 237.867 185.798C238.286 185.798 238.669 185.851 239.015 185.955C239.362 186.052 239.68 186.173 239.97 186.318C240.26 186.463 240.53 186.608 240.78 186.753C241.038 186.898 241.284 187.019 241.517 187.116C241.751 187.213 241.993 187.261 242.243 187.261H242.557L242.666 188.349C242.319 188.357 241.997 188.413 241.699 188.518C241.409 188.615 241.122 188.744 240.84 188.905C240.558 189.058 240.26 189.223 239.946 189.401C239.632 189.57 239.281 189.731 238.894 189.884C238.515 190.029 238.076 190.154 237.577 190.259C237.077 190.356 236.497 190.404 235.836 190.404ZM65.2588 206.63C65.2588 206.316 65.3394 206.094 65.5006 205.965C65.6618 205.836 65.8552 205.772 66.0808 205.772C66.3145 205.772 66.512 205.836 66.6732 205.965C66.8344 206.094 66.9149 206.316 66.9149 206.63C66.9149 206.945 66.8344 207.17 66.6732 207.307C66.512 207.444 66.3145 207.513 66.0808 207.513C65.8552 207.513 65.6618 207.444 65.5006 207.307C65.3394 207.17 65.2588 206.945 65.2588 206.63ZM72.5776 207.597L72.8919 206.401C73.6737 206.401 74.3143 206.372 74.814 206.316C75.3217 206.26 75.7126 206.163 75.9866 206.026C76.2606 205.889 76.4459 205.704 76.5427 205.47C76.6474 205.236 76.6917 204.946 76.6756 204.599L76.4339 198.652H77.6306L77.8724 204.551C77.8885 204.986 77.9489 205.325 78.0537 205.567C78.1665 205.8 78.3197 205.965 78.5131 206.062C78.7146 206.159 78.9402 206.207 79.19 206.207C79.3996 206.207 79.5487 206.264 79.6373 206.376C79.734 206.489 79.7824 206.622 79.7824 206.775C79.7824 206.945 79.7179 207.094 79.589 207.223C79.46 207.344 79.2867 207.404 79.0691 207.404C78.6984 207.404 78.3882 207.352 78.1383 207.247C77.8966 207.134 77.7032 206.985 77.5581 206.8C77.413 206.606 77.3163 206.384 77.268 206.135L77.6064 206.147C77.4453 206.437 77.2196 206.679 76.9295 206.872C76.6394 207.057 76.2888 207.207 75.8778 207.319C75.4668 207.424 74.9873 207.497 74.4393 207.537C73.8913 207.577 73.2707 207.597 72.5776 207.597ZM72.1908 204.829L71.9249 203.947C72.2472 203.858 72.5091 203.785 72.7106 203.729C72.9121 203.665 73.0571 203.604 73.1458 203.548C73.2425 203.483 73.2909 203.423 73.2909 203.366C73.2909 203.278 73.2465 203.197 73.1579 203.125C73.0773 203.044 72.9806 202.959 72.8678 202.871C72.763 202.774 72.6663 202.669 72.5776 202.556C72.489 202.436 72.4447 202.295 72.4447 202.133C72.4447 201.972 72.489 201.811 72.5776 201.65C72.6743 201.481 72.8355 201.311 73.0612 201.142C73.2949 200.965 73.6132 200.783 74.0162 200.598L74.4272 201.396C74.0645 201.565 73.8066 201.71 73.6535 201.831C73.5004 201.944 73.4238 202.049 73.4238 202.145C73.4238 202.218 73.4641 202.299 73.5447 202.387C73.6334 202.468 73.7301 202.56 73.8348 202.665C73.9477 202.77 74.0484 202.887 74.1371 203.016C74.2257 203.145 74.27 203.29 74.27 203.451C74.27 203.572 74.2458 203.693 74.1975 203.814C74.1491 203.926 74.0484 204.043 73.8953 204.164C73.7502 204.277 73.5407 204.39 73.2667 204.503C73.0007 204.607 72.6421 204.716 72.1908 204.829ZM72.5776 207.597C71.812 207.597 71.1472 207.545 70.583 207.44C70.027 207.335 69.5636 207.178 69.1929 206.969C68.8302 206.759 68.5602 206.497 68.3829 206.183C68.2056 205.869 68.117 205.498 68.117 205.071C68.117 204.845 68.1331 204.62 68.1653 204.394C68.1976 204.168 68.2419 203.943 68.2983 203.717C68.3628 203.491 68.4232 203.278 68.4796 203.076L69.5555 203.33C69.5233 203.459 69.487 203.608 69.4467 203.777C69.4064 203.947 69.3742 204.116 69.35 204.285C69.3258 204.446 69.3138 204.591 69.3138 204.72C69.3138 205.107 69.4185 205.425 69.6281 205.675C69.8456 205.917 70.2123 206.098 70.7281 206.219C71.2519 206.34 71.9732 206.401 72.8919 206.401L73.1337 207.211L72.5776 207.597ZM79.0634 207.404L79.1843 206.207C79.5711 206.207 79.8733 206.183 80.0909 206.135C80.3166 206.086 80.4777 205.99 80.5744 205.845C80.6792 205.699 80.7316 205.486 80.7316 205.204C80.7316 204.994 80.6994 204.744 80.6349 204.454C80.5785 204.164 80.4979 203.862 80.3931 203.548C80.2884 203.225 80.1796 202.911 80.0667 202.605L81.2514 202.218C81.3562 202.484 81.4529 202.786 81.5415 203.125C81.6382 203.463 81.7188 203.802 81.7833 204.14C81.8478 204.479 81.88 204.789 81.88 205.071C81.88 205.425 81.8397 205.736 81.7591 206.002C81.6785 206.26 81.5576 206.481 81.3965 206.667C81.2433 206.844 81.0499 206.989 80.8162 207.102C80.5906 207.207 80.3286 207.283 80.0305 207.331C79.7403 207.38 79.418 207.404 79.0634 207.404ZM80.4173 209.81C80.2239 209.81 80.0627 209.745 79.9338 209.616C79.8048 209.487 79.7403 209.33 79.7403 209.145C79.7403 208.967 79.8048 208.81 79.9338 208.673C80.0627 208.536 80.2239 208.468 80.4173 208.468C80.5946 208.468 80.7477 208.536 80.8767 208.673C81.0137 208.81 81.0822 208.967 81.0822 209.145C81.0822 209.33 81.0137 209.487 80.8767 209.616C80.7477 209.745 80.5946 209.81 80.4173 209.81ZM86.1013 207.404C85.4244 207.404 84.9046 207.331 84.5419 207.186C84.1793 207.033 83.9294 206.804 83.7924 206.497C83.6554 206.183 83.5748 205.78 83.5507 205.288L83.3089 198.652H84.5057L84.7595 204.781C84.7756 205.168 84.8119 205.466 84.8683 205.675C84.9328 205.877 85.0658 206.018 85.2672 206.098C85.4768 206.171 85.7951 206.207 86.2222 206.207C86.4317 206.207 86.5808 206.264 86.6695 206.376C86.7662 206.489 86.8146 206.622 86.8146 206.775C86.8146 206.945 86.7501 207.094 86.6211 207.223C86.4922 207.344 86.3189 207.404 86.1013 207.404ZM93.8601 207.404C93.5135 207.404 93.1912 207.38 92.893 207.331C92.6029 207.283 92.3369 207.198 92.0951 207.078C91.8614 206.949 91.66 206.767 91.4907 206.534C91.3215 206.292 91.1885 205.982 91.0918 205.603L91.8775 205.083C91.9984 205.389 92.1435 205.623 92.3127 205.784C92.482 205.937 92.6996 206.046 92.9655 206.11C93.2395 206.175 93.578 206.207 93.9809 206.207C94.1905 206.207 94.3396 206.264 94.4282 206.376C94.5249 206.489 94.5733 206.622 94.5733 206.775C94.5733 206.945 94.5088 207.094 94.3799 207.223C94.2509 207.344 94.0776 207.404 93.8601 207.404ZM86.0993 207.404L86.2081 206.207C86.6352 206.207 87.0542 206.179 87.4653 206.123C87.8763 206.058 88.2752 205.969 88.662 205.857C89.0569 205.744 89.4316 205.603 89.7862 205.434C90.1489 205.264 90.4914 205.071 90.8138 204.853C90.5962 204.676 90.3504 204.523 90.0764 204.394C89.8024 204.265 89.5001 204.168 89.1697 204.104C88.8474 204.031 88.5089 203.995 88.1543 203.995C88.0254 203.995 87.8964 203.999 87.7675 204.007C87.6466 204.015 87.5257 204.031 87.4048 204.055C87.2839 204.072 87.151 204.096 87.0059 204.128L86.8004 202.992C87.026 202.927 87.2517 202.879 87.4773 202.847C87.7111 202.814 87.9286 202.798 88.1301 202.798C88.5492 202.798 88.932 202.851 89.2785 202.955C89.6251 203.052 89.9434 203.173 90.2335 203.318C90.5236 203.463 90.7936 203.608 91.0434 203.753C91.3013 203.898 91.5471 204.019 91.7808 204.116C92.0145 204.213 92.2563 204.261 92.5061 204.261H92.8204L92.9292 205.349C92.5827 205.357 92.2603 205.413 91.9622 205.518C91.672 205.615 91.3859 205.744 91.1039 205.905C90.8218 206.058 90.5236 206.223 90.2093 206.401C89.895 206.57 89.5445 206.731 89.1576 206.884C88.7789 207.029 88.3397 207.154 87.84 207.259C87.3403 207.356 86.7601 207.404 86.0993 207.404ZM99.8269 207.561C99.1097 207.561 98.5053 207.533 98.0137 207.476C97.5301 207.42 97.1393 207.339 96.8411 207.235C96.5429 207.122 96.3132 206.985 96.152 206.824C95.9909 206.654 95.874 206.461 95.8015 206.243L96.0916 206.147C95.8901 206.534 95.6685 206.816 95.4267 206.993C95.193 207.17 94.9432 207.283 94.6773 207.331C94.4194 207.38 94.1454 207.404 93.8552 207.404L93.9761 206.207C94.2501 206.207 94.4718 206.167 94.641 206.086C94.8102 206.006 94.9472 205.873 95.052 205.687C95.1648 205.502 95.2656 205.256 95.3542 204.95C95.4429 204.644 95.5396 204.265 95.6443 203.814L96.7202 204.092C96.6719 204.285 96.6275 204.466 96.5872 204.636C96.5469 204.797 96.5147 204.942 96.4905 205.071C96.4744 205.192 96.4664 205.288 96.4664 205.361C96.4664 205.538 96.5066 205.691 96.5872 205.82C96.6759 205.949 96.8371 206.054 97.0708 206.135C97.3125 206.215 97.6591 206.276 98.1104 206.316C98.5617 206.348 99.154 206.364 99.8874 206.364C100.476 206.364 100.983 206.336 101.411 206.28C101.846 206.215 102.204 206.123 102.486 206.002C102.768 205.873 102.982 205.72 103.127 205.542C103.272 205.357 103.345 205.147 103.345 204.914C103.345 204.744 103.304 204.579 103.224 204.418C103.143 204.257 103.014 204.124 102.837 204.019C102.66 203.906 102.426 203.85 102.136 203.85C101.781 203.85 101.423 203.943 101.06 204.128C100.705 204.305 100.367 204.535 100.045 204.817C99.7222 205.099 99.428 205.393 99.1621 205.699C98.9042 206.006 98.6866 206.28 98.5093 206.521L97.24 206.437C97.514 205.994 97.8323 205.55 98.195 205.107C98.5657 204.656 98.9687 204.245 99.4038 203.874C99.8471 203.503 100.306 203.209 100.782 202.992C101.257 202.766 101.745 202.653 102.245 202.653C102.712 202.653 103.115 202.75 103.453 202.943C103.792 203.129 104.05 203.383 104.227 203.705C104.413 204.027 104.505 204.398 104.505 204.817C104.505 205.325 104.356 205.788 104.058 206.207C103.768 206.618 103.28 206.949 102.595 207.198C101.91 207.44 100.987 207.561 99.8269 207.561ZM106.063 207.344L105.845 199.498H107.042L107.247 207.344H106.063ZM105.301 198.761L105.144 198.047C105.369 197.999 105.547 197.959 105.676 197.927C105.813 197.894 105.962 197.858 106.123 197.818L106.05 198.084C105.841 198.019 105.639 197.882 105.446 197.673C105.261 197.455 105.168 197.213 105.168 196.947C105.168 196.69 105.224 196.476 105.337 196.307C105.458 196.137 105.615 196.013 105.809 195.932C106.002 195.851 106.208 195.811 106.425 195.811C106.53 195.811 106.631 195.819 106.727 195.835C106.832 195.851 106.929 195.876 107.018 195.908L106.921 196.597C106.84 196.581 106.764 196.565 106.691 196.548C106.619 196.532 106.534 196.524 106.437 196.524C106.276 196.524 106.147 196.561 106.05 196.633C105.954 196.706 105.905 196.806 105.905 196.935C105.905 197.097 105.958 197.234 106.063 197.346C106.167 197.459 106.288 197.552 106.425 197.624C106.562 197.689 106.675 197.721 106.764 197.721L106.22 197.782C106.437 197.725 106.639 197.669 106.824 197.612C107.018 197.548 107.195 197.483 107.356 197.419L107.561 198.096C107.368 198.168 107.138 198.249 106.872 198.338C106.607 198.418 106.337 198.495 106.063 198.567C105.797 198.64 105.543 198.704 105.301 198.761ZM115.973 207.597L116.288 206.401C116.812 206.401 117.343 206.372 117.883 206.316C118.431 206.252 118.967 206.139 119.491 205.978C120.023 205.816 120.523 205.591 120.99 205.301C121.466 205.01 121.885 204.636 122.247 204.176L123.178 204.672C123.114 204.849 123.069 204.998 123.045 205.119C123.021 205.232 123.009 205.333 123.009 205.421C123.009 205.567 123.053 205.699 123.142 205.82C123.23 205.933 123.396 206.026 123.637 206.098C123.879 206.171 124.214 206.207 124.641 206.207C124.85 206.207 124.999 206.264 125.088 206.376C125.185 206.489 125.233 206.622 125.233 206.775C125.233 206.945 125.169 207.094 125.04 207.223C124.911 207.344 124.738 207.404 124.52 207.404C123.996 207.404 123.537 207.344 123.142 207.223C122.747 207.102 122.449 206.916 122.247 206.667C122.046 206.417 121.961 206.102 121.993 205.724L122.296 205.796C121.981 206.102 121.603 206.368 121.159 206.594C120.716 206.82 120.22 207.009 119.672 207.162C119.132 207.307 118.548 207.416 117.92 207.489C117.299 207.561 116.65 207.597 115.973 207.597ZM115.973 207.597C115.208 207.597 114.543 207.545 113.979 207.44C113.423 207.335 112.959 207.178 112.589 206.969C112.226 206.759 111.956 206.497 111.779 206.183C111.601 205.869 111.513 205.498 111.513 205.071C111.513 204.845 111.529 204.62 111.561 204.394C111.593 204.168 111.638 203.943 111.694 203.717C111.759 203.491 111.819 203.278 111.875 203.076L112.951 203.33C112.919 203.459 112.883 203.608 112.842 203.777C112.802 203.947 112.77 204.116 112.746 204.285C112.722 204.446 112.709 204.591 112.709 204.72C112.709 205.107 112.814 205.425 113.024 205.675C113.241 205.917 113.608 206.098 114.124 206.219C114.648 206.34 115.369 206.401 116.288 206.401L116.529 207.211L115.973 207.597ZM116.856 210.051C116.662 210.051 116.501 209.987 116.372 209.858C116.243 209.729 116.179 209.572 116.179 209.386C116.179 209.209 116.243 209.052 116.372 208.915C116.501 208.778 116.662 208.71 116.856 208.71C117.033 208.71 117.186 208.778 117.315 208.915C117.452 209.052 117.521 209.209 117.521 209.386C117.521 209.572 117.452 209.729 117.315 209.858C117.186 209.987 117.033 210.051 116.856 210.051ZM124.525 207.404L124.646 206.207C124.904 206.207 125.113 206.187 125.275 206.147C125.444 206.106 125.581 206.014 125.686 205.869C125.798 205.716 125.899 205.478 125.988 205.155C126.084 204.833 126.193 204.386 126.314 203.814L127.414 204.08C127.39 204.209 127.358 204.362 127.317 204.539C127.277 204.708 127.241 204.881 127.209 205.059C127.184 205.228 127.172 205.389 127.172 205.542C127.172 205.744 127.245 205.905 127.39 206.026C127.543 206.147 127.821 206.207 128.224 206.207C128.458 206.207 128.647 206.187 128.792 206.147C128.945 206.106 129.074 206.01 129.179 205.857C129.284 205.695 129.377 205.45 129.457 205.119C129.538 204.781 129.622 204.317 129.711 203.729L130.835 203.922C130.803 204.084 130.771 204.269 130.738 204.479C130.706 204.688 130.678 204.894 130.654 205.095C130.63 205.288 130.618 205.45 130.618 205.579C130.618 205.683 130.642 205.788 130.69 205.893C130.747 205.99 130.855 206.066 131.017 206.123C131.178 206.179 131.411 206.207 131.718 206.207C131.951 206.207 132.153 206.179 132.322 206.123C132.491 206.066 132.62 205.965 132.709 205.82C132.798 205.675 132.842 205.474 132.842 205.216C132.842 204.91 132.769 204.523 132.624 204.055C132.487 203.588 132.33 203.113 132.153 202.629L133.35 202.23C133.462 202.512 133.563 202.826 133.652 203.173C133.749 203.52 133.829 203.862 133.894 204.201C133.958 204.539 133.99 204.833 133.99 205.083C133.99 205.462 133.938 205.8 133.833 206.098C133.728 206.389 133.575 206.63 133.374 206.824C133.18 207.017 132.947 207.162 132.673 207.259C132.399 207.356 132.088 207.404 131.742 207.404C131.339 207.404 131.008 207.36 130.751 207.271C130.493 207.182 130.295 207.041 130.158 206.848C130.021 206.654 129.933 206.401 129.892 206.086H130.303C130.142 206.473 129.969 206.759 129.784 206.945C129.606 207.13 129.385 207.255 129.119 207.319C128.861 207.376 128.526 207.404 128.115 207.404C127.898 207.404 127.664 207.372 127.414 207.307C127.172 207.243 126.959 207.114 126.773 206.92C126.588 206.719 126.471 206.413 126.423 206.002L126.87 205.941C126.725 206.376 126.54 206.699 126.314 206.908C126.097 207.11 125.839 207.243 125.54 207.307C125.25 207.372 124.912 207.404 124.525 207.404ZM138.209 207.404C137.532 207.404 137.013 207.331 136.65 207.186C136.287 207.033 136.037 206.804 135.9 206.497C135.763 206.183 135.683 205.78 135.659 205.288L135.417 198.652H136.614L136.867 204.781C136.884 205.168 136.92 205.466 136.976 205.675C137.041 205.877 137.174 206.018 137.375 206.098C137.585 206.171 137.903 206.207 138.33 206.207C138.54 206.207 138.689 206.264 138.777 206.376C138.874 206.489 138.922 206.622 138.922 206.775C138.922 206.945 138.858 207.094 138.729 207.223C138.6 207.344 138.427 207.404 138.209 207.404ZM138.207 207.404L138.328 206.207C138.658 206.207 138.916 206.179 139.102 206.123C139.295 206.058 139.444 205.941 139.549 205.772C139.654 205.595 139.742 205.341 139.815 205.01C139.887 204.68 139.972 204.241 140.069 203.693L141.205 203.898C141.173 204.043 141.137 204.201 141.096 204.37C141.064 204.539 141.036 204.712 141.012 204.89C140.988 205.059 140.975 205.208 140.975 205.337C140.975 205.514 141.012 205.667 141.084 205.796C141.165 205.925 141.322 206.026 141.556 206.098C141.789 206.171 142.144 206.207 142.619 206.207C142.829 206.207 142.978 206.264 143.067 206.376C143.163 206.489 143.212 206.622 143.212 206.775C143.212 206.945 143.147 207.094 143.018 207.223C142.889 207.344 142.716 207.404 142.499 207.404C141.967 207.404 141.544 207.356 141.229 207.259C140.915 207.162 140.685 207.013 140.54 206.812C140.395 206.602 140.298 206.336 140.25 206.014L140.673 206.026C140.544 206.324 140.395 206.566 140.226 206.751C140.065 206.928 139.887 207.065 139.694 207.162C139.501 207.259 139.279 207.323 139.029 207.356C138.787 207.388 138.513 207.404 138.207 207.404ZM140.262 202.448C140.069 202.448 139.904 202.383 139.767 202.254C139.638 202.125 139.573 201.964 139.573 201.771C139.573 201.585 139.638 201.424 139.767 201.287C139.904 201.15 140.069 201.082 140.262 201.082C140.448 201.082 140.605 201.15 140.734 201.287C140.871 201.424 140.939 201.585 140.939 201.771C140.939 201.964 140.871 202.125 140.734 202.254C140.605 202.383 140.448 202.448 140.262 202.448ZM142.504 207.404L142.625 206.207C143.101 206.207 143.471 206.187 143.737 206.147C144.003 206.106 144.189 206.014 144.293 205.869C144.406 205.724 144.463 205.502 144.463 205.204C144.463 204.994 144.43 204.744 144.366 204.454C144.301 204.164 144.217 203.862 144.112 203.548C144.015 203.225 143.911 202.911 143.798 202.605L144.97 202.218C145.075 202.484 145.176 202.786 145.273 203.125C145.369 203.463 145.45 203.802 145.514 204.14C145.579 204.479 145.611 204.789 145.611 205.071C145.611 205.514 145.547 205.885 145.418 206.183C145.289 206.481 145.091 206.723 144.825 206.908C144.567 207.086 144.245 207.215 143.858 207.295C143.471 207.368 143.02 207.404 142.504 207.404ZM145.333 201.045C145.14 201.045 144.978 200.981 144.849 200.852C144.72 200.715 144.656 200.558 144.656 200.381C144.656 200.195 144.72 200.038 144.849 199.909C144.978 199.772 145.14 199.704 145.333 199.704C145.51 199.704 145.663 199.772 145.792 199.909C145.921 200.038 145.986 200.195 145.986 200.381C145.986 200.558 145.921 200.715 145.792 200.852C145.663 200.981 145.51 201.045 145.333 201.045ZM143.544 201.045C143.359 201.045 143.197 200.981 143.06 200.852C142.931 200.715 142.867 200.558 142.867 200.381C142.867 200.195 142.931 200.034 143.06 199.897C143.197 199.76 143.359 199.692 143.544 199.692C143.721 199.692 143.874 199.76 144.003 199.897C144.14 200.034 144.209 200.195 144.209 200.381C144.209 200.558 144.14 200.715 144.003 200.852C143.874 200.981 143.721 201.045 143.544 201.045ZM147.042 210.124L146.776 208.927C147.292 208.863 147.755 208.774 148.166 208.661C148.577 208.548 148.928 208.387 149.218 208.178C149.516 207.976 149.742 207.702 149.895 207.356C150.056 207.017 150.137 206.586 150.137 206.062C150.137 205.836 150.113 205.619 150.064 205.409C150.024 205.192 149.959 204.998 149.871 204.829C149.782 204.652 149.677 204.515 149.556 204.418C149.436 204.313 149.295 204.261 149.133 204.261C148.956 204.261 148.799 204.325 148.662 204.454C148.525 204.583 148.416 204.749 148.336 204.95C148.255 205.143 148.215 205.341 148.215 205.542C148.215 205.695 148.247 205.828 148.311 205.941C148.384 206.046 148.493 206.127 148.638 206.183C148.783 206.239 148.972 206.268 149.206 206.268C149.423 206.268 149.645 206.243 149.871 206.195C150.104 206.147 150.306 206.082 150.475 206.002L150.524 206.993C150.33 207.13 150.104 207.239 149.847 207.319C149.589 207.392 149.315 207.428 149.025 207.428C148.718 207.428 148.444 207.396 148.203 207.331C147.961 207.267 147.751 207.17 147.574 207.041C147.405 206.904 147.276 206.735 147.187 206.534C147.098 206.324 147.054 206.082 147.054 205.808C147.054 205.478 147.107 205.147 147.211 204.817C147.316 204.487 147.465 204.188 147.659 203.922C147.852 203.657 148.082 203.443 148.348 203.282C148.614 203.121 148.904 203.04 149.218 203.04C149.565 203.04 149.867 203.129 150.125 203.306C150.391 203.475 150.608 203.709 150.777 204.007C150.955 204.297 151.084 204.624 151.164 204.986C151.253 205.349 151.297 205.716 151.297 206.086C151.297 206.884 151.132 207.569 150.802 208.141C150.479 208.714 150 209.165 149.363 209.495C148.734 209.826 147.961 210.035 147.042 210.124ZM159.9 207.597L160.215 206.401C160.996 206.401 161.637 206.372 162.137 206.316C162.644 206.26 163.035 206.163 163.309 206.026C163.583 205.889 163.769 205.704 163.865 205.47C163.97 205.236 164.014 204.946 163.998 204.599L163.757 198.652H164.953L165.195 204.551C165.211 204.986 165.272 205.325 165.376 205.567C165.489 205.8 165.642 205.965 165.836 206.062C166.037 206.159 166.263 206.207 166.513 206.207C166.722 206.207 166.871 206.264 166.96 206.376C167.057 206.489 167.105 206.622 167.105 206.775C167.105 206.945 167.041 207.094 166.912 207.223C166.783 207.344 166.609 207.404 166.392 207.404C166.021 207.404 165.711 207.352 165.461 207.247C165.219 207.134 165.026 206.985 164.881 206.8C164.736 206.606 164.639 206.384 164.591 206.135L164.929 206.147C164.768 206.437 164.542 206.679 164.252 206.872C163.962 207.057 163.611 207.207 163.2 207.319C162.789 207.424 162.31 207.497 161.762 207.537C161.214 207.577 160.593 207.597 159.9 207.597ZM159.513 204.829L159.248 203.947C159.57 203.858 159.832 203.785 160.033 203.729C160.235 203.665 160.38 203.604 160.468 203.548C160.565 203.483 160.614 203.423 160.614 203.366C160.614 203.278 160.569 203.197 160.481 203.125C160.4 203.044 160.303 202.959 160.19 202.871C160.086 202.774 159.989 202.669 159.9 202.556C159.812 202.436 159.767 202.295 159.767 202.133C159.767 201.972 159.812 201.811 159.9 201.65C159.997 201.481 160.158 201.311 160.384 201.142C160.618 200.965 160.936 200.783 161.339 200.598L161.75 201.396C161.387 201.565 161.129 201.71 160.976 201.831C160.823 201.944 160.747 202.049 160.747 202.145C160.747 202.218 160.787 202.299 160.867 202.387C160.956 202.468 161.053 202.56 161.158 202.665C161.27 202.77 161.371 202.887 161.46 203.016C161.548 203.145 161.593 203.29 161.593 203.451C161.593 203.572 161.569 203.693 161.52 203.814C161.472 203.926 161.371 204.043 161.218 204.164C161.073 204.277 160.863 204.39 160.589 204.503C160.323 204.607 159.965 204.716 159.513 204.829ZM159.9 207.597C159.135 207.597 158.47 207.545 157.906 207.44C157.35 207.335 156.886 207.178 156.516 206.969C156.153 206.759 155.883 206.497 155.706 206.183C155.528 205.869 155.44 205.498 155.44 205.071C155.44 204.845 155.456 204.62 155.488 204.394C155.52 204.168 155.565 203.943 155.621 203.717C155.685 203.491 155.746 203.278 155.802 203.076L156.878 203.33C156.846 203.459 156.81 203.608 156.769 203.777C156.729 203.947 156.697 204.116 156.673 204.285C156.649 204.446 156.636 204.591 156.636 204.72C156.636 205.107 156.741 205.425 156.951 205.675C157.168 205.917 157.535 206.098 158.051 206.219C158.575 206.34 159.296 206.401 160.215 206.401L160.456 207.211L159.9 207.597ZM166.386 207.404L166.507 206.207C166.837 206.207 167.095 206.179 167.281 206.123C167.474 206.058 167.623 205.941 167.728 205.772C167.833 205.595 167.921 205.341 167.994 205.01C168.066 204.68 168.151 204.241 168.248 203.693L169.384 203.898C169.352 204.043 169.316 204.201 169.275 204.37C169.243 204.539 169.215 204.712 169.191 204.89C169.166 205.059 169.154 205.208 169.154 205.337C169.154 205.514 169.191 205.667 169.263 205.796C169.344 205.925 169.501 206.026 169.735 206.098C169.968 206.171 170.323 206.207 170.798 206.207C171.008 206.207 171.157 206.264 171.246 206.376C171.342 206.489 171.391 206.622 171.391 206.775C171.391 206.945 171.326 207.094 171.197 207.223C171.068 207.344 170.895 207.404 170.677 207.404C170.146 207.404 169.722 207.356 169.408 207.259C169.094 207.162 168.864 207.013 168.719 206.812C168.574 206.602 168.477 206.336 168.429 206.014L168.852 206.026C168.723 206.324 168.574 206.566 168.405 206.751C168.244 206.928 168.066 207.065 167.873 207.162C167.68 207.259 167.458 207.323 167.208 207.356C166.966 207.388 166.692 207.404 166.386 207.404ZM168.465 209.81C168.272 209.81 168.111 209.745 167.982 209.616C167.853 209.487 167.788 209.33 167.788 209.145C167.788 208.967 167.853 208.81 167.982 208.673C168.111 208.536 168.272 208.468 168.465 208.468C168.643 208.468 168.796 208.536 168.925 208.673C169.062 208.81 169.13 208.967 169.13 209.145C169.13 209.33 169.062 209.487 168.925 209.616C168.796 209.745 168.643 209.81 168.465 209.81ZM170.683 207.404L170.804 206.207C171.062 206.207 171.271 206.187 171.433 206.147C171.602 206.106 171.739 206.014 171.844 205.869C171.956 205.716 172.057 205.478 172.146 205.155C172.243 204.833 172.351 204.386 172.472 203.814L173.572 204.08C173.548 204.209 173.516 204.362 173.476 204.539C173.435 204.708 173.399 204.881 173.367 205.059C173.343 205.228 173.331 205.389 173.331 205.542C173.331 205.744 173.403 205.905 173.548 206.026C173.701 206.147 173.979 206.207 174.382 206.207C174.616 206.207 174.805 206.187 174.95 206.147C175.104 206.106 175.232 206.01 175.337 205.857C175.442 205.695 175.535 205.45 175.615 205.119C175.696 204.781 175.78 204.317 175.869 203.729L176.993 203.922C176.961 204.084 176.929 204.269 176.897 204.479C176.864 204.688 176.836 204.894 176.812 205.095C176.788 205.288 176.776 205.45 176.776 205.579C176.776 205.683 176.8 205.788 176.848 205.893C176.905 205.99 177.013 206.066 177.175 206.123C177.336 206.179 177.57 206.207 177.876 206.207C178.11 206.207 178.311 206.179 178.48 206.123C178.649 206.066 178.778 205.965 178.867 205.82C178.956 205.675 179 205.474 179 205.216C179 204.91 178.927 204.523 178.782 204.055C178.645 203.588 178.488 203.113 178.311 202.629L179.508 202.23C179.621 202.512 179.721 202.826 179.81 203.173C179.907 203.52 179.987 203.862 180.052 204.201C180.116 204.539 180.148 204.833 180.148 205.083C180.148 205.462 180.096 205.8 179.991 206.098C179.887 206.389 179.733 206.63 179.532 206.824C179.338 207.017 179.105 207.162 178.831 207.259C178.557 207.356 178.247 207.404 177.9 207.404C177.497 207.404 177.167 207.36 176.909 207.271C176.651 207.182 176.453 207.041 176.316 206.848C176.179 206.654 176.091 206.401 176.05 206.086H176.461C176.3 206.473 176.127 206.759 175.942 206.945C175.764 207.13 175.543 207.255 175.277 207.319C175.019 207.376 174.684 207.404 174.273 207.404C174.056 207.404 173.822 207.372 173.572 207.307C173.331 207.243 173.117 207.114 172.932 206.92C172.746 206.719 172.629 206.413 172.581 206.002L173.028 205.941C172.883 206.376 172.698 206.699 172.472 206.908C172.255 207.11 171.997 207.243 171.699 207.307C171.408 207.372 171.07 207.404 170.683 207.404ZM184.367 207.404C183.69 207.404 183.171 207.331 182.808 207.186C182.445 207.033 182.196 206.804 182.059 206.497C181.921 206.183 181.841 205.78 181.817 205.288L181.575 198.652H182.772L183.026 204.781C183.042 205.168 183.078 205.466 183.134 205.675C183.199 205.877 183.332 206.018 183.533 206.098C183.743 206.171 184.061 206.207 184.488 206.207C184.698 206.207 184.847 206.264 184.936 206.376C185.032 206.489 185.081 206.622 185.081 206.775C185.081 206.945 185.016 207.094 184.887 207.223C184.758 207.344 184.585 207.404 184.367 207.404ZM184.365 207.404L184.486 206.207C184.817 206.207 185.075 206.179 185.26 206.123C185.453 206.058 185.602 205.941 185.707 205.772C185.812 205.595 185.901 205.341 185.973 205.01C186.046 204.68 186.13 204.241 186.227 203.693L187.363 203.898C187.331 204.043 187.295 204.201 187.254 204.37C187.222 204.539 187.194 204.712 187.17 204.89C187.146 205.059 187.134 205.208 187.134 205.337C187.134 205.514 187.17 205.667 187.242 205.796C187.323 205.925 187.48 206.026 187.714 206.098C187.948 206.171 188.302 206.207 188.778 206.207C188.987 206.207 189.136 206.264 189.225 206.376C189.322 206.489 189.37 206.622 189.37 206.775C189.37 206.945 189.305 207.094 189.177 207.223C189.048 207.344 188.874 207.404 188.657 207.404C188.125 207.404 187.702 207.356 187.387 207.259C187.073 207.162 186.843 207.013 186.698 206.812C186.553 206.602 186.457 206.336 186.408 206.014L186.831 206.026C186.702 206.324 186.553 206.566 186.384 206.751C186.223 206.928 186.046 207.065 185.852 207.162C185.659 207.259 185.437 207.323 185.187 207.356C184.946 207.388 184.672 207.404 184.365 207.404ZM186.42 202.448C186.227 202.448 186.062 202.383 185.925 202.254C185.796 202.125 185.731 201.964 185.731 201.771C185.731 201.585 185.796 201.424 185.925 201.287C186.062 201.15 186.227 201.082 186.42 201.082C186.606 201.082 186.763 201.15 186.892 201.287C187.029 201.424 187.097 201.585 187.097 201.771C187.097 201.964 187.029 202.125 186.892 202.254C186.763 202.383 186.606 202.448 186.42 202.448ZM188.662 207.404L188.783 206.207C189.259 206.207 189.629 206.187 189.895 206.147C190.161 206.106 190.347 206.014 190.451 205.869C190.564 205.724 190.621 205.502 190.621 205.204C190.621 204.994 190.588 204.744 190.524 204.454C190.46 204.164 190.375 203.862 190.27 203.548C190.173 203.225 190.069 202.911 189.956 202.605L191.128 202.218C191.233 202.484 191.334 202.786 191.431 203.125C191.527 203.463 191.608 203.802 191.672 204.14C191.737 204.479 191.769 204.789 191.769 205.071C191.769 205.514 191.705 205.885 191.576 206.183C191.447 206.481 191.249 206.723 190.983 206.908C190.725 207.086 190.403 207.215 190.016 207.295C189.629 207.368 189.178 207.404 188.662 207.404ZM191.491 201.045C191.298 201.045 191.136 200.981 191.008 200.852C190.879 200.715 190.814 200.558 190.814 200.381C190.814 200.195 190.879 200.038 191.008 199.909C191.136 199.772 191.298 199.704 191.491 199.704C191.668 199.704 191.822 199.772 191.95 199.909C192.079 200.038 192.144 200.195 192.144 200.381C192.144 200.558 192.079 200.715 191.95 200.852C191.822 200.981 191.668 201.045 191.491 201.045ZM189.702 201.045C189.517 201.045 189.355 200.981 189.218 200.852C189.09 200.715 189.025 200.558 189.025 200.381C189.025 200.195 189.09 200.034 189.218 199.897C189.355 199.76 189.517 199.692 189.702 199.692C189.879 199.692 190.032 199.76 190.161 199.897C190.298 200.034 190.367 200.195 190.367 200.381C190.367 200.558 190.298 200.715 190.161 200.852C190.032 200.981 189.879 201.045 189.702 201.045ZM195.99 207.247C195.99 207.061 196.006 206.856 196.038 206.63C196.078 206.397 196.135 206.143 196.207 205.869C196.288 205.595 196.397 205.301 196.534 204.986L197.585 205.373C197.505 205.607 197.432 205.824 197.368 206.026C197.303 206.227 197.255 206.417 197.223 206.594C197.199 206.771 197.187 206.941 197.187 207.102C197.187 207.424 197.255 207.698 197.392 207.924C197.537 208.157 197.735 208.351 197.984 208.504C198.242 208.657 198.536 208.77 198.867 208.842C199.205 208.915 199.576 208.951 199.979 208.951C200.438 208.951 200.861 208.915 201.248 208.842C201.643 208.778 201.986 208.681 202.276 208.552C202.566 208.423 202.792 208.274 202.953 208.105C203.122 207.936 203.207 207.75 203.207 207.549C203.207 207.452 203.17 207.364 203.098 207.283C203.025 207.202 202.912 207.126 202.759 207.053C202.614 206.973 202.433 206.892 202.215 206.812C202.006 206.731 201.756 206.65 201.466 206.57L201.756 205.361C202.151 205.514 202.506 205.647 202.82 205.76C203.142 205.865 203.428 205.949 203.678 206.014C203.936 206.078 204.162 206.127 204.355 206.159C204.557 206.191 204.734 206.207 204.887 206.207C205.096 206.207 205.246 206.264 205.334 206.376C205.431 206.489 205.479 206.622 205.479 206.775C205.479 206.945 205.415 207.094 205.286 207.223C205.157 207.344 204.984 207.404 204.766 207.404C204.71 207.404 204.653 207.404 204.597 207.404C204.548 207.404 204.496 207.404 204.44 207.404C204.391 207.404 204.339 207.404 204.283 207.404C204.299 207.476 204.311 207.537 204.319 207.585C204.327 207.634 204.331 207.694 204.331 207.767C204.331 208.057 204.23 208.339 204.029 208.613C203.827 208.895 203.533 209.149 203.146 209.374C202.759 209.608 202.28 209.793 201.708 209.93C201.144 210.076 200.491 210.148 199.749 210.148C199.04 210.148 198.399 210.043 197.827 209.834C197.263 209.624 196.816 209.306 196.485 208.879C196.155 208.452 195.99 207.908 195.99 207.247ZM200.704 212.59C200.519 212.59 200.358 212.521 200.221 212.384C200.092 212.255 200.027 212.102 200.027 211.925C200.027 211.74 200.092 211.579 200.221 211.441C200.358 211.313 200.519 211.248 200.704 211.248C200.89 211.248 201.047 211.313 201.176 211.441C201.305 211.579 201.369 211.74 201.369 211.925C201.369 212.102 201.305 212.255 201.176 212.384C201.047 212.521 200.89 212.59 200.704 212.59ZM198.927 212.59C198.734 212.59 198.573 212.521 198.444 212.384C198.315 212.255 198.25 212.102 198.25 211.925C198.25 211.74 198.315 211.579 198.444 211.441C198.573 211.313 198.734 211.248 198.927 211.248C199.105 211.248 199.258 211.313 199.387 211.441C199.516 211.579 199.58 211.74 199.58 211.925C199.58 212.102 199.516 212.255 199.387 212.384C199.258 212.521 199.105 212.59 198.927 212.59ZM204.765 207.404L204.873 206.207C205.309 206.207 205.615 206.167 205.792 206.086C205.969 205.998 206.074 205.845 206.106 205.627C206.139 205.401 206.147 205.083 206.131 204.672L205.925 198.652H207.134L207.339 204.66C207.356 205.063 207.416 205.377 207.521 205.603C207.626 205.828 207.775 205.986 207.968 206.074C208.17 206.163 208.403 206.207 208.669 206.207C208.879 206.207 209.028 206.264 209.116 206.376C209.213 206.489 209.262 206.622 209.262 206.775C209.262 206.945 209.197 207.094 209.068 207.223C208.939 207.344 208.766 207.404 208.548 207.404C208.202 207.404 207.904 207.356 207.654 207.259C207.412 207.154 207.219 207.009 207.074 206.824C206.928 206.63 206.832 206.405 206.783 206.147L207.11 206.159C207.013 206.457 206.868 206.699 206.675 206.884C206.489 207.061 206.239 207.194 205.925 207.283C205.611 207.364 205.224 207.404 204.765 207.404ZM208.554 207.404L208.663 206.207C209.098 206.207 209.404 206.167 209.582 206.086C209.759 205.998 209.864 205.845 209.896 205.627C209.928 205.401 209.936 205.083 209.92 204.672L209.69 198.652H210.887L211.129 204.636C211.145 205.071 211.129 205.462 211.081 205.808C211.032 206.155 210.919 206.449 210.742 206.691C210.573 206.924 210.311 207.102 209.956 207.223C209.61 207.344 209.142 207.404 208.554 207.404ZM212.9 207.344L212.658 198.652H213.855L214.096 207.344H212.9Z" fill="#6B7280"/>
</g>
<defs>
<filter id="filter0_b_5096_10639" x="-7.08316" y="19.403" width="293.437" height="236.093" filterUnits="userSpaceOnUse" color-interpolation-filters="sRGB">
<feFlood flood-opacity="0" result="BackgroundImageFix"/>
<feGaussianBlur in="BackgroundImageFix" stdDeviation="4.31526"/>
<feComposite in2="SourceAlpha" operator="in" result="effect1_backgroundBlur_5096_10639"/>
<feBlend mode="normal" in="SourceGraphic" in2="effect1_backgroundBlur_5096_10639" result="shape"/>
</filter>
<radialGradient id="paint0_radial_5096_10639" cx="0" cy="0" r="1" gradientUnits="userSpaceOnUse" gradientTransform="translate(170.777 41.7322) rotate(-124.455) scale(99.2813 374.625)">
<stop offset="0.237518" stop-color="#643E96"/>
<stop offset="1" stop-color="#C891C3"/>
</radialGradient>
<linearGradient id="paint1_linear_5096_10639" x1="139.636" y1="28.0336" x2="139.636" y2="246.866" gradientUnits="userSpaceOnUse">
<stop stop-color="#643E98" stop-opacity="0.6"/>
<stop offset="1" stop-color="#C691C1" stop-opacity="0.45"/>
</linearGradient>
<linearGradient id="paint2_linear_5096_10639" x1="439.546" y1="-137.433" x2="165.776" y2="256.877" gradientUnits="userSpaceOnUse">
<stop stop-color="#C691C1" stop-opacity="0.6"/>
<stop offset="1" stop-color="#C691C1" stop-opacity="0.2"/>
</linearGradient>
<clipPath id="clip0_5096_10639">
<rect width="27.8469" height="27.8469" fill="white" transform="translate(89.2246 101.896)"/>
</clipPath>
<clipPath id="clip1_5096_10639">
<rect width="27.8469" height="27.8469" fill="white" transform="translate(124.067 60.9387)"/>
</clipPath>
</defs>
</svg>
