<svg xmlns="http://www.w3.org/2000/svg" width="201" height="143" fill="none"><path fill="url(#a)" d="M23.745 70.302C25.005 53.994 41.65 47.45 43.48 41.444c1.089-3.563.102-6.807-1.447-9.4-1.286-2.151-2.958-3.855-4.153-4.92a32 32 0 0 0-3.396-.495c.081.51.136 1.019.156 1.53.032.668-.047 1.365-.216 2.1-.566 2.472-2.164 5.357-4.069 8.801-1.912 3.457-4.118 7.455-5.689 11.915-2.016 5.721-2.98 12.214-.92 19.327"/><path fill="url(#b)" d="M8.303 79.12a31.33 31.33 0 0 0 19.203 10.21c-2.981-6.073-4.502-11.752-4.535-16.902-4.924-13.977 1.487-25.572 6.172-34.043 2.268-4.107 4.225-7.647 4.116-10.164a12 12 0 0 0-.09-.984v-.007a30 30 0 0 0-2.648-.018v.005c-.75 2.287-3.436 8.352-12.19 14.89a28 28 0 0 0-4.5 4.237C10.278 50.485 7.68 55.749 6.58 61.19a26 26 0 0 0-.3 1.72c-.78 5.46-.08 10.946 2.024 16.212z"/><path fill="url(#c)" d="M3.245 71.387a31 31 0 0 0 2.488 4.433c-1.17-4.304-1.457-8.71-.826-13.103C6.14 54.08 10.85 45.958 17.505 40.99c7.77-5.795 10.574-11.254 11.494-13.677 0-.005.005-.005.005-.005a31.6 31.6 0 0 0-4.403.69 31.3 31.3 0 0 0-6.344 2.207C8.672 34.744 2.443 43.588.83 53.364A31.03 31.03 0 0 0 3.245 71.39z"/><path fill="url(#d)" d="M56.52 62.024c-.89 6.475-1.744 12.706.322 16.857 8.034-9.158 10.43-22.531 5.028-34.322-3.91-8.537-11.108-14.52-19.41-17.137 4.68 3.076 12.309 9.294 14.478 18.215 1.168 4.801.361 10.688-.42 16.387z"/><path fill="url(#e)" d="M26.724 70.693c1.286.732 2.669 1.295 4.076 1.778 1.41.477 2.857.838 4.314 1.166q1.062.24 2.135.423c-.733 2.312-1.274 9.653 2.775 14.86a32.224 32.224 0 0 0 6.122-2.09 31.9 31.9 0 0 0 9.689-6.85c-2.548-4.572-1.608-11.438-.688-18.143.765-5.568 1.554-11.329.448-15.87-2.241-9.243-10.992-15.604-15.207-18.198 2.488 2.559 5.605 6.92 4.608 12.03q.167.607.331 1.274c.198.83.418 1.573.656 2.238a2.791 2.791 0 0 0 .834-.022 4.2 4.2 0 0 0 1.17-.381c.383-.176.734-.42 1.08-.675q.251-.205.495-.42l.47-.458-.39.532c-.142.165-.283.336-.431.502-.31.319-.631.633-1.01.887-.368.26-.776.485-1.229.638a4 4 0 0 1-.695.163c1.603 3.855 3.9 4.812 6.414 6.127 2.538 1.33.364 3.41-.55 4.725-.192.274-.328.516-.355.712-.047.336-.008.603.069.833.178.537.561.855.485 1.328-.087.526-.782 1.115-1.094 1.421-.086.087-.143.151-.146.183q0 .034.085.07c.289.126 1.276.294 1.39 1.072.136.923-1.071 1.54-1.373 1.672-.3.126-.53 1.234.319 3.602.809 2.26.764 4.49-2.694 5.677q-.249.09-.529.168c-1.56.448-3.411.695-5.133.873-1.155.06-2.337.074-3.51.072-1.452-.015-2.911-.055-4.363-.176-1.454-.124-2.906-.277-4.339-.556-1.432-.277-2.852-.638-4.227-1.187z"/><path fill="#fff" d="M26.948 52.108c1.584-6.654 7.908-8.879 10.32-14.867s-2.785-10.612-2.785-10.612q.125.764.156 1.53c.032.668-.047 1.365-.216 2.1 1.126 3.787-.148 8.19-4.145 12.706-4.955 5.597-3.33 9.145-3.33 9.145zM13.374 75.05c-4.792-12.397 3.3-29.024 10.43-35.43 7.028-6.302 6.729-12.219 6.716-12.402-.747 2.287-3.433 8.352-12.187 14.889a28 28 0 0 0-4.5 4.238c-7.514 14.738-.457 28.705-.457 28.705zM5.231 47.235c2.063-7.101 7.928-9.062 13.535-12.996 3.547-2.49 5.143-4.845 5.835-6.24a31.3 31.3 0 0 0-6.344 2.208c-.873 2.336-4.369 5.251-8.393 8.51-4.512 3.647-4.63 8.372-4.633 8.517" opacity=".2" style="mix-blend-mode:overlay"/><path fill="url(#f)" d="M32.405 91.315c-10.43 0-19.699-4.957-25.591-12.636 11.524 16.948 25.591 37.528 25.591 37.528S46.94 94.781 57.997 78.679c-5.892 7.679-15.16 12.636-25.592 12.636"/><path fill="#643E98" d="M103.954 63.656v.593H91.376v-.593h2.337l-5.676-11.83-1.856 2.298v9.532h2.338v.593H76.238v-.593h2.374V39.213h-2.374v-.593h11.687v.593h-1.743v13.685l8.496-10.421q1.002-1.259 1.002-2.023-.002-.762-.722-1-.725-.242-2.543-.24h-1.967v-.594h10.909v.593q-3.043 0-4.935 2.3l-3.45 4.265 9.498 17.875h1.484zM123.584 62.84q1.41 0 1.818-3.708l.668.074q-.705 5.748-5.158 5.748-1.854.001-3.005-1.243t-1.299-2.985h-.222q-.52 2.003-1.744 3.116-1.225 1.112-3.879 1.112-2.652.002-4.452-1.17-1.8-1.167-1.801-3.725 0-5.526 11.391-5.526v-1.224q0-3.597-.891-4.747-.409-.519-1.207-.927-.796-.408-1.909-.408-2.115 0-3.73.964-1.613.965-1.613 2.114 0 .334.334.334.222 0 .297-.129.073-.13.111-.26a2 2 0 0 1 .074-.222 3 3 0 0 1 .166-.316q.13-.224.65-.594t1.41-.37q.892 0 1.541.796.65.797.651 1.948 0 1.15-.853 1.948-.854.798-2.152.799-1.3 0-2.209-.908a3 3 0 0 1-.911-2.208q0-2.15 1.967-3.394 1.966-1.243 5.657-1.244 3.693 0 5.882.964 2.189.966 2.968 2.725.78 1.762.779 4.841v6.305q0 1.52.668 1.52zm-7.681-4.19V55.2h-.259q-1.745.001-2.931.947-1.188.945-1.188 3.004t.594 3.004q.594.946 1.595.947 1.002 0 1.596-1.409.593-1.41.593-3.041zM146.403 63.656h2.3v.594h-9.313v-2.56h-.185q-.706 1.78-1.95 2.523-1.243.741-3.247.741-3.267 0-4.99-2.633-1.725-2.633-1.724-6.601 0-9.235 7.236-9.235 3.376 0 4.675 2.633h.185v-9.902h-2.634v-.593h2.226q4.044 0 7.421-.705zm-6.864-7.936v-1.002q0-3.263-.854-5.063-.853-1.8-1.966-1.8-1.04 0-1.484 1.891-.446 1.893-.446 5.768t.389 5.823q.387 1.948 1.541 1.948 1.335.001 2.077-2.353.743-2.354.743-5.212M152.005 47.78h-2.634v-.593h2.226q4.044 0 7.421-.704v17.17h2.3v.594h-11.613v-.593h2.3zm3.508-2.855q-1.466.001-2.486-1.021-1.021-1.02-1.022-2.485t1.022-2.485q1.02-1.019 2.503-1.018 1.485 0 2.486 1.018 1.002 1.02 1.002 2.485t-1.022 2.485q-1.02 1.02-2.486 1.021z"/><path fill="#C691C1" d="M91.339 82.128v.222q3.673.075 6.419 1.52 1.447.743 2.283 2.04.833 1.299.833 2.967 0 7.492-12.021 7.492H76.238v-.594h2.745v-24.44h-2.745v-.593H89q5.64.001 8.237 1.244 2.598 1.242 2.597 4.228.001 2.985-2.505 4.45t-5.585 1.464h-.409zm-.557-1.595q1.225-1.593 1.225-3.84c0-1.498-.384-2.761-1.15-3.802q-1.15-1.558-3.71-1.558h-.632v10.792h.817q2.226 0 3.45-1.594zm1.13 13.482q1.17-1.762 1.17-5.155t-1.558-4.747q-1.557-1.352-4.118-1.352h-.89v13.017h1.112q3.116 0 4.285-1.763M111.543 94.44q.835 1.743 3.08 1.743t3.896-1.446 2.132-3.894l.074-.334.668.111q-.52 3.042-2.56 4.747t-5.306 1.706q-4.934.001-7.643-2.353t-2.709-6.77c0-2.945.866-5.234 2.598-6.878q2.597-2.466 7.049-2.465 3.635.001 6.068 1.352 2.43 1.354 2.429 4.174 0 2.819-2.263 4.005-2.264 1.187-5.9 1.187h-2.449q.002 3.375.834 5.118zm-.87-8.456v2.67h.927q1.669.001 2.32-1.13t.651-3.32q0-4.932-1.744-4.932-1.15 0-1.652 1.335-.5 1.335-.5 5.377zM142.136 94.96q1.41 0 1.818-3.71l.667.075q-.704 5.748-5.157 5.748-1.855 0-3.005-1.24-1.15-1.243-1.299-2.985h-.222q-.52 2.002-1.744 3.115-1.225 1.113-3.879 1.113-2.653.002-4.452-1.17-1.8-1.168-1.801-3.726 0-5.526 11.391-5.526v-1.223q0-3.598-.891-4.748-.409-.519-1.207-.927-.797-.408-1.909-.408-2.116 0-3.731.965-1.613.963-1.612 2.114 0 .333.334.333.222 0 .296-.128.075-.13.112-.26.036-.129.074-.222.037-.094.166-.317.128-.222.65-.593.52-.37 1.41-.371.891 0 1.541.799.65.797.651 1.948 0 1.148-.854 1.948-.853.798-2.152.799t-2.209-.91a3 3 0 0 1-.91-2.208q0-2.15 1.967-3.395 1.966-1.241 5.657-1.24 3.692 0 5.882.963 2.189.966 2.968 2.725.78 1.762.779 4.841v6.305q0 1.52.668 1.52zm-7.681-4.191v-3.45h-.26q-1.743.001-2.931.947t-1.187 3.004q0 2.06.594 3.004.593.946 1.595.947 1.002 0 1.596-1.409.593-1.41.593-3.041zM165.325 95.776h2.301v.593h-9.313v-2.892h-.186q-1.447 3.634-5.194 3.634-3.191-.001-4.49-1.985-1.298-1.986-1.298-5.655v-9.568h-2.635v-.593h2.226q3.897 0 7.273-.705v9.309q0 3.746.334 5.397.333 1.65 1.484 1.65 1.299 0 1.966-2.54.668-2.542.668-5.805V79.94h-2.634v-.63h2.226q3.896 0 7.272-.705zM178.349 94.96q1.408 0 1.818-3.71l.667.075q-.333 2.745-1.558 4.248-1.224 1.5-3.636 1.5-4.972 0-4.972-5.414V79.902h-1.929v-.593h.259q1.744 0 4.342-1.335 1.298-.668 2.374-2.003a7.6 7.6 0 0 0 1.484-3.04h.483v6.378h3.45v.593h-3.45V93.44q0 1.52.668 1.52"/><path fill="#C691C1" d="M195.975 78.602q2.152 0 3.245 1.578 1.095 1.576 1.096 3.95 0 5.6-3.784 8.827-.706.594-2.246 1.652t-2.56 1.8q-1.022.742-1.875 1.965-.854 1.224-.854 2.522 0 2.188 1.781 3.19.223.148.408.148.334 0 .334-.334 0-.185-.297-.371-1.15-.741-1.15-1.891t.705-1.911 1.873-.762q1.167 0 2.023.816.853.816.853 2.188t-.927 2.245q-.928.87-2.449.87-1.522-.001-2.671-1.129-1.15-1.132-1.151-2.893.002-1.763.834-2.95.836-1.186 2.32-2.373c-3.042-.99-5.088-2.675-6.139-5.064q-1.577-3.58-1.578-10.181V79.9h-2.672v-.593h2.226q4.341 0 7.718-.705a87 87 0 0 0-.074 3.803q-.001 2.096.428 4.265.427 2.169 1.093 3.355 1.299 2.336 2.597 2.336 2.078 0 3.711-3.634.853-1.928.853-4.673t-1.484-4.005q-.632-.63-1.096-.63-.463 0-.463.333 0 .222.334.37 1.262.594 1.262 1.818 0 1.223-.762 1.948-.76.723-1.91.722t-1.949-.833q-.799-.834-.799-2.134 0-1.296.908-2.17.91-.87 2.283-.87z"/><defs><linearGradient id="a" x1="-18.933" x2="81.056" y1="34.838" y2="62.756" gradientUnits="userSpaceOnUse"><stop offset=".13" stop-color="#643E98"/><stop offset="1" stop-color="#C691C1"/></linearGradient><linearGradient id="b" x1="-21.485" x2="78.502" y1="43.981" y2="71.897" gradientUnits="userSpaceOnUse"><stop offset=".13" stop-color="#643E98"/><stop offset="1" stop-color="#C691C1"/></linearGradient><linearGradient id="c" x1="-20.646" x2="79.343" y1="40.962" y2="68.881" gradientUnits="userSpaceOnUse"><stop offset=".13" stop-color="#643E98"/><stop offset="1" stop-color="#C691C1"/></linearGradient><linearGradient id="d" x1="-18.728" x2="81.273" y1="34.077" y2="61.999" gradientUnits="userSpaceOnUse"><stop offset=".13" stop-color="#643E98"/><stop offset="1" stop-color="#C691C1"/></linearGradient><linearGradient id="e" x1="-20.755" x2="79.246" y1="41.341" y2="69.263" gradientUnits="userSpaceOnUse"><stop offset=".13" stop-color="#643E98"/><stop offset="1" stop-color="#C691C1"/></linearGradient><linearGradient id="f" x1="6.811" x2="57.997" y1="97.444" y2="97.444" gradientUnits="userSpaceOnUse"><stop stop-color="#AB6AA8"/><stop offset="1" stop-color="#47459B"/></linearGradient></defs></svg>