<svg width="201" height="143" viewBox="0 0 201 143" fill="none" xmlns="http://www.w3.org/2000/svg">
<path d="M23.7451 70.3021C25.0042 53.994 41.6487 47.4495 43.4791 41.4439C44.5675 37.8812 43.5805 34.6373 42.0321 32.0438C40.7458 29.8928 39.0737 28.1893 37.879 27.1236C36.7609 26.8986 35.6281 26.733 34.4828 26.6292C34.5644 27.1385 34.6189 27.6478 34.6386 28.1596C34.6708 28.8271 34.5916 29.5244 34.4234 30.2587C33.857 32.7311 32.2591 35.6164 30.3544 39.0605C28.4424 42.517 26.236 46.5149 24.6653 50.9752C22.6493 56.6964 21.6846 63.1889 23.7451 70.3021Z" fill="url(#paint0_linear_5003_7218)"/>
<path d="M8.30329 79.1208C13.2232 84.6417 20.0205 88.3256 27.5055 89.3294C24.5248 83.2572 23.0036 77.578 22.9715 72.4279C18.0466 58.4513 24.4581 46.8556 29.143 38.3851C31.4112 34.2784 33.3678 30.7378 33.259 28.2209C33.2416 27.8945 33.2144 27.5657 33.1699 27.2369C33.1699 27.2319 33.1699 27.2295 33.1699 27.2295C32.2869 27.1825 31.4063 27.18 30.5207 27.2122V27.2171C29.7713 29.5041 27.085 35.569 18.3311 42.1061C16.7109 43.3176 15.1996 44.7466 13.8317 46.3438C10.2772 50.4851 7.67996 55.7489 6.57922 61.1907C6.46049 61.7619 6.35908 62.3379 6.27992 62.9115C5.49828 68.3707 6.1983 73.857 8.30329 79.1233V79.1208Z" fill="url(#paint1_linear_5003_7218)"/>
<path d="M3.2446 71.3873C3.95698 72.94 4.79057 74.4234 5.73299 75.8204C4.563 71.5159 4.27607 67.11 4.90682 62.7165C6.14113 54.0803 10.8508 45.9584 17.5046 40.9913C25.2741 35.1959 28.0791 29.7368 28.9992 27.3138C28.9992 27.3088 29.0042 27.3088 29.0042 27.3088C27.5225 27.4349 26.0508 27.6649 24.6012 27.9986C22.5531 28.4734 20.552 29.1508 18.6301 30.031C18.5039 30.0878 18.3803 30.1447 18.2566 30.2065C8.67157 34.7434 2.44317 43.5873 0.83041 53.3633C-0.146643 59.2823 0.56574 65.54 3.2446 71.3898V71.3873Z" fill="url(#paint2_linear_5003_7218)"/>
<path d="M56.5201 62.024C55.6296 68.4993 54.7763 74.7298 56.8417 78.881C64.8758 69.7231 67.2727 56.3498 61.8704 44.5588C57.9597 36.0215 50.7617 30.0382 42.4604 27.4224C47.1404 30.4981 54.7688 36.7162 56.9382 45.6367C58.1057 50.4382 57.2993 56.3251 56.5176 62.024H56.5201Z" fill="url(#paint3_linear_5003_7218)"/>
<path d="M26.7236 70.6929C28.0099 71.4247 29.3926 71.9884 30.8 72.4706C32.21 72.9477 33.657 73.3087 35.1139 73.6375C35.8214 73.7982 36.5337 73.9367 37.2486 74.0603C36.5164 76.372 35.9747 83.7127 40.0239 88.9196C40.3925 88.8331 40.761 88.7441 41.1271 88.6427C42.8215 88.1853 44.4986 87.5845 46.146 86.8304C49.8885 85.117 53.1387 82.7732 55.8349 79.9793C53.2871 75.4078 54.2271 68.5419 55.1472 61.8366C55.9116 56.2687 56.7006 50.508 55.5949 45.9661C53.3539 36.7242 44.6025 30.3626 40.3875 27.769C42.8759 30.328 45.9926 34.6894 44.9958 39.7999C45.1071 40.2029 45.2184 40.6281 45.3272 41.0732C45.5251 41.9039 45.7453 42.6456 45.9827 43.3107C46.0643 43.3206 46.146 43.3305 46.2301 43.3305C46.4205 43.3404 46.6184 43.3206 46.8163 43.2885C47.2145 43.2267 47.6078 43.0907 47.9863 42.9077C48.3697 42.7322 48.7209 42.4874 49.0672 42.2327C49.2354 42.0968 49.3987 41.9558 49.5619 41.8124L50.0319 41.355L49.6411 41.8866C49.5001 42.0523 49.3591 42.2229 49.2107 42.3885C48.9015 42.7075 48.5799 43.0215 48.2015 43.2761C47.8329 43.5357 47.4248 43.7607 46.9721 43.914C46.7495 43.9857 46.5195 44.045 46.2771 44.0772C47.8799 47.9317 50.1779 48.8885 52.691 50.2039C55.2289 51.534 53.0546 53.6133 52.1419 54.9287C51.9489 55.2031 51.8129 55.4454 51.7857 55.6407C51.7387 55.977 51.7782 56.244 51.8549 56.4739C52.033 57.0105 52.4164 57.3294 52.3397 57.8016C52.2532 58.3283 51.5581 58.9167 51.2464 59.2233C51.1599 59.3098 51.103 59.3741 51.1005 59.4062C51.1005 59.4285 51.1277 59.4507 51.1846 59.4755C51.474 59.6016 52.4609 59.7697 52.5747 60.5485C52.7108 61.4707 51.5037 62.0888 51.2019 62.2199C50.9026 62.346 50.6726 63.4536 51.521 65.8222C52.3298 68.082 52.2853 70.3121 48.8273 71.4989C48.6616 71.5582 48.4835 71.6151 48.298 71.667C46.7371 72.1145 44.8869 72.3618 43.1653 72.5398C42.0102 72.5991 40.8278 72.6139 39.6554 72.6115C38.2034 72.5966 36.744 72.5571 35.292 72.4359C33.8376 72.3123 32.3856 72.159 30.9534 71.8796C29.5212 71.6027 28.1014 71.2418 26.7261 70.6929H26.7236Z" fill="url(#paint4_linear_5003_7218)"/>
<g style="mix-blend-mode:overlay" opacity="0.2">
<path d="M26.9484 52.1075C28.5315 45.4542 34.8563 43.229 37.268 37.2408C39.6798 31.2526 34.4828 26.6292 34.4828 26.6292C34.5645 27.1385 34.6189 27.6478 34.6387 28.1596C34.6708 28.8271 34.5917 29.5244 34.4235 30.2587C35.5489 34.0464 34.275 38.4498 30.2778 42.9645C25.3233 48.5621 26.9484 52.11 26.9484 52.11V52.1075Z" fill="white"/>
</g>
<g style="mix-blend-mode:overlay" opacity="0.2">
<path d="M13.3738 75.0496C8.5825 62.6529 16.6735 46.0258 23.8047 39.6197C30.8321 33.3175 30.5328 27.401 30.5204 27.218C29.7734 29.505 27.0871 35.5699 18.3332 42.107C16.7131 43.3185 15.2017 44.7475 13.8339 46.3447C6.3192 61.0829 13.3762 75.0496 13.3762 75.0496H13.3738Z" fill="white"/>
</g>
<g style="mix-blend-mode:overlay" opacity="0.2">
<path d="M5.23096 47.2345C7.2939 40.1337 13.1587 38.1731 18.7662 34.2394C22.3133 31.7497 23.9088 29.3935 24.6013 27.999C22.5532 28.4737 20.5521 29.1512 18.6302 30.0314C18.504 30.0882 18.3804 30.1451 18.2567 30.2069C17.3835 32.5433 13.8884 35.4583 9.86392 38.717C5.35216 42.3638 5.23343 47.0886 5.23096 47.2345Z" fill="white"/>
</g>
<path d="M32.4053 91.315C21.9744 91.315 12.706 86.3578 6.81396 78.6785C18.3382 95.627 32.4053 116.207 32.4053 116.207C32.4053 116.207 46.9399 94.7814 57.9967 78.6785C52.1047 86.3578 42.8363 91.315 32.4053 91.315Z" fill="url(#paint5_linear_5003_7218)"/>
<path d="M103.954 63.6557V64.2491H91.3759V63.6557H93.7134L88.0366 51.8251L86.1815 54.1245V63.6557H88.519V64.2491H76.2378V63.6557H78.6124V39.2133H76.2378V38.6199H87.9253V39.2133H86.1815V52.8981L94.6781 42.4769C95.346 41.6362 95.6799 40.9637 95.6799 40.4544C95.6799 39.9451 95.4375 39.6138 94.9576 39.4531C94.4753 39.2924 93.6269 39.2133 92.4148 39.2133H90.4483V38.6199H101.357V39.2133C99.3284 39.2133 97.6835 39.9797 96.422 41.5126L92.9714 45.7776L102.47 63.6532H103.954V63.6557Z" fill="#643E98"/>
<path d="M123.584 62.8402C124.524 62.8402 125.13 61.604 125.402 59.1316L126.07 59.2057C125.6 63.038 123.881 64.9541 120.912 64.9541C119.676 64.9541 118.674 64.5413 117.907 63.7105C117.14 62.8823 116.707 61.8883 116.608 60.7263H116.386C116.039 62.0614 115.458 63.0998 114.642 63.8416C113.826 64.5833 112.532 64.9541 110.763 64.9541C108.995 64.9541 107.511 64.566 106.311 63.7847C105.111 63.0059 104.51 61.7647 104.51 60.0587C104.51 56.3748 108.307 54.5329 115.901 54.5329V53.309C115.901 50.9108 115.604 49.3284 115.01 48.5619C114.738 48.2158 114.335 47.9068 113.803 47.6348C113.272 47.3628 112.636 47.2268 111.894 47.2268C110.484 47.2268 109.24 47.5483 108.164 48.1911C107.088 48.8339 106.551 49.5386 106.551 50.305C106.551 50.5275 106.662 50.6388 106.885 50.6388C107.033 50.6388 107.132 50.5968 107.182 50.5102C107.231 50.4237 107.268 50.3372 107.293 50.2506C107.318 50.1641 107.342 50.0899 107.367 50.0281C107.392 49.9663 107.446 49.86 107.533 49.7116C107.62 49.5633 107.835 49.3655 108.183 49.1182C108.53 48.871 109 48.7474 109.593 48.7474C110.187 48.7474 110.702 49.0144 111.134 49.5435C111.567 50.0751 111.785 50.7253 111.785 51.4918C111.785 52.2582 111.501 52.9085 110.932 53.44C110.363 53.9716 109.645 54.2386 108.78 54.2386C107.914 54.2386 107.177 53.937 106.571 53.3313C105.965 52.7255 105.66 51.9887 105.66 51.1234C105.66 49.6894 106.316 48.5595 107.627 47.7287C108.938 46.9005 110.823 46.4851 113.284 46.4851C115.745 46.4851 117.707 46.8065 119.166 47.4494C120.625 48.0922 121.615 49.002 122.134 50.174C122.654 51.3484 122.913 52.9629 122.913 55.015V61.3197C122.913 62.3334 123.136 62.8402 123.581 62.8402H123.584ZM115.903 58.6495V55.2004H115.644C114.481 55.2004 113.504 55.5169 112.713 56.1474C111.921 56.7778 111.525 57.7792 111.525 59.1514C111.525 60.5236 111.723 61.5249 112.119 62.1554C112.515 62.7858 113.046 63.1023 113.714 63.1023C114.382 63.1023 114.914 62.6325 115.31 61.693C115.706 60.7535 115.903 59.7398 115.903 58.6519V58.6495Z" fill="#643E98"/>
<path d="M146.403 63.6562H148.703V64.2496H139.39V61.6906H139.205C138.735 62.8774 138.084 63.718 137.255 64.2125C136.427 64.707 135.343 64.9542 134.008 64.9542C131.831 64.9542 130.166 64.0765 129.018 62.3211C127.868 60.5657 127.294 58.3652 127.294 55.7197C127.294 49.5633 129.706 46.4852 134.53 46.4852C136.781 46.4852 138.339 47.3629 139.205 49.1183H139.39V39.2162H136.756V38.6229H138.982C141.678 38.6229 144.152 38.388 146.403 37.9182V63.6562ZM139.539 55.7197V54.7184C139.539 52.5426 139.254 50.854 138.685 49.6548C138.116 48.4557 137.461 47.8549 136.719 47.8549C136.026 47.8549 135.531 48.4854 135.235 49.7463C134.938 51.0072 134.789 52.9308 134.789 55.5145C134.789 58.0982 134.918 60.039 135.178 61.3371C135.437 62.6351 135.949 63.2853 136.719 63.2853C137.609 63.2853 138.302 62.5016 138.796 60.9316C139.291 59.3616 139.539 57.6259 139.539 55.7197Z" fill="#643E98"/>
<path d="M152.005 47.7808H149.371V47.1874H151.597C154.293 47.1874 156.767 46.9525 159.018 46.4827V63.6537H161.318V64.2471H149.705V63.6537H152.005V47.7808ZM155.513 44.9251C154.536 44.9251 153.707 44.5864 153.027 43.904C152.347 43.2241 152.005 42.3958 152.005 41.4192C152.005 40.4426 152.344 39.6143 153.027 38.9344C153.707 38.2545 154.541 37.9158 155.53 37.9158C156.52 37.9158 157.348 38.2545 158.016 38.9344C158.684 39.6143 159.018 40.4426 159.018 41.4192C159.018 42.3958 158.677 43.2241 157.996 43.904C157.316 44.5839 156.488 44.9251 155.51 44.9251H155.513Z" fill="#643E98"/>
<path d="M91.3388 82.1277V82.3502C93.7876 82.3997 95.9273 82.9065 97.7577 83.8708C98.7224 84.3653 99.4842 85.0452 100.041 85.9105C100.597 86.7759 100.874 87.7649 100.874 88.8774C100.874 93.8718 96.8672 96.3689 88.8529 96.3689H76.2378V95.7755H78.9834V71.3356H76.2378V70.7422H89.0013C92.7611 70.7422 95.5068 71.1576 97.2383 71.9858C98.9697 72.8141 99.8355 74.2234 99.8355 76.2137C99.8355 78.204 99.0019 79.6874 97.3298 80.664C95.6601 81.6407 93.7975 82.1277 91.7445 82.1277H91.3364H91.3388ZM90.7823 80.533C91.5986 79.4699 92.0067 78.1916 92.0067 76.6933C92.0067 75.195 91.6233 73.9316 90.8565 72.8907C90.0897 71.8523 88.8529 71.3331 87.1462 71.3331H86.5154V82.1252H87.3317C88.8158 82.1252 89.966 81.5937 90.7823 80.5305V80.533ZM91.9127 94.0152C92.6919 92.8407 93.0827 91.1224 93.0827 88.8601C93.0827 86.5979 92.5632 85.0155 91.5243 84.1131C90.4855 83.2106 89.1126 82.7607 87.4059 82.7607H86.5154V95.778H87.6285C89.7063 95.778 91.1335 95.1896 91.9127 94.0152Z" fill="#C691C1"/>
<path d="M111.543 94.4401C112.1 95.6022 113.126 96.1832 114.623 96.1832C116.119 96.1832 117.418 95.7011 118.519 94.7368C119.619 93.7726 120.329 92.4745 120.651 90.8427L120.725 90.509L121.393 90.6202C121.047 92.6476 120.193 94.23 118.833 95.3673C117.472 96.5046 115.704 97.0733 113.527 97.0733C110.237 97.0733 107.69 96.2895 105.884 94.7195C104.078 93.1495 103.175 90.8947 103.175 87.95C103.175 85.0053 104.041 82.7159 105.773 81.0717C107.504 79.4275 109.854 78.6067 112.822 78.6067C115.246 78.6067 117.267 79.0591 118.89 79.9591C120.51 80.8615 121.319 82.2535 121.319 84.1326C121.319 86.0116 120.564 87.3467 119.056 88.1379C117.547 88.9291 115.58 89.3247 113.156 89.3247H110.707C110.707 91.5746 110.987 93.2806 111.541 94.4426L111.543 94.4401ZM110.673 85.9844V88.6546H111.6C112.713 88.6546 113.485 88.2788 113.92 87.5247C114.353 86.7706 114.571 85.663 114.571 84.2043C114.571 80.9159 113.99 79.2718 112.827 79.2718C112.06 79.2718 111.509 79.7168 111.175 80.6069C110.841 81.497 110.675 83.2895 110.675 85.9844H110.673Z" fill="#C691C1"/>
<path d="M142.136 94.9593C143.076 94.9593 143.682 93.7231 143.954 91.2507L144.621 91.3248C144.152 95.1571 142.432 97.0732 139.464 97.0732C138.227 97.0732 137.226 96.6603 136.459 95.8321C135.692 95.0038 135.259 94.0099 135.16 92.8478H134.938C134.591 94.183 134.01 95.2214 133.194 95.9631C132.377 96.7048 131.084 97.0757 129.315 97.0757C127.547 97.0757 126.062 96.6875 124.863 95.9062C123.663 95.1274 123.062 93.8863 123.062 92.1803C123.062 88.4964 126.859 86.6544 134.453 86.6544V85.4306C134.453 83.0323 134.156 81.45 133.562 80.6835C133.29 80.3374 132.887 80.0283 132.355 79.7563C131.823 79.4844 131.188 79.3484 130.446 79.3484C129.036 79.3484 127.791 79.6698 126.715 80.3126C125.639 80.9555 125.103 81.6601 125.103 82.4266C125.103 82.6491 125.214 82.7603 125.437 82.7603C125.585 82.7603 125.684 82.7183 125.733 82.6318C125.783 82.5452 125.82 82.4587 125.845 82.3722C125.869 82.2856 125.894 82.2115 125.919 82.1496C125.944 82.0878 125.998 81.9815 126.085 81.8332C126.171 81.6848 126.386 81.487 126.735 81.2398C127.082 80.9926 127.552 80.8689 128.145 80.8689C128.739 80.8689 129.253 81.136 129.686 81.6675C130.119 82.1991 130.337 82.8493 130.337 83.6158C130.337 84.3823 130.052 85.03 129.483 85.5641C128.914 86.0956 128.197 86.3627 127.331 86.3627C126.466 86.3627 125.728 86.061 125.122 85.4528C124.516 84.8471 124.212 84.1128 124.212 83.2449C124.212 81.8109 124.868 80.681 126.179 79.8503C127.49 79.022 129.375 78.6091 131.836 78.6091C134.297 78.6091 136.258 78.9305 137.718 79.5734C139.177 80.2162 140.167 81.1261 140.686 82.298C141.206 83.4724 141.465 85.0869 141.465 87.139V93.4437C141.465 94.4574 141.688 94.9642 142.133 94.9642L142.136 94.9593ZM134.455 90.7685V87.3195H134.195C133.033 87.3195 132.056 87.636 131.264 88.2664C130.473 88.8969 130.077 89.8982 130.077 91.2704C130.077 92.6426 130.275 93.644 130.671 94.2744C131.066 94.9049 131.598 95.2214 132.266 95.2214C132.934 95.2214 133.466 94.7516 133.862 93.8121C134.257 92.8726 134.455 91.8589 134.455 90.771V90.7685Z" fill="#C691C1"/>
<path d="M165.325 95.776H167.626V96.3694H158.313V93.4766H158.127C157.162 95.8996 155.431 97.1111 152.933 97.1111C150.805 97.1111 149.309 96.4485 148.443 95.1257C147.577 93.803 147.145 91.9165 147.145 89.4713V79.903H144.51V79.3096H146.736C149.334 79.3096 151.758 79.0747 154.009 78.605V87.9137C154.009 90.4108 154.12 92.2108 154.343 93.311C154.565 94.4112 155.06 94.9601 155.827 94.9601C156.693 94.9601 157.348 94.1145 157.793 92.4209C158.238 90.7273 158.461 88.7914 158.461 86.6156V79.9401H155.827V79.3096H158.053C160.65 79.3096 163.074 79.0747 165.325 78.605V95.776Z" fill="#C691C1"/>
<path d="M178.349 94.9595C179.288 94.9595 179.894 93.7233 180.167 91.2509L180.834 91.325C180.612 93.1546 180.092 94.5713 179.276 95.5727C178.46 96.574 177.248 97.0734 175.64 97.0734C172.325 97.0734 170.668 95.2686 170.668 91.6588V79.9024H168.739V79.309H168.998C170.161 79.309 171.608 78.864 173.34 77.9739C174.205 77.5289 174.997 76.8613 175.714 75.9713C176.432 75.0812 176.926 74.0675 177.198 72.9302H177.681V79.309H181.131V79.9024H177.681V93.439C177.681 94.4527 177.903 94.9595 178.349 94.9595Z" fill="#C691C1"/>
<path d="M195.975 78.6023C197.41 78.6023 198.491 79.1289 199.22 80.1797C199.95 81.2305 200.316 82.5483 200.316 84.1306C200.316 87.864 199.055 90.8062 196.532 92.9572C196.062 93.3528 195.312 93.9042 194.286 94.6088C193.259 95.3134 192.406 95.9142 191.726 96.4087C191.045 96.9032 190.42 97.5584 189.851 98.3743C189.282 99.1902 188.997 100.031 188.997 100.896C188.997 102.355 189.591 103.418 190.778 104.086C190.927 104.185 191.063 104.234 191.186 104.234C191.409 104.234 191.52 104.123 191.52 103.9C191.52 103.777 191.421 103.653 191.223 103.529C190.457 103.035 190.073 102.404 190.073 101.638C190.073 100.871 190.308 100.234 190.778 99.7267C191.248 99.2199 191.872 98.9652 192.651 98.9652C193.43 98.9652 194.103 99.2372 194.674 99.7811C195.243 100.325 195.527 101.054 195.527 101.969C195.527 102.884 195.218 103.631 194.6 104.214C193.981 104.795 193.165 105.084 192.151 105.084C191.137 105.084 190.246 104.706 189.48 103.955C188.713 103.2 188.329 102.236 188.329 101.062C188.329 99.8874 188.609 98.9034 189.163 98.1122C189.72 97.321 190.494 96.5299 191.483 95.7387C188.441 94.7497 186.395 93.0635 185.344 90.6752C184.293 88.2893 183.766 84.8946 183.766 80.4937V79.9003H181.094V79.3069H183.32C186.214 79.3069 188.787 79.0721 191.038 78.6023C190.988 79.7396 190.964 81.008 190.964 82.4049C190.964 83.8018 191.105 85.2235 191.392 86.6698C191.676 88.1162 192.042 89.2337 192.485 90.0249C193.351 91.5825 194.216 92.3614 195.082 92.3614C196.467 92.3614 197.704 91.1499 198.793 88.7269C199.361 87.4412 199.646 85.8836 199.646 84.054C199.646 82.2244 199.151 80.8893 198.162 80.0487C197.741 79.6284 197.375 79.4182 197.066 79.4182C196.757 79.4182 196.603 79.5295 196.603 79.752C196.603 79.9003 196.715 80.0239 196.937 80.1228C197.778 80.5184 198.199 81.1242 198.199 81.9401C198.199 82.756 197.944 83.4037 197.437 83.8883C196.93 84.3705 196.294 84.6103 195.527 84.6103C194.761 84.6103 194.11 84.3309 193.578 83.7771C193.046 83.2208 192.779 82.5087 192.779 81.6434C192.779 80.778 193.081 80.0561 193.687 79.4726C194.293 78.8916 195.055 78.6023 195.97 78.6023H195.975Z" fill="#C691C1"/>
<defs>
<linearGradient id="paint0_linear_5003_7218" x1="-18.933" y1="34.8376" x2="81.0561" y2="62.7563" gradientUnits="userSpaceOnUse">
<stop offset="0.13" stop-color="#643E98"/>
<stop offset="1" stop-color="#C691C1"/>
</linearGradient>
<linearGradient id="paint1_linear_5003_7218" x1="-21.4855" y1="43.9809" x2="78.5025" y2="71.8974" gradientUnits="userSpaceOnUse">
<stop offset="0.13" stop-color="#643E98"/>
<stop offset="1" stop-color="#C691C1"/>
</linearGradient>
<linearGradient id="paint2_linear_5003_7218" x1="-20.646" y1="40.962" x2="79.343" y2="68.8807" gradientUnits="userSpaceOnUse">
<stop offset="0.13" stop-color="#643E98"/>
<stop offset="1" stop-color="#C691C1"/>
</linearGradient>
<linearGradient id="paint3_linear_5003_7218" x1="-18.7283" y1="34.0774" x2="81.2729" y2="61.9988" gradientUnits="userSpaceOnUse">
<stop offset="0.13" stop-color="#643E98"/>
<stop offset="1" stop-color="#C691C1"/>
</linearGradient>
<linearGradient id="paint4_linear_5003_7218" x1="-20.7553" y1="41.3414" x2="79.2458" y2="69.2627" gradientUnits="userSpaceOnUse">
<stop offset="0.13" stop-color="#643E98"/>
<stop offset="1" stop-color="#C691C1"/>
</linearGradient>
<linearGradient id="paint5_linear_5003_7218" x1="6.81149" y1="97.4442" x2="57.9967" y2="97.4442" gradientUnits="userSpaceOnUse">
<stop stop-color="#AB6AA8"/>
<stop offset="1" stop-color="#47459B"/>
</linearGradient>
</defs>
</svg>
