<svg xmlns="http://www.w3.org/2000/svg" width="15" height="14" fill="none"><path stroke="#fff" stroke-linecap="round" stroke-width="1.003" d="M14.359 5.378v-.334c0-.621 0-.932-.041-1.192a3.34 3.34 0 0 0-2.78-2.779c-.26-.041-.57-.041-1.191-.041H6.335c-1.872 0-2.809 0-3.524.364-.629.32-1.14.832-1.46 1.461C.985 3.573.985 4.51.985 6.381v1.337c0 1.873 0 2.809.364 3.524.32.63.832 1.14 1.461 1.461.715.365 1.652.365 3.524.365h4.012c.621 0 .932 0 1.192-.042a3.34 3.34 0 0 0 2.779-2.779c.04-.26.04-.57.04-1.191V8.72m-2.674-4.346-.668.446-.377.25c-1.072.716-1.608 1.073-2.188 1.212a3.34 3.34 0 0 1-1.558 0c-.58-.139-1.116-.496-2.188-1.211L4.33 4.82l-.669-.446"/></svg>