<svg xmlns="http://www.w3.org/2000/svg" width="176" height="55" fill="none"><mask id="a" width="176" height="55" x="0" y="0" maskUnits="userSpaceOnUse" style="mask-type:alpha"><path fill="#C4C4C4" d="M.67.953h175v54H.67z"/></mask><g mask="url(#a)"><g clip-path="url(#b)"><path fill="#2A2A2A" d="M169.188 54.953H7.151c-3.63 0-6.481-3.105-6.481-6.75v-40.5C.67 3.923 3.65.953 7.15.953h162.037c3.63 0 6.482 3.105 6.482 6.75v40.5c0 3.78-2.852 6.75-6.482 6.75"/><path fill="#A6A6A6" d="M169.188 2.033c2.982 0 5.445 2.565 5.445 5.67v40.5c0 3.105-2.463 5.67-5.445 5.67H7.151c-2.981 0-5.444-2.565-5.444-5.67v-40.5c0-3.105 2.463-5.67 5.444-5.67zm0-1.08H7.151C3.651.953.67 4.058.67 7.703v40.5c0 3.78 2.981 6.75 6.481 6.75h162.037c3.63 0 6.482-3.105 6.482-6.75v-40.5c0-3.645-2.852-6.75-6.482-6.75"/><path fill="url(#c)" d="M14.152 11.059c-.39.389-.519 1.037-.519 1.814v28.649c0 .777.26 1.425.648 1.814l.13.13 16.074-16.074v-.26z"/><path fill="url(#d)" d="m35.67 32.836-5.314-5.315v-.389l5.315-5.314.13.13 6.351 3.629c1.815 1.037 1.815 2.722 0 3.76z"/><path fill="url(#e)" d="m35.8 32.707-5.444-5.445-16.204 16.204c.649.648 1.556.648 2.723.13z"/><path fill="url(#f)" d="m35.8 21.818-18.925-10.76c-1.167-.648-2.075-.518-2.723.13l16.204 16.074z"/><path fill="#2A2A2A" d="m35.67 32.577-18.796 10.63c-1.037.647-1.944.518-2.592 0l-.13.129.13.13c.648.518 1.555.648 2.592 0z" opacity=".2"/><path fill="#2A2A2A" d="M14.151 43.206c-.389-.389-.518-1.037-.518-1.815v.13c0 .777.26 1.426.648 1.815v-.13zM42.151 28.948l-6.481 3.63.13.129 6.351-3.63c.908-.518 1.297-1.166 1.297-1.815 0 .649-.519 1.167-1.297 1.686" opacity=".12"/><path fill="#fff" d="m16.874 11.188 25.278 14.389c.778.518 1.296 1.037 1.296 1.685 0-.648-.389-1.296-1.296-1.815L16.874 11.058c-1.815-1.037-3.24-.259-3.24 1.815v.13c0-1.945 1.425-2.852 3.24-1.815" opacity=".25"/><path fill="#fff" d="M84.736 29.97c-2.723 0-4.797 2.074-4.797 4.796s2.204 4.796 4.797 4.796c2.722 0 4.796-2.074 4.796-4.796.13-2.722-2.074-4.796-4.796-4.796m0 7.778c-1.426 0-2.723-1.167-2.723-2.982 0-1.685 1.297-2.981 2.723-2.981s2.722 1.166 2.722 2.981c0 1.685-1.167 2.982-2.722 2.982m-10.5-7.778c-2.723 0-4.797 2.074-4.797 4.796s2.204 4.796 4.797 4.796 4.796-2.074 4.796-4.796-2.204-4.796-4.796-4.796m0 7.778c-1.426 0-2.723-1.167-2.723-2.982 0-1.685 1.297-2.981 2.723-2.981s2.722 1.166 2.722 2.981c0 1.685-1.296 2.982-2.722 2.982m-12.574-6.352v2.074h4.926c-.13 1.166-.519 1.944-1.167 2.592s-1.815 1.556-3.76 1.556c-2.98 0-5.314-2.463-5.314-5.445 0-2.98 2.333-5.444 5.315-5.444 1.685 0 2.851.648 3.63 1.426l1.425-1.426c-1.166-1.167-2.852-2.074-5.185-2.074-4.148 0-7.648 3.37-7.648 7.518 0 4.149 3.5 7.52 7.648 7.52 2.204 0 3.889-.779 5.185-2.075s1.815-3.24 1.815-4.796c0-.519 0-.908-.13-1.297h-6.74zm51.333 1.685c-.389-1.037-1.685-3.111-4.148-3.111s-4.537 1.944-4.537 4.796c0 2.722 2.074 4.796 4.796 4.796 2.204 0 3.5-1.296 4.019-2.074l-1.686-1.037c-.518.778-1.296 1.297-2.333 1.297s-1.815-.519-2.333-1.426l6.481-2.723zm-6.611 1.555c0-1.814 1.426-2.851 2.463-2.851.778 0 1.555.388 1.815 1.037zm-5.185 4.667h2.074v-14.13h-2.074zm-3.5-8.296c-.519-.519-1.426-1.037-2.593-1.037-2.463 0-4.667 2.074-4.667 4.796s2.204 4.796 4.667 4.796c1.167 0 2.074-.518 2.593-1.037h.13v.648c0 1.815-1.038 2.852-2.593 2.852-1.297 0-2.074-.907-2.463-1.685l-1.815.778c.518 1.296 1.944 2.852 4.278 2.852 2.463 0 4.537-1.426 4.537-5.056V30.23h-1.945v.778zm-2.463 6.74c-1.426 0-2.723-1.166-2.723-2.851s1.167-2.982 2.723-2.982c1.426 0 2.592 1.297 2.592 2.982 0 1.555-1.037 2.852-2.592 2.852m27.74-12.573h-5.055v14.13h2.074v-5.316h2.981c2.334 0 4.667-1.685 4.667-4.407s-2.333-4.407-4.667-4.407m0 6.74h-2.981v-4.796h2.981c1.556 0 2.463 1.296 2.463 2.463 0 1.037-.907 2.333-2.463 2.333m13.093-1.944c-1.556 0-3.111.648-3.759 2.203l1.815.778c.388-.778 1.166-1.037 1.944-1.037 1.037 0 2.204.648 2.204 1.815v.13c-.389-.26-1.167-.519-2.204-.519-2.074 0-4.019 1.167-4.019 3.241 0 1.944 1.686 3.111 3.5 3.111 1.426 0 2.204-.648 2.723-1.426h.129v1.037h2.074V33.86c-.129-2.463-2.074-3.89-4.407-3.89m-.259 7.778c-.648 0-1.685-.39-1.685-1.167 0-1.037 1.166-1.556 2.203-1.556.908 0 1.426.26 1.945.519-.13 1.167-1.297 2.204-2.463 2.204m11.926-7.519-2.463 6.093h-.13l-2.463-6.093h-2.333l3.759 8.556-2.204 4.796h2.204l5.833-13.352zm-19.056 9.074h2.074v-14.13h-2.074z"/></g><path fill="#fff" d="M92.13 17.147h1.219v.806h-1.257q-.248 2.54-2.868 2.54-1.236 0-1.94-.687-.8-.784-.8-2.38 0-1.08.274-2.09l1.048-.198a7.8 7.8 0 0 0-.312 2.186q0 1.29.591 1.89.468.48 1.235.479 1.794 0 1.794-2.235V12.78h1.015zm-2.917-3.298a.57.57 0 0 1-.42-.172.56.56 0 0 1-.176-.419q0-.252.177-.43a.56.56 0 0 1 .419-.177q.247 0 .424.172a.58.58 0 0 1 .183.435q0 .242-.183.42a.59.59 0 0 1-.424.171m3.975 4.104v-.806h.87q.381 0 .639.06-.816-.517-.817-1.86 0-1.137.693-1.88.747-.805 2.057-.805 2.353 0 2.353 2.465v2.826zm4.807-2.654q0-1.836-1.45-1.837-.763 0-1.204.505-.44.49-.44 1.322 0 1.858 2.003 1.858h1.09zm7.455 2.654q-2.885 0-2.885-2.562 0-1.166.683-1.912.746-.817 2.089-.817 1.209 0 2.213.387v4.098h1.219v.806zm1.106-4.233q-.537-.258-1.327-.258-.762 0-1.203.5-.44.495-.44 1.316 0 1.869 2.003 1.869h.967zm2.047 3.427h1.605V12.78h1.01v4.367h1.708v.806h-4.323zm1.52 2.444a.57.57 0 0 1-.172.419.56.56 0 0 1-.414.177.55.55 0 0 1-.413-.172.57.57 0 0 1-.167-.424q0-.242.167-.408a.55.55 0 0 1 .413-.172q.242 0 .414.166a.56.56 0 0 1 .172.414m1.616 0a.58.58 0 0 1-.166.419.54.54 0 0 1-.408.177.57.57 0 0 1-.419-.172.57.57 0 0 1-.172-.424q0-.242.172-.408a.57.57 0 0 1 .419-.172q.241 0 .408.166a.56.56 0 0 1 .166.414m1.032-2.444h1.541v-6.95h1.01v6.95h1.208v.806h-3.759zm3.598 0h2.122q-1.176-.526-1.177-1.944 0-1.09.677-1.784.736-.756 2.041-.757.769 0 1.429.242l-.188.816a3.2 3.2 0 0 0-1.305-.268q-.736 0-1.182.456-.456.462-.456 1.252 0 .891.687 1.412.763.575 2.234.575h.903v.806h-5.785zm13.498-6.95h1.015v6.95h1.176v.806h-1.208q-.301 2.54-2.686 2.54-2.707 0-2.707-3.067 0-1.08.274-2.09l1.047-.198a7.8 7.8 0 0 0-.311 2.186q0 2.37 1.794 2.369 1.606 0 1.606-2.299zm2.025 6.95h1.584V12.78h1.01v.43q0 1.14-.118 1.971h.01q.376-1.197 1.225-1.88a2.8 2.8 0 0 1 1.789-.639q1.058 0 1.632.66.57.65.57 1.838 0 1.272-.752 1.987h1.584v.806h-8.534zm4.597 0q2.058 0 2.057-1.912 0-1.773-1.342-1.773-1.07 0-1.864 1.177-.725 1.068-.876 2.508zm3.717 0h4.544q.075-.672.075-1.128 0-1.289-.526-1.864-.564-.612-1.88-.612-.655 0-1.225.075v-.79q.58-.09 1.311-.09 1.767 0 2.567.816.758.773.758 2.384 0 .957-.178 2.015h-5.446zm7.401-6.95h1.01v7.756h-1.01z"/></g><defs><linearGradient id="c" x1="28.929" x2="7.174" y1="12.627" y2="34.382" gradientUnits="userSpaceOnUse"><stop stop-color="#00A0FF"/><stop offset=".007" stop-color="#00A1FF"/><stop offset=".26" stop-color="#00BEFF"/><stop offset=".512" stop-color="#00D2FF"/><stop offset=".76" stop-color="#00DFFF"/><stop offset="1" stop-color="#00E3FF"/></linearGradient><linearGradient id="d" x1="44.53" x2="13.164" y1="27.264" y2="27.264" gradientUnits="userSpaceOnUse"><stop stop-color="#FFE000"/><stop offset=".409" stop-color="#FFBD00"/><stop offset=".775" stop-color="orange"/><stop offset="1" stop-color="#FF9C00"/></linearGradient><linearGradient id="e" x1="32.854" x2="3.353" y1="30.239" y2="59.74" gradientUnits="userSpaceOnUse"><stop stop-color="#FF3A44"/><stop offset="1" stop-color="#C31162"/></linearGradient><linearGradient id="f" x1="10.13" x2="23.304" y1="1.565" y2="14.738" gradientUnits="userSpaceOnUse"><stop stop-color="#32A071"/><stop offset=".069" stop-color="#2DA771"/><stop offset=".476" stop-color="#15CF74"/><stop offset=".801" stop-color="#06E775"/><stop offset="1" stop-color="#00F076"/></linearGradient><clipPath id="b"><path fill="#fff" d="M.67.953h175v55.019H.67z"/></clipPath></defs></svg>