<svg xmlns="http://www.w3.org/2000/svg" width="113" height="81" fill="none"><path stroke="#C891C3" stroke-dasharray="1.61 1.61" stroke-width="2" d="M57.462 17.883v24.252"/><path stroke="#C891C3" stroke-dasharray="1.61 1.61" stroke-width=".806" d="M56.88 54.669v17.78"/><path stroke="#C891C3" stroke-dasharray="1.61 1.61" stroke-width="2" d="M24.643 71.45h32.383M70.588 51.549h16.636"/><g clip-path="url(#a)"><path fill="#BBB" d="M8.087 64.54H6.64a.95.95 0 0 0-.872.574l-4.003 9.323 9.508-4.856c-1.138-1.576-2.264-3.313-3.186-5.04M26.482 65.114a.95.95 0 0 0-.872-.574h-1.447c-1.74 3.263-4.277 6.635-5.89 8.49a2.85 2.85 0 0 1-4.296 0c-.115-.133-.72-.834-1.554-1.911l-1.714.876 6.484 6.472 12.287-6.37zM.595 77.161l-.517 1.205a.947.947 0 0 0 .871 1.32h13.924c.087-.066.088-.062.556-.304l-6.494-6.48zM32.173 78.366l-1.943-4.524-11.271 5.843h12.342c.68 0 1.14-.695.872-1.32M17.073 55.958a.949.949 0 0 0-1.897 0 .949.949 0 0 0 1.897 0"/><path fill="#C891C3" d="M16.84 71.724c.32-.367 7.821-9.044 7.821-15.008 0-12.3-17.073-12.45-17.073 0 0 5.964 7.502 14.642 7.821 15.008a.95.95 0 0 0 1.432 0m-3.56-15.766a2.846 2.846 0 0 1 5.69 0 2.846 2.846 0 0 1-5.69 0"/></g><path fill="#C891C3" d="M60.84 17.009c.21-.21.463-.379.716-.505-.505-1.558-1.98-2.611-3.621-2.611h-2.906a3.82 3.82 0 0 0-3.621 2.61c.252.17.463.337.716.506.968.842 1.642 2.021 1.81 3.284l.421 2.948h4.295l.421-2.948a5.3 5.3 0 0 1 1.769-3.284M56.462 12.756c1.895 0 3.41-1.558 3.41-3.41V9.05c0-1.894-1.557-3.41-3.41-3.41-1.895 0-3.41 1.558-3.41 3.41v.296c0 1.852 1.515 3.41 3.41 3.41"/><path fill="#BBB" d="M52.335 20.546c-.294-1.895-1.895-3.284-3.79-3.284H45.64c-1.895 0-3.537 1.39-3.79 3.284l-.673 4.632c-.127.758.463 1.432 1.263 1.432h9.348c.758 0 1.348-.674 1.263-1.432zM47.071 16.125c1.895 0 3.411-1.558 3.411-3.41v-.296c0-1.895-1.558-3.41-3.41-3.41-1.896 0-3.411 1.557-3.411 3.41v.295c0 1.853 1.558 3.411 3.41 3.411M71.789 25.178l-.674-4.632c-.295-1.895-1.895-3.284-3.79-3.284H64.42c-1.895 0-3.537 1.39-3.79 3.284l-.674 4.632c-.126.758.464 1.432 1.264 1.432h9.39c.674.042 1.263-.674 1.179-1.432M65.809 16.125c1.895 0 3.41-1.558 3.41-3.41v-.296c0-1.895-1.557-3.41-3.41-3.41-1.895 0-3.411 1.557-3.411 3.41v.295c0 1.853 1.558 3.411 3.41 3.411M101.875 36.45a1.68 1.68 0 0 0-3.36 0v2.015a1.68 1.68 0 0 0 3.36 0z"/><path fill="#BBB" d="M103.219 36.786v1.68a3.024 3.024 0 0 1-6.047 0v-1.68h-6.047v1.68a3.024 3.024 0 0 1-6.047 0v-1.68a3.36 3.36 0 0 0-3.36 3.359v3.36h24.86v-3.36a3.36 3.36 0 0 0-3.359-3.36"/><path fill="#BBB" d="M89.78 36.45a1.68 1.68 0 1 0-3.36 0v2.015a1.68 1.68 0 0 0 3.36 0zM96.5 57.614a8.05 8.05 0 0 1 3.609-6.72h-.921a1.344 1.344 0 0 1-1.344-1.343v-1.344a1.344 1.344 0 0 1 1.344-1.344h1.343a1.345 1.345 0 0 1 1.344 1.344v1.344c0 .173-.034.345-.1.505a7.9 7.9 0 0 1 4.803-.241v-4.967h-24.86v12.766a3.36 3.36 0 0 0 3.36 3.359H97.24a8 8 0 0 1-.739-3.36m-6.719-1.344a1.344 1.344 0 0 1-1.343 1.343h-1.344a1.344 1.344 0 0 1-1.344-1.343v-1.344a1.344 1.344 0 0 1 1.344-1.344h1.344a1.344 1.344 0 0 1 1.343 1.344zm0-6.72a1.344 1.344 0 0 1-1.343 1.345h-1.344a1.344 1.344 0 0 1-1.344-1.344v-1.344a1.344 1.344 0 0 1 1.344-1.344h1.344a1.344 1.344 0 0 1 1.343 1.344zm6.047 6.72a1.344 1.344 0 0 1-1.344 1.343h-1.343a1.344 1.344 0 0 1-1.344-1.343v-1.344a1.344 1.344 0 0 1 1.344-1.344h1.343a1.344 1.344 0 0 1 1.344 1.344zm0-6.72a1.344 1.344 0 0 1-1.344 1.345h-1.343a1.344 1.344 0 0 1-1.344-1.344v-1.344a1.344 1.344 0 0 1 1.344-1.344h1.343a1.344 1.344 0 0 1 1.344 1.344z"/><path fill="#C891C3" d="M104.563 50.895a6.72 6.72 0 1 0 0 13.438 6.72 6.72 0 0 0 0-13.438m2.49 9.21a.67.67 0 0 1-.95 0l-2.015-2.016a.67.67 0 0 1-.197-.475v-4.032a.671.671 0 1 1 1.343 0v3.753l1.819 1.82a.67.67 0 0 1 0 .95"/><path fill="#E6DDF7" d="M68.297 44.65c-.07.233-.163.467-.269.677-.746 1.411-2.228 2.298-3.745 2.823s-3.114.747-4.643 1.237-3.033 1.306-3.861 2.683c-.7 1.155-.899 2.648-1.914 3.547-1.108.98-2.8.898-4.072 1.645-1.82 1.073-2.274 3.546-1.936 5.623s1.283 4.037 1.54 6.137c.28 2.251-.303 4.585-1.54 6.475a18.74 18.74 0 0 1-9.544-10.815 5.8 5.8 0 0 0 2.299-2.357c.77-1.493.852-3.325.198-4.877-.245-.595-.607-1.178-.595-1.831.023-1.074 1.027-1.82 1.937-2.38S44.089 52 44.24 50.95c.152-1.12-.758-2.077-1.575-2.858-.385-.374-.793-.794-1.073-1.26A18.62 18.62 0 0 1 56 40.03c4.714 0 9.019 1.75 12.297 4.632z"/><path fill="#643E96" fill-opacity=".8" d="M44.228 50.938c-.14 1.062-1.166 1.739-2.088 2.287-.91.56-1.913 1.318-1.937 2.38-.011.642.339 1.237.595 1.832.654 1.551.572 3.383-.198 4.876a5.9 5.9 0 0 1-2.298 2.357 18.8 18.8 0 0 1-.98-5.985c0-4.503 1.598-8.633 4.258-11.865.28.467.688.887 1.073 1.26.817.782 1.727 1.738 1.575 2.858M63.63 54.263c-.875.84-1.085 2.404-.222 3.267.63.618 1.575.735 2.45.875s1.832.432 2.24 1.213c.607 1.155-.373 2.567-.116 3.85.21 1.027 1.166 1.739 2.158 2.1.933.339 1.925.479 2.847.84a18.84 18.84 0 0 1-5.6 7.059c-1.319-.409-2.602-.934-3.955-1.144-3.489-.536-7.222 1.33-8.89 4.445a7 7 0 0 0-.257.514 18.7 18.7 0 0 1-6.44-1.785c1.248-1.89 1.82-4.224 1.54-6.475-.257-2.089-1.202-4.049-1.54-6.137-.338-2.077.117-4.55 1.937-5.623 1.271-.747 2.963-.665 4.071-1.645 1.015-.899 1.202-2.392 1.914-3.547.828-1.365 2.345-2.193 3.861-2.683 1.529-.49 3.127-.712 4.644-1.237 1.516-.525 2.998-1.412 3.745-2.823.116-.21.198-.444.268-.677a18.6 18.6 0 0 1 6.195 11.492c-.222 0-.455-.012-.677-.047-1.201-.163-2.321-.723-3.395-1.283s-2.17-1.144-3.371-1.365-2.544-.024-3.419.816z"/><path fill="#E6DDF7" d="M74.667 58.685c0 2.753-.595 5.378-1.669 7.723-.921-.361-1.925-.49-2.846-.84-.98-.361-1.949-1.073-2.159-2.1-.256-1.283.724-2.695.117-3.85-.408-.781-1.377-1.073-2.24-1.213-.875-.14-1.82-.257-2.45-.875-.863-.863-.665-2.427.222-3.267.875-.84 2.216-1.038 3.418-.816 1.202.221 2.287.805 3.372 1.365 1.073.56 2.193 1.12 3.395 1.283a4.3 4.3 0 0 0 .676.047c.117.828.175 1.68.175 2.543zM67.399 73.467A18.55 18.55 0 0 1 56 77.352c-.572 0-1.143-.024-1.703-.082.082-.175.163-.338.257-.513 1.668-3.115 5.401-4.982 8.89-4.445 1.364.21 2.648.735 3.954 1.143z"/><defs><clipPath id="a"><path fill="#fff" d="M0 47.434h32.25v32.25H0z"/></clipPath></defs></svg>