<svg xmlns="http://www.w3.org/2000/svg" width="362" height="360" fill="none"><rect width="182.606" height="346.98" x="90.209" y=".985" fill="#643E96" rx="24"/><rect width="166.273" height="311.917" x="98.418" y="9.377" fill="#fff" rx="16"/><path fill="#643E96" d="M181.502 49.73c-14.453 0-26.184 11.731-26.184 26.185s11.731 26.185 26.184 26.185 26.185-11.73 26.185-26.185-11.731-26.184-26.185-26.184m3.492 38.405v-5.237h-15.711V77.66h24.439c-2.915 3.491-5.813 6.983-8.728 10.474m8.728-13.965h-24.439c2.915-3.492 5.813-6.983 8.728-10.474v5.237h15.711z"/><circle cx="183.98" cy="335.143" r="6.654" fill="#C891C3"/><rect width="244" height="224" x="45.5" y="135.485" fill="#fff" rx="7.5"/><rect width="244" height="224" x="45.5" y="135.485" stroke="#E5E7EB" rx="7.5"/><path fill="#643E96" d="M77 154.985c-6.624 0-12 5.376-12 12s5.376 12 12 12 12-5.376 12-12-5.376-12-12-12m1.6 17.6v-2.4h-7.2v-2.4h11.2c-1.336 1.6-2.664 3.2-4 4.8m4-6.4H71.4c1.336-1.6 2.664-3.2 4-4.8v2.4h7.2z"/><path fill="#1E1F24" d="M66.2 198.265q0-.16.16-.16h1.568q.16 0 .16.16v5.12l4.112-5.152a.34.34 0 0 1 .256-.128h1.824q.08 0 .096.064.031.065-.032.144l-3.376 4.064 3.76 6.416q.112.192-.112.192H72.84a.27.27 0 0 1-.24-.128l-2.848-5.024-1.664 2.016v2.976q0 .16-.16.16H66.36q-.16 0-.16-.16zm14.498 10.72q-.16 0-.16-.16v-.56h-.016q-.273.4-.817.656-.543.24-1.36.24a3.5 3.5 0 0 1-1.007-.144 2.4 2.4 0 0 1-.816-.432 2.1 2.1 0 0 1-.56-.72q-.21-.448-.209-1.056 0-1.264.817-1.856.832-.592 2.272-.592h1.567q.096 0 .096-.096v-.368q0-.672-.367-.976-.369-.304-1.345-.304-.655 0-1.072.16a2.2 2.2 0 0 0-.687.368q-.145.112-.225-.032l-.591-1.056q-.08-.128.031-.208a3.9 3.9 0 0 1 1.12-.544q.657-.208 1.617-.208 1.76 0 2.48.64.736.64.736 2.048v5.04q0 .16-.16.16zm-1.904-1.28q.83 0 1.264-.32.447-.32.447-.992v-.592q0-.096-.096-.096h-1.28q-.864 0-1.264.256-.4.24-.4.784 0 .96 1.328.96m10.439 1.28q-.16 0-.16-.16v-.576h-.016a2 2 0 0 1-.769.656q-.495.256-1.28.256-.99 0-1.68-.464-.687-.464-.992-1.392a5.4 5.4 0 0 1-.207-.912 10 10 0 0 1-.065-1.264q0-.785.065-1.248.063-.48.207-.928.305-.929.993-1.392.687-.464 1.68-.464.783 0 1.28.256.495.256.767.656h.017v-3.744q0-.16.16-.16h1.471q.16 0 .16.16v10.56q0 .16-.16.16zm-1.76-1.424q1.119 0 1.44-.992a3.2 3.2 0 0 0 .112-.592 6 6 0 0 0 .047-.848 6 6 0 0 0-.047-.848 3.2 3.2 0 0 0-.113-.592q-.32-.992-1.44-.992-1.103 0-1.423.992a4.4 4.4 0 0 0-.129.592 9 9 0 0 0-.032.848q0 .528.032.848.048.32.129.592.32.992 1.423.992m5.886-7.744q-.16 0-.16-.16v-1.392q0-.16.16-.16h1.472q.16 0 .16.16v1.392q0 .16-.16.16zm0 9.168q-.16 0-.16-.16v-7.392q0-.16.16-.16h1.472q.16 0 .16.16v7.392q0 .16-.16.16zm3.677-3.456q-.16 0-.16-.16v-1.264q0-.16.16-.16h4.4q.16 0 .16.16v1.264q0 .16-.16.16zm13.682 3.632q-.609 0-1.184-.112a6.507 6.507 0 0 1-2.064-.752 4.8 4.8 0 0 1-.752-.576q-.129-.127-.032-.24l.992-1.152q.111-.128.224-.016.255.208.576.416.336.208.704.368.384.16.8.272.415.096.88.096.976 0 1.504-.432a1.41 1.41 0 0 0 .544-1.136 1.2 1.2 0 0 0-.432-.96q-.433-.384-1.552-.544l-.576-.08q-1.584-.224-2.432-.976-.848-.768-.848-2.128 0-.736.256-1.344t.736-1.04 1.152-.656q.687-.24 1.536-.24 1.024 0 1.936.304.927.288 1.584.784.111.096.032.224l-.768 1.184q-.096.127-.224.048a5.8 5.8 0 0 0-1.296-.64 4.1 4.1 0 0 0-1.312-.208q-.833 0-1.28.416-.432.4-.432 1.04 0 .56.448.944.448.368 1.552.528l.576.08q1.584.224 2.416.992.832.752.832 2.16 0 .72-.256 1.344a2.8 2.8 0 0 1-.784 1.072q-.512.448-1.28.704t-1.776.256m10.526-.176q-.16 0-.16-.16v-.56h-.016q-.272.4-.816.656-.543.24-1.36.24a3.5 3.5 0 0 1-1.008-.144 2.4 2.4 0 0 1-.816-.432 2.1 2.1 0 0 1-.56-.72 2.5 2.5 0 0 1-.208-1.056q0-1.264.816-1.856.832-.592 2.272-.592h1.568q.096 0 .096-.096v-.368q0-.672-.368-.976-.367-.304-1.344-.304-.655 0-1.072.16a2.2 2.2 0 0 0-.688.368q-.143.112-.224-.032l-.592-1.056q-.08-.128.032-.208.465-.336 1.12-.544.657-.208 1.616-.208 1.76 0 2.48.64.736.64.736 2.048v5.04q0 .16-.16.16zm-1.904-1.28q.832 0 1.264-.32.448-.32.448-.992v-.592q0-.096-.096-.096h-1.28q-.864 0-1.264.256-.4.24-.4.784 0 .96 1.328.96m7.767 1.376q-1.136 0-1.632-.544-.48-.544-.48-1.664v-8.608q0-.16.16-.16h1.472q.16 0 .16.16v8.512q0 .4.16.56.16.144.512.144h.352q.16 0 .16.16v1.28q0 .16-.16.16zm5.601.08q-1.185 0-2.032-.56-.832-.56-1.152-1.568a6 6 0 0 1-.192-.832 7.5 7.5 0 0 1-.064-1.072q0-.64.064-1.056.063-.432.192-.848.32-1.008 1.152-1.568.847-.56 2.032-.56 1.167 0 2 .56.847.56 1.168 1.568.128.416.192.848.064.415.064 1.056 0 .64-.064 1.072a6 6 0 0 1-.192.832 2.86 2.86 0 0 1-1.168 1.568q-.833.56-2 .56m0-1.6q.543 0 .896-.256a1.6 1.6 0 0 0 .544-.752q.095-.304.128-.608.032-.32.032-.816t-.032-.8a3.5 3.5 0 0 0-.128-.624 1.5 1.5 0 0 0-.544-.736q-.353-.272-.896-.272-.544 0-.912.272a1.5 1.5 0 0 0-.544.736 3.4 3.4 0 0 0-.128.624 8 8 0 0 0-.032.8q0 .496.032.816.032.304.128.608.175.48.544.752.368.256.912.256m10.231 1.424q-.16 0-.16-.16v-4.448q0-.752-.368-1.216t-1.088-.464q-.704 0-1.088.464t-.384 1.216v4.448q0 .16-.16.16h-1.472q-.16 0-.16-.16v-7.392q0-.16.16-.16h1.472q.16 0 .16.16v.56h.016q.255-.368.752-.624.512-.272 1.28-.272.624 0 1.104.224a2.4 2.4 0 0 1 1.376 1.504q.192.512.192 1.136v4.864q0 .16-.16.16z"/><path fill="#80828D" d="M67.964 222.433h-.024l-1.248.876q-.132.084-.132-.072v-1.224q0-.096.084-.168l1.308-.948a.32.32 0 0 1 .216-.072h1.02q.12 0 .12.12v7.92q0 .12-.12.12h-1.104q-.12 0-.12-.12zm7.358-1.488q0-.12.12-.12h1.104q.132 0 .204.12l3.324 5.628h.048v-5.628q0-.12.12-.12h1.044q.12 0 .12.12v7.92q0 .12-.12.12h-1.092a.23.23 0 0 1-.204-.12l-3.336-5.616h-.048v5.616q0 .12-.12.12h-1.044q-.12 0-.12-.12zm10.13 8.172q-.887 0-1.523-.42a2.16 2.16 0 0 1-.864-1.176 4.4 4.4 0 0 1-.144-.624 6 6 0 0 1-.048-.804q0-.48.048-.792.048-.324.144-.636.24-.756.864-1.176.636-.42 1.524-.42.876 0 1.5.42.636.42.876 1.176.096.312.144.636.048.312.048.792t-.048.804a4.4 4.4 0 0 1-.144.624q-.24.756-.876 1.176-.624.42-1.5.42m0-1.2q.41 0 .673-.192a1.2 1.2 0 0 0 .408-.564q.072-.228.096-.456.024-.24.024-.612a6 6 0 0 0-.024-.6 2.6 2.6 0 0 0-.096-.468 1.1 1.1 0 0 0-.408-.552q-.264-.204-.672-.204t-.684.204q-.276.192-.408.552-.072.24-.096.468a6 6 0 0 0-.024.6q0 .372.024.612.024.228.096.456.132.36.408.564.276.192.684.192m5.574 1.068q-.12 0-.156-.12l-2.04-5.544q-.036-.12.096-.12h1.176q.108 0 .144.12l1.272 3.756h.024l1.248-3.756q.036-.12.144-.12h1.152q.132 0 .096.12l-2.04 5.544q-.036.12-.156.12zm3.254-1.344q0-.12.12-.12h1.128q.12 0 .12.12v1.308a.6.6 0 0 1-.012.144.25.25 0 0 1-.072.108l-.996 1.032q-.084.084-.168.084-.12 0-.12-.12zm7.739-5.208h-.024l-1.248.876q-.132.084-.132-.072v-1.224q0-.096.084-.168l1.308-.948a.32.32 0 0 1 .216-.072h1.02q.12 0 .12.12v7.92q0 .12-.12.12h-1.104q-.12 0-.12-.12zm4.594 5.088a5 5 0 0 1-.072-.276 4 4 0 0 1-.06-.444 45.873 45.873 0 0 1-.036-1.896 44 44 0 0 1 .036-1.884 3.3 3.3 0 0 1 .132-.732q.24-.768.816-1.176.588-.42 1.5-.42t1.488.42q.588.408.84 1.176.036.132.072.288t.048.444q.024.276.036.732.012.444.012 1.152t-.012 1.164q-.012.444-.036.732a3 3 0 0 1-.048.444 5 5 0 0 1-.072.276q-.252.768-.84 1.188-.576.408-1.488.408t-1.5-.408q-.576-.42-.816-1.188m1.32-.252q.228.648.996.648t1.008-.648a.9.9 0 0 0 .048-.216 3 3 0 0 0 .036-.372q.012-.252.012-.672.012-.42.012-1.104t-.012-1.104q0-.42-.012-.672a3 3 0 0 0-.036-.372.9.9 0 0 0-.048-.216q-.24-.648-1.008-.648t-.996.648a1.4 1.4 0 0 0-.06.216q-.012.12-.024.372t-.024.672v2.208q.012.42.024.672t.024.372q.024.12.06.216m10.886 1.848q-1.056 0-1.812-.492-.756-.504-1.068-1.476a7 7 0 0 1-.108-.384 5 5 0 0 1-.06-.444 10 10 0 0 1-.036-.588 25 25 0 0 1-.012-.828q0-.48.012-.816.012-.348.036-.6t.06-.444q.048-.192.108-.384.312-.972 1.068-1.464.756-.504 1.812-.504 1.068 0 1.824.504.756.492 1.068 1.464.06.192.096.384.048.192.072.444t.036.6q.012.336.012.816t-.012.828q-.012.336-.036.588t-.072.444a3 3 0 0 1-.096.384q-.312.972-1.068 1.476-.756.492-1.824.492m0-1.272q.612 0 .984-.276.372-.288.54-.792.036-.108.06-.252t.036-.36q.024-.216.036-.516.012-.312.012-.744t-.012-.732a8 8 0 0 0-.036-.528 3 3 0 0 0-.036-.36 2 2 0 0 0-.06-.252 1.55 1.55 0 0 0-.54-.78q-.372-.288-.984-.288t-.984.288q-.36.276-.528.78a4 4 0 0 0-.072.252 7 7 0 0 0-.048.36q-.012.216-.024.528v1.476q.012.3.024.516.024.216.048.36.036.144.072.252.168.504.528.792.372.276.984.276m6.899 1.272q-.876 0-1.512-.408-.624-.408-.876-1.188-.18-.54-.18-1.428t.18-1.428q.252-.78.876-1.188.636-.408 1.512-.408.648 0 1.152.24t.852.66q.072.096-.012.168l-.756.66q-.096.072-.168-.024-.216-.24-.468-.372a1.23 1.23 0 0 0-.6-.132q-.384 0-.672.192-.276.18-.408.564-.072.216-.096.48a6 6 0 0 0-.024.588q0 .336.024.6t.096.48q.132.372.408.564.288.18.672.18.36 0 .6-.132.252-.132.468-.372.072-.084.168-.012l.756.66q.072.06.012.168a2.5 2.5 0 0 1-.852.648q-.504.24-1.152.24m5.131-.06q-.876 0-1.248-.42-.36-.42-.36-1.272v-3.048q0-.072-.072-.072h-.384q-.12 0-.12-.12v-.804q0-.12.12-.12h.384q.072 0 .072-.072v-1.584q0-.12.12-.12h1.104q.12 0 .12.12v1.584q0 .072.072.072h.768q.12 0 .12.12v.804q0 .12-.12.12h-.768q-.072 0-.072.072v3q0 .312.132.432.132.108.408.108h.3q.12 0 .12.12v.96q0 .12-.12.12zm7.088-6.624h-.024l-1.248.876q-.132.084-.132-.072v-1.224q0-.096.084-.168l1.308-.948a.32.32 0 0 1 .216-.072h1.02q.12 0 .12.12v7.92q0 .12-.12.12h-1.104q-.12 0-.12-.12zm4.594 5.088a5 5 0 0 1-.072-.276 4 4 0 0 1-.06-.444 45.873 45.873 0 0 1-.036-1.896 44 44 0 0 1 .036-1.884 3.3 3.3 0 0 1 .132-.732q.24-.768.816-1.176.588-.42 1.5-.42t1.488.42q.588.408.84 1.176.036.132.072.288t.048.444q.024.276.036.732.012.444.012 1.152t-.012 1.164q-.012.444-.036.732a3 3 0 0 1-.048.444 5 5 0 0 1-.072.276q-.252.768-.84 1.188-.576.408-1.488.408t-1.5-.408q-.576-.42-.816-1.188m1.32-.252q.228.648.996.648t1.008-.648a.9.9 0 0 0 .048-.216 3 3 0 0 0 .036-.372q.012-.252.012-.672.012-.42.012-1.104t-.012-1.104q0-.42-.012-.672a3 3 0 0 0-.036-.372.9.9 0 0 0-.048-.216q-.24-.648-1.008-.648t-.996.648a1.4 1.4 0 0 0-.06.216q-.012.12-.024.372t-.024.672v2.208q.012.42.024.672t.024.372q.024.12.06.216m5.254-2.604q-.12 0-.12-.12v-1.224q0-.12.12-.12h1.2q.12 0 .12.12v1.224q0 .12-.12.12zm-.12 2.976q0-.12.12-.12h1.2q.12 0 .12.12v1.224q0 .12-.12.12h-1.2q-.12 0-.12-.12zm3.141.324q0-.096.06-.156l2.88-3.588q.24-.3.384-.6t.144-.648q0-.456-.288-.768-.276-.312-.792-.312-.492 0-.768.276t-.336.744q-.024.12-.132.096l-1.056-.216q-.12-.024-.096-.144a2.1 2.1 0 0 1 .672-1.332q.3-.288.732-.456a2.9 2.9 0 0 1 1.02-.168q.576 0 1.02.18t.744.492q.312.3.468.72.168.408.168.888 0 .552-.204 1.02-.204.456-.564.888l-2.376 2.88v.024h3.024q.12 0 .12.12v.96q0 .12-.12.12h-4.584q-.12 0-.12-.12zm6.694-.444a5 5 0 0 1-.072-.276 4 4 0 0 1-.06-.444 45.873 45.873 0 0 1-.036-1.896 44 44 0 0 1 .036-1.884 3.3 3.3 0 0 1 .132-.732q.24-.768.816-1.176.588-.42 1.5-.42t1.488.42q.588.408.84 1.176.036.132.072.288t.048.444q.024.276.036.732.012.444.012 1.152t-.012 1.164q-.012.444-.036.732a3 3 0 0 1-.048.444 5 5 0 0 1-.072.276q-.252.768-.84 1.188-.576.408-1.488.408t-1.5-.408q-.576-.42-.816-1.188m1.32-.252q.228.648.996.648t1.008-.648a.9.9 0 0 0 .048-.216 3 3 0 0 0 .036-.372q.012-.252.012-.672.012-.42.012-1.104t-.012-1.104q0-.42-.012-.672a3 3 0 0 0-.036-.372.9.9 0 0 0-.048-.216q-.24-.648-1.008-.648t-.996.648a1.4 1.4 0 0 0-.06.216q-.012.12-.024.372t-.024.672v2.208q.012.42.024.672t.024.372q.024.12.06.216m10.142-6.324q.036-.12.156-.12h1.104q.12 0 .156.12l2.76 7.92q.036.12-.084.12h-1.176q-.12 0-.156-.12l-.54-1.584h-3.072l-.54 1.584q-.036.12-.156.12h-1.164q-.12 0-.084-.12zm1.788 5.076-1.08-3.168h-.036l-1.092 3.168zm3.506-5.076q0-.12.12-.12h1.068q.156 0 .204.12l2.244 5.028h.048l2.208-5.028q.048-.12.204-.12h1.056q.12 0 .12.12v7.92q0 .12-.12.12h-1.044q-.12 0-.12-.12v-4.992h-.048l-1.728 3.84q-.072.156-.228.156h-.696q-.156 0-.228-.156l-1.728-3.84h-.048v4.992q0 .12-.12.12h-1.044q-.12 0-.12-.12zM186.792 227.641q0-.12.12-.12h1.2q.12 0 .12.12v1.224q0 .12-.12.12h-1.2q-.12 0-.12-.12z"/><path fill="#00C165" d="M193.02 228.985q-.12 0-.12-.12v-7.92q0-.12.12-.12h3.06q.588 0 1.08.192.504.18.852.516.36.324.552.792.204.468.204 1.032 0 .576-.204 1.044-.192.468-.552.804a2.6 2.6 0 0 1-.852.516q-.492.18-1.08.18h-1.692q-.072 0-.072.072v2.892q0 .12-.12.12zm2.976-4.368q.636 0 .996-.336.36-.348.36-.924 0-.564-.36-.912t-.996-.348h-1.608q-.072 0-.072.072v2.376q0 .072.072.072zm7.285 4.368q-.12 0-.12-.12v-.42h-.012q-.204.3-.612.492-.408.18-1.02.18-.396 0-.756-.108a1.8 1.8 0 0 1-.612-.324 1.6 1.6 0 0 1-.42-.54 1.9 1.9 0 0 1-.156-.792q0-.948.612-1.392.624-.444 1.704-.444h1.176q.072 0 .072-.072v-.276q0-.504-.276-.732t-1.008-.228q-.492 0-.804.12-.312.108-.516.276-.108.084-.168-.024l-.444-.792q-.06-.096.024-.156.348-.252.84-.408t1.212-.156q1.32 0 1.86.48.552.48.552 1.536v3.78q0 .12-.12.12zm-1.428-.96q.624 0 .948-.24.336-.24.336-.744v-.444q0-.072-.072-.072h-.96q-.648 0-.948.192-.3.18-.3.588 0 .72.996.72m4.385-5.916q-.12 0-.12-.12v-1.044q0-.12.12-.12h1.104q.12 0 .12.12v1.044q0 .12-.12.12zm0 6.876q-.12 0-.12-.12v-5.544q0-.12.12-.12h1.104q.12 0 .12.12v5.544q0 .12-.12.12zm6.538 0q-.12 0-.12-.12v-.432h-.012q-.204.3-.576.492t-.96.192q-.744 0-1.26-.348t-.744-1.044a4 4 0 0 1-.156-.684 8 8 0 0 1-.048-.948q0-.588.048-.936.048-.36.156-.696.228-.696.744-1.044t1.26-.348q.588 0 .96.192t.576.492h.012v-2.808q0-.12.12-.12h1.104q.12 0 .12.12v7.92q0 .12-.12.12zm-1.32-1.068q.84 0 1.08-.744a2.4 2.4 0 0 0 .084-.444q.036-.24.036-.636t-.036-.636a2.4 2.4 0 0 0-.084-.444q-.24-.744-1.08-.744-.828 0-1.068.744-.06.204-.096.444-.024.24-.024.636t.024.636q.036.24.096.444.24.744 1.068.744"/><path fill="#344767" d="M66.05 251.605q0-.14.14-.14h1.372q.14 0 .14.14v3.752q0 .084.084.084h3.626q.084 0 .084-.084v-3.752q0-.14.14-.14h1.372q.14 0 .14.14v9.24q0 .14-.14.14h-1.372q-.14 0-.14-.14v-3.836q0-.084-.084-.084h-3.626q-.084 0-.084.084v3.836q0 .14-.14.14H66.19q-.14 0-.14-.14zm13.191 9.38q-.14 0-.14-.14v-.49h-.014q-.239.35-.714.574-.476.21-1.19.21-.462 0-.882-.126a2.1 2.1 0 0 1-.714-.378 1.8 1.8 0 0 1-.49-.63 2.2 2.2 0 0 1-.182-.924q0-1.106.714-1.624.728-.518 1.988-.518h1.372q.084 0 .084-.084v-.322q0-.588-.322-.854-.323-.266-1.176-.266-.574 0-.938.14a1.9 1.9 0 0 0-.602.322q-.127.098-.196-.028l-.518-.924q-.07-.112.028-.182.405-.294.98-.476.574-.182 1.414-.182 1.54 0 2.17.56.644.56.644 1.792v4.41q0 .14-.14.14zm-1.666-1.12q.729 0 1.106-.28.392-.28.392-.868v-.518q0-.084-.084-.084h-1.12q-.756 0-1.106.224-.35.21-.35.686 0 .84 1.162.84m5.116-6.902q-.14 0-.14-.14v-1.218q0-.14.14-.14h1.288q.14 0 .14.14v1.218q0 .14-.14.14zm0 8.022q-.14 0-.14-.14v-6.468q0-.14.14-.14h1.288q.14 0 .14.14v6.468q0 .14-.14.14zm3.61 0q-.14 0-.14-.14v-6.468q0-.14.14-.14h1.288q.14 0 .14.14v.574h.014q.237-.392.672-.63.433-.238 1.078-.238.405 0 .77.154.377.14.644.406.097.098.028.196l-.742.938q-.084.112-.196.028a2.3 2.3 0 0 0-.476-.238 1.6 1.6 0 0 0-.518-.084q-.672 0-.98.448-.294.448-.294 1.26v3.654q0 .14-.14.14zm9.088-2.184a10 10 0 0 1-.126-.434 6 6 0 0 1-.07-.504q-.028-.294-.042-.672-.015-.392-.014-.966 0-.56.014-.952t.042-.672q.028-.294.07-.504a8 8 0 0 1 .126-.448q.364-1.176 1.218-1.75.868-.588 2.086-.588 1.149 0 1.974.546.84.546 1.246 1.498.042.126-.07.168l-1.19.574q-.126.07-.182-.07a2.6 2.6 0 0 0-.658-.868q-.406-.364-1.12-.364-.686 0-1.106.336-.405.336-.602.924l-.084.308a6 6 0 0 0-.056.406q-.015.238-.028.588v1.75l.028.588q.028.238.056.406.042.155.084.294.196.588.602.924.42.336 1.106.336.715 0 1.12-.364.42-.364.658-.868.056-.14.182-.07l1.19.574q.112.042.07.168a3.27 3.27 0 0 1-1.246 1.498q-.826.546-1.974.546-1.218 0-2.086-.574-.854-.588-1.218-1.764m10.699 2.338q-1.036 0-1.778-.49a2.52 2.52 0 0 1-1.008-1.372 5 5 0 0 1-.168-.728 7 7 0 0 1-.056-.938q0-.56.056-.924.056-.378.168-.742a2.52 2.52 0 0 1 1.008-1.372q.742-.49 1.778-.49 1.022 0 1.75.49.742.49 1.022 1.372.112.364.168.742.056.364.056.924t-.056.938a5 5 0 0 1-.168.728 2.5 2.5 0 0 1-1.022 1.372q-.728.49-1.75.49m0-1.4q.476 0 .784-.224.322-.238.476-.658.084-.266.112-.532.028-.28.028-.714t-.028-.7a3 3 0 0 0-.112-.546 1.3 1.3 0 0 0-.476-.644q-.308-.238-.784-.238-.475 0-.798.238a1.3 1.3 0 0 0-.476.644 3 3 0 0 0-.112.546 7 7 0 0 0-.028.7q0 .433.028.714.028.266.112.532.154.42.476.658.322.224.798.224m6.502 1.33q-.995 0-1.428-.476-.42-.476-.42-1.456v-7.532q0-.14.14-.14h1.288q.14 0 .14.14v7.448q0 .35.14.49.14.126.448.126h.308q.14 0 .14.14v1.12q0 .14-.14.14zm4.9.07q-1.035 0-1.778-.49a2.52 2.52 0 0 1-1.008-1.372 5 5 0 0 1-.168-.728 7 7 0 0 1-.056-.938q0-.56.056-.924.057-.378.168-.742a2.52 2.52 0 0 1 1.008-1.372q.743-.49 1.778-.49 1.023 0 1.75.49.743.49 1.022 1.372.112.364.168.742.056.364.056.924t-.056.938a5 5 0 0 1-.168.728 2.5 2.5 0 0 1-1.022 1.372q-.727.49-1.75.49m0-1.4q.477 0 .784-.224.323-.238.476-.658.084-.266.112-.532.028-.28.028-.714t-.028-.7a3 3 0 0 0-.112-.546 1.3 1.3 0 0 0-.476-.644q-.307-.238-.784-.238-.475 0-.798.238a1.3 1.3 0 0 0-.476.644 3 3 0 0 0-.112.546 7 7 0 0 0-.028.7q0 .433.028.714.028.266.112.532.155.42.476.658.322.224.798.224m4.822 1.246q-.14 0-.14-.14v-6.468q0-.14.14-.14h1.288q.14 0 .14.14v.574h.014q.239-.392.672-.63.435-.238 1.078-.238.407 0 .77.154.378.14.644.406.099.098.028.196l-.742.938q-.084.112-.196.028a2.2 2.2 0 0 0-.476-.238 1.5 1.5 0 0 0-.518-.084q-.672 0-.98.448-.294.448-.294 1.26v3.654q0 .14-.14.14z"/><path fill="#27272A" d="M223.054 252.907v-.042h-2.366q-.084 0-.084.084v1.092q0 .14-.14.14h-1.204q-.14 0-.14-.14v-2.436q0-.14.14-.14h5.334q.14 0 .14.14v1.092a.6.6 0 0 1-.042.252l-3.15 7.91a.2.2 0 0 1-.07.098q-.028.028-.112.028h-1.33q-.155 0-.084-.154zm3.764 6.272q-.029-.126.112-.168l1.19-.294q.126-.014.168.112.14.406.462.658.321.252.854.252.405 0 .728-.196.321-.21.448-.588.07-.196.098-.434.028-.252.028-.616 0-.392-.028-.63a1.8 1.8 0 0 0-.098-.42q-.141-.42-.462-.602a1.46 1.46 0 0 0-.728-.182q-.477 0-.77.21-.28.21-.392.448-.057.14-.168.14h-1.176q-.14 0-.14-.14v-5.124q0-.14.14-.14h5.068q.14 0 .14.14v1.12q0 .14-.14.14h-3.682q-.084 0-.084.084v2.142h.042q.167-.14.518-.28.363-.14.882-.14.924 0 1.554.42.644.406.896 1.19.097.307.154.672.056.364.056.952 0 .91-.196 1.498-.28.84-1.008 1.288-.729.448-1.68.448-.546 0-1.022-.14a2.9 2.9 0 0 1-.84-.392 2.5 2.5 0 0 1-.602-.616 2.2 2.2 0 0 1-.322-.812m7.683.098a5 5 0 0 1-.084-.322 5 5 0 0 1-.07-.518 55.137 55.137 0 0 1-.042-2.212 53 53 0 0 1 .042-2.198 4 4 0 0 1 .154-.854q.28-.896.952-1.372.687-.49 1.75-.49 1.065 0 1.736.49.687.476.98 1.372.042.154.084.336t.056.518q.029.322.042.854.014.518.014 1.344t-.014 1.358q-.013.518-.042.854a3 3 0 0 1-.056.518 5 5 0 0 1-.084.322q-.293.895-.98 1.386-.672.476-1.736.476-1.063 0-1.75-.476-.672-.49-.952-1.386m1.54-.294q.267.756 1.162.756.897 0 1.176-.756a1 1 0 0 0 .056-.252q.029-.14.042-.434.015-.294.014-.784.015-.49.014-1.288t-.014-1.288q0-.49-.014-.784a3 3 0 0 0-.042-.434 1 1 0 0 0-.056-.252q-.279-.756-1.176-.756-.895 0-1.162.756a2 2 0 0 0-.07.252 11 11 0 0 0-.028.434 55 55 0 0 0-.028.784v2.576q.015.49.028.784.015.294.028.434.028.14.07.252m12.364 2.156q-.531 0-1.036-.098a6.4 6.4 0 0 1-.966-.266 6 6 0 0 1-.84-.392 4.3 4.3 0 0 1-.658-.504q-.112-.112-.028-.21l.868-1.008q.099-.112.196-.014.225.182.504.364.294.182.616.322.337.14.7.238.365.084.77.084.855 0 1.316-.378a1.23 1.23 0 0 0 .476-.994q0-.518-.378-.84-.377-.336-1.358-.476l-.504-.07q-1.386-.196-2.128-.854-.742-.672-.742-1.862 0-.643.224-1.176.225-.532.644-.91t1.008-.574q.603-.21 1.344-.21.897 0 1.694.266a4.5 4.5 0 0 1 1.386.686q.099.084.028.196l-.672 1.036q-.084.112-.196.042a5 5 0 0 0-1.134-.56 3.6 3.6 0 0 0-1.148-.182q-.727 0-1.12.364-.378.35-.378.91 0 .49.392.826.392.323 1.358.462l.504.07q1.386.196 2.114.868.728.659.728 1.89 0 .63-.224 1.176a2.4 2.4 0 0 1-.686.938 3.2 3.2 0 0 1-1.12.616q-.672.224-1.554.224m7.589-9.534q.042-.14.182-.14h1.288q.14 0 .182.14l3.22 9.24q.043.14-.098.14h-1.372q-.14 0-.182-.14l-.63-1.848H255l-.63 1.848q-.041.14-.182.14h-1.358q-.14 0-.098-.14zm2.086 5.922-1.26-3.696h-.042l-1.274 3.696zm9.495 3.458q-.155 0-.21-.14l-1.82-3.71h-1.638q-.084 0-.084.084v3.626q0 .14-.14.14h-1.372q-.14 0-.14-.14v-9.24q0-.14.14-.14h3.682q.658 0 1.204.21.56.21.966.588.407.364.63.896.238.518.238 1.148 0 .938-.49 1.624a2.76 2.76 0 0 1-1.316.994l2.002 3.878q.042.07 0 .126-.028.056-.098.056zm-1.638-5.334q.659 0 1.05-.364.406-.364.406-.98 0-.63-.406-.994-.392-.364-1.05-.364h-2.03q-.084 0-.084.084v2.534q0 .084.084.084z"/><path fill="#344767" d="M66.022 290.801a10 10 0 0 1-.126-.434 6 6 0 0 1-.07-.504q-.029-.294-.042-.672-.014-.392-.014-.966 0-.56.014-.952t.042-.672q.028-.294.07-.504a8 8 0 0 1 .126-.448q.365-1.176 1.218-1.75.868-.588 2.086-.588 1.148 0 1.974.546.84.546 1.246 1.498.042.126-.07.168l-1.19.574q-.126.07-.182-.07a2.6 2.6 0 0 0-.658-.868q-.405-.364-1.12-.364-.686 0-1.106.336-.405.336-.602.924l-.084.308a6 6 0 0 0-.056.406q-.015.239-.028.588v1.75l.028.588q.028.238.056.406.042.155.084.294.195.588.602.924.42.336 1.106.336.714 0 1.12-.364.42-.364.658-.868.056-.14.182-.07l1.19.574q.112.042.07.168a3.27 3.27 0 0 1-1.246 1.498q-.826.546-1.974.546-1.218 0-2.086-.574-.854-.588-1.218-1.764m10.699 2.338q-1.036 0-1.778-.49a2.52 2.52 0 0 1-1.008-1.372 5 5 0 0 1-.168-.728 6.6 6.6 0 0 1-.056-.938q0-.56.056-.924.056-.378.168-.742a2.52 2.52 0 0 1 1.008-1.372q.741-.49 1.778-.49 1.021 0 1.75.49.741.49 1.022 1.372.111.364.168.742.056.364.056.924t-.056.938a5 5 0 0 1-.168.728 2.5 2.5 0 0 1-1.022 1.372q-.729.49-1.75.49m0-1.4q.475 0 .784-.224.321-.238.476-.658.084-.266.112-.532.028-.28.028-.714t-.028-.7a3 3 0 0 0-.112-.546 1.3 1.3 0 0 0-.476-.644q-.309-.238-.784-.238-.477 0-.798.238a1.3 1.3 0 0 0-.476.644 3 3 0 0 0-.112.546 7 7 0 0 0-.028.7q0 .433.028.714.028.266.112.532.153.42.476.658.321.224.798.224m8.826 1.246q-.14 0-.14-.14v-.49h-.014q-.28.35-.7.574-.405.21-1.05.21-.546 0-.98-.182a2.3 2.3 0 0 1-.728-.532 2.5 2.5 0 0 1-.462-.784 3.2 3.2 0 0 1-.154-1.008v-4.256q0-.14.14-.14h1.288q.14 0 .14.14v3.892q0 .658.308 1.064t.952.406q.602 0 .924-.406.336-.406.336-1.05v-3.906q0-.14.14-.14h1.288q.14 0 .14.14v6.468q0 .14-.14.14zm3.611 2.52q-.14 0-.14-.14v-8.988q0-.14.14-.14h1.288q.14 0 .14.14v.504h.014q.239-.35.672-.574.435-.224 1.12-.224.869 0 1.47.406t.868 1.218q.126.392.182.812.056.407.056 1.092 0 .686-.056 1.106a4.7 4.7 0 0 1-.182.798q-.266.812-.868 1.218-.601.406-1.47.406-.685 0-1.12-.224a1.8 1.8 0 0 1-.672-.574h-.014v3.024q0 .14-.14.14zm2.828-3.766q.966 0 1.246-.868.07-.238.098-.518.042-.28.042-.742t-.042-.742a3 3 0 0 0-.098-.518q-.28-.868-1.246-.868-.98 0-1.26.868a4 4 0 0 0-.112.518 8 8 0 0 0-.028.742q0 .462.028.742.042.28.112.518.28.868 1.26.868m7.307 1.4q-1.035 0-1.778-.49a2.52 2.52 0 0 1-1.008-1.372 5 5 0 0 1-.168-.728 6.6 6.6 0 0 1-.056-.938q0-.56.056-.924.056-.378.168-.742a2.52 2.52 0 0 1 1.008-1.372q.742-.49 1.778-.49 1.022 0 1.75.49.742.49 1.022 1.372.112.364.168.742.056.364.056.924t-.056.938a5 5 0 0 1-.168.728 2.5 2.5 0 0 1-1.022 1.372q-.728.49-1.75.49m0-1.4q.476 0 .784-.224.322-.238.476-.658.084-.266.112-.532.028-.28.028-.714t-.028-.7a3 3 0 0 0-.112-.546 1.3 1.3 0 0 0-.476-.644q-.308-.238-.784-.238-.475 0-.798.238a1.3 1.3 0 0 0-.476.644 3 3 0 0 0-.112.546 7 7 0 0 0-.028.7q0 .433.028.714.028.266.112.532.154.42.476.658.322.224.798.224m8.952 1.246q-.14 0-.14-.14v-3.892q0-.658-.322-1.064t-.952-.406q-.616 0-.952.406t-.336 1.064v3.892q0 .14-.14.14h-1.288q-.14 0-.14-.14v-6.468q0-.14.14-.14h1.288q.14 0 .14.14v.49h.014q.224-.322.658-.546.448-.238 1.12-.238.546 0 .966.196.434.182.742.518t.462.798q.168.448.168.994v4.256q0 .14-.14.14z"/><path fill="#DE0404" d="M216.77 289.961q-.14 0-.14-.14v-1.106q0-.14.14-.14h3.85q.14 0 .14.14v1.106q0 .14-.14.14zm8.075-4.62h-.028l-1.456 1.022q-.154.098-.154-.084v-1.428a.25.25 0 0 1 .098-.196l1.526-1.106a.37.37 0 0 1 .252-.084h1.19q.14 0 .14.14v9.24q0 .14-.14.14h-1.288q-.14 0-.14-.14zm5.359 5.936a5 5 0 0 1-.084-.322 5 5 0 0 1-.07-.518 55.137 55.137 0 0 1-.042-2.212 53 53 0 0 1 .042-2.198 4 4 0 0 1 .154-.854q.28-.896.952-1.372.687-.49 1.75-.49 1.065 0 1.736.49.687.476.98 1.372.042.154.084.336t.056.518q.029.322.042.854.015.518.014 1.344t-.014 1.358q-.013.518-.042.854a3 3 0 0 1-.056.518 5 5 0 0 1-.084.322q-.293.895-.98 1.386-.672.476-1.736.476-1.063 0-1.75-.476-.672-.49-.952-1.386m1.54-.294q.267.756 1.162.756.897 0 1.176-.756a1 1 0 0 0 .056-.252q.028-.14.042-.434t.014-.784q.015-.49.014-1.288t-.014-1.288q0-.49-.014-.784a3 3 0 0 0-.042-.434 1 1 0 0 0-.056-.252q-.279-.756-1.176-.756-.895 0-1.162.756a2 2 0 0 0-.07.252 11 11 0 0 0-.028.434 55 55 0 0 0-.028.784v2.576q.015.49.028.784.015.294.028.434.028.14.07.252m6.144.294a5 5 0 0 1-.084-.322 5 5 0 0 1-.07-.518 55.137 55.137 0 0 1-.042-2.212 53 53 0 0 1 .042-2.198 4 4 0 0 1 .154-.854q.28-.896.952-1.372.686-.49 1.75-.49t1.736.49q.686.476.98 1.372.042.154.084.336t.056.518q.028.322.042.854.014.518.014 1.344t-.014 1.358q-.014.518-.042.854a3 3 0 0 1-.056.518 5 5 0 0 1-.084.322q-.294.895-.98 1.386-.672.476-1.736.476t-1.75-.476q-.672-.49-.952-1.386m1.54-.294q.266.756 1.162.756t1.176-.756a1 1 0 0 0 .056-.252q.028-.14.042-.434t.014-.784q.014-.49.014-1.288t-.014-1.288q0-.49-.014-.784a3 3 0 0 0-.042-.434 1 1 0 0 0-.056-.252q-.28-.756-1.176-.756t-1.162.756a2 2 0 0 0-.07.252 9 9 0 0 0-.028.434 43 43 0 0 0-.028.784v2.576q.014.49.028.784t.028.434q.028.14.07.252m9.056 2.156q-.532 0-1.036-.098a5.783 5.783 0 0 1-1.806-.658 4.2 4.2 0 0 1-.658-.504q-.112-.112-.028-.21l.868-1.008q.097-.112.196-.014.224.182.504.364.294.182.616.322.336.14.7.238.363.084.77.084.854 0 1.316-.378.476-.392.476-.994 0-.518-.378-.84-.378-.336-1.358-.476l-.504-.07q-1.387-.196-2.128-.854-.742-.672-.742-1.862 0-.643.224-1.176a2.5 2.5 0 0 1 .644-.91q.42-.378 1.008-.574.601-.21 1.344-.21.896 0 1.694.266a4.5 4.5 0 0 1 1.386.686q.097.084.028.196l-.672 1.036q-.085.112-.196.042a5 5 0 0 0-1.134-.56 3.6 3.6 0 0 0-1.148-.182q-.729 0-1.12.364-.378.35-.378.91 0 .49.392.826.392.322 1.358.462l.504.07q1.385.196 2.114.868.728.659.728 1.89 0 .63-.224 1.176t-.686.938a3.2 3.2 0 0 1-1.12.616q-.672.224-1.554.224m7.589-9.534q.042-.14.182-.14h1.288q.14 0 .182.14l3.22 9.24q.042.14-.098.14h-1.372q-.14 0-.182-.14l-.63-1.848h-3.584l-.63 1.848q-.042.14-.182.14h-1.358q-.14 0-.098-.14zm2.086 5.922-1.26-3.696h-.042l-1.274 3.696zm9.494 3.458a.21.21 0 0 1-.21-.14l-1.82-3.71h-1.638q-.084 0-.084.084v3.626q0 .14-.14.14h-1.372q-.14 0-.14-.14v-9.24q0-.14.14-.14h3.682q.658 0 1.204.21.561.21.966.588.407.364.63.896.238.518.238 1.148 0 .938-.49 1.624a2.76 2.76 0 0 1-1.316.994l2.002 3.878q.042.07 0 .126-.027.056-.098.056zm-1.638-5.334q.659 0 1.05-.364.406-.364.406-.98 0-.63-.406-.994-.392-.364-1.05-.364h-2.03q-.084 0-.084.084v2.534q0 .084.084.084z"/><path stroke="#E5E7EB" d="M65 307.485h205"/><path fill="#344767" d="M68.164 336.985q-.14 0-.14-.14v-7.812q0-.084-.084-.084h-2.492q-.14 0-.14-.14v-1.204q0-.14.14-.14h6.804q.14 0 .14.14v1.204q0 .14-.14.14H69.76q-.084 0-.084.084v7.812q0 .14-.14.14zm8.201.154q-1.035 0-1.778-.49a2.52 2.52 0 0 1-1.008-1.372 5 5 0 0 1-.168-.728 6.6 6.6 0 0 1-.056-.938q0-.56.056-.924.057-.378.168-.742a2.52 2.52 0 0 1 1.008-1.372q.743-.49 1.778-.49 1.023 0 1.75.49.743.49 1.022 1.372.112.364.168.742.056.364.056.924t-.056.938a5 5 0 0 1-.168.728 2.5 2.5 0 0 1-1.022 1.372q-.727.49-1.75.49m0-1.4q.477 0 .784-.224a1.4 1.4 0 0 0 .476-.658q.084-.266.112-.532.028-.28.028-.714t-.028-.7a3 3 0 0 0-.112-.546 1.3 1.3 0 0 0-.476-.644q-.307-.238-.784-.238-.475 0-.798.238a1.3 1.3 0 0 0-.476.644 3 3 0 0 0-.112.546 7 7 0 0 0-.028.7q0 .433.028.714.028.266.112.532.155.42.476.658.322.224.798.224m6.656 1.33q-1.02 0-1.456-.49-.42-.49-.42-1.484v-3.556q0-.084-.084-.084h-.448q-.14 0-.14-.14v-.938q0-.14.14-.14h.448q.084 0 .084-.084v-1.848q0-.14.14-.14h1.288q.14 0 .14.14v1.848q0 .084.084.084h.896q.14 0 .14.14v.938q0 .14-.14.14h-.896q-.084 0-.084.084v3.5q0 .365.154.504.155.126.476.126h.35q.14 0 .14.14v1.12q0 .14-.14.14zm6.542-.084q-.14 0-.14-.14v-.49h-.014q-.237.35-.714.574-.476.21-1.19.21-.462 0-.882-.126a2.1 2.1 0 0 1-.714-.378 1.8 1.8 0 0 1-.49-.63 2.2 2.2 0 0 1-.182-.924q0-1.106.714-1.624.728-.518 1.988-.518h1.372q.084 0 .084-.084v-.322q0-.588-.322-.854-.321-.266-1.176-.266-.573 0-.938.14a1.9 1.9 0 0 0-.602.322q-.126.098-.196-.028l-.518-.924q-.07-.112.028-.182.407-.294.98-.476.574-.182 1.414-.182 1.54 0 2.17.56.645.56.644 1.792v4.41q0 .14-.14.14zm-1.666-1.12q.729 0 1.106-.28.392-.28.392-.868v-.518q0-.084-.084-.084h-1.12q-.755 0-1.106.224-.35.21-.35.686 0 .84 1.162.84m6.797 1.204q-.995 0-1.428-.476-.42-.476-.42-1.456v-7.532q0-.14.14-.14h1.288q.14 0 .14.14v7.448q0 .35.14.49.14.126.448.126h.308q.14 0 .14.14v1.12q0 .14-.14.14z"/><path fill="#27272A" d="M213.458 329.341h-.028l-1.456 1.022q-.154.098-.154-.084v-1.428q0-.112.098-.196l1.526-1.106a.37.37 0 0 1 .252-.084h1.19q.14 0 .14.14v9.24q0 .14-.14.14h-1.288q-.14 0-.14-.14zm5.01 6.188q-.14 0-.14-.14v-1.078q0-.098.042-.168l3.08-6.566q.055-.112.196-.112h1.33q.153 0 .098.126l-3.024 6.51v.028h2.156q.084 0 .084-.084v-2.38q0-.14.14-.14h1.288q.14 0 .14.14v2.38q0 .084.084.084h.7q.14 0 .14.14v1.12q0 .14-.14.14h-.7q-.084 0-.084.084v1.232q0 .14-.14.14h-1.288q-.14 0-.14-.14v-1.232q0-.084-.084-.084zm8.033-.252a5 5 0 0 1-.084-.322 5 5 0 0 1-.07-.518 55.137 55.137 0 0 1-.042-2.212 53 53 0 0 1 .042-2.198 4 4 0 0 1 .154-.854q.28-.896.952-1.372.687-.49 1.75-.49 1.065 0 1.736.49.687.476.98 1.372.042.154.084.336t.056.518q.029.322.042.854.014.518.014 1.344t-.014 1.358q-.013.518-.042.854a3 3 0 0 1-.056.518 5 5 0 0 1-.084.322q-.293.895-.98 1.386-.672.476-1.736.476-1.063 0-1.75-.476-.672-.49-.952-1.386m1.54-.294q.267.756 1.162.756.897 0 1.176-.756a1 1 0 0 0 .056-.252q.029-.14.042-.434.015-.294.014-.784.015-.49.014-1.288t-.014-1.288q0-.49-.014-.784a3 3 0 0 0-.042-.434 1 1 0 0 0-.056-.252q-.279-.756-1.176-.756-.895 0-1.162.756a2 2 0 0 0-.07.252 11 11 0 0 0-.028.434 55 55 0 0 0-.028.784v2.576q.015.49.028.784.015.294.028.434.028.14.07.252m6.144.294a5 5 0 0 1-.084-.322 4 4 0 0 1-.07-.518 49 49 0 0 1-.042-2.212 49 49 0 0 1 .042-2.198 3.8 3.8 0 0 1 .154-.854q.28-.896.952-1.372.685-.49 1.75-.49t1.736.49q.686.476.98 1.372.042.154.084.336.041.182.056.518.027.322.042.854.014.518.014 1.344t-.014 1.358q-.015.518-.042.854a3.3 3.3 0 0 1-.056.518 5 5 0 0 1-.084.322q-.294.895-.98 1.386-.672.476-1.736.476t-1.75-.476q-.672-.49-.952-1.386m1.54-.294q.265.756 1.162.756t1.176-.756q.041-.113.056-.252.027-.14.042-.434.014-.294.014-.784.014-.49.014-1.288t-.014-1.288q0-.49-.014-.784a3.4 3.4 0 0 0-.042-.434 1 1 0 0 0-.056-.252q-.28-.756-1.176-.756-.897 0-1.162.756a1.6 1.6 0 0 0-.07.252q-.015.14-.028.434-.015.294-.028.784v2.576q.013.49.028.784.013.294.028.434.028.14.07.252m12.364 2.156q-.532 0-1.036-.098a5.783 5.783 0 0 1-1.806-.658 4.3 4.3 0 0 1-.658-.504q-.112-.112-.028-.21l.868-1.008q.098-.112.196-.014.224.182.504.364.294.182.616.322.336.14.7.238.364.084.77.084.854 0 1.316-.378.476-.392.476-.994 0-.518-.378-.84-.378-.336-1.358-.476l-.504-.07q-1.386-.196-2.128-.854-.742-.672-.742-1.862 0-.643.224-1.176a2.5 2.5 0 0 1 .644-.91q.42-.378 1.008-.574.602-.21 1.344-.21.896 0 1.694.266a4.5 4.5 0 0 1 1.386.686q.098.084.028.196l-.672 1.036q-.084.112-.196.042a5 5 0 0 0-1.134-.56 3.6 3.6 0 0 0-1.148-.182q-.728 0-1.12.364-.378.35-.378.91 0 .49.392.826.392.322 1.358.462l.504.07q1.386.196 2.114.868.728.659.728 1.89 0 .63-.224 1.176a2.4 2.4 0 0 1-.686.938 3.2 3.2 0 0 1-1.12.616q-.672.224-1.554.224m7.589-9.534q.042-.14.182-.14h1.288q.14 0 .182.14l3.22 9.24q.042.14-.098.14h-1.372q-.14 0-.182-.14l-.63-1.848h-3.584l-.63 1.848q-.042.14-.182.14h-1.358q-.14 0-.098-.14zm2.086 5.922-1.26-3.696h-.042l-1.274 3.696zm9.495 3.458q-.154 0-.21-.14l-1.82-3.71h-1.638q-.084 0-.084.084v3.626q0 .14-.14.14h-1.372q-.14 0-.14-.14v-9.24q0-.14.14-.14h3.682q.657 0 1.204.21.56.21.966.588.405.364.63.896.238.518.238 1.148 0 .938-.49 1.624a2.77 2.77 0 0 1-1.316.994l2.002 3.878q.042.07 0 .126-.029.056-.098.056zm-1.638-5.334q.657 0 1.05-.364.405-.364.406-.98 0-.63-.406-.994-.393-.364-1.05-.364h-2.03q-.084 0-.084.084v2.534q0 .084.084.084z"/></svg>