<svg width="362" height="360" viewBox="0 0 362 360" fill="none" xmlns="http://www.w3.org/2000/svg">
<rect x="90.2085" y="0.985107" width="182.606" height="346.98" rx="24" fill="#643E96"/>
<rect x="98.4175" y="9.37744" width="166.273" height="311.917" rx="16" fill="white"/>
<path d="M181.502 49.7307C167.049 49.7307 155.318 61.4614 155.318 75.9153C155.318 90.3692 167.049 102.1 181.502 102.1C195.956 102.1 207.687 90.3692 207.687 75.9153C207.687 61.4614 195.956 49.7307 181.502 49.7307ZM184.994 88.1348V82.8979H169.283V77.661H193.722C190.807 81.1523 187.909 84.6435 184.994 88.1348ZM193.722 74.1697H169.283C172.198 70.6784 175.096 67.1871 178.011 63.6958V68.9328H193.722V74.1697Z" fill="#643E96"/>
<circle cx="183.98" cy="335.143" r="6.65394" fill="#C891C3"/>
<rect x="45.5" y="135.485" width="244" height="224" rx="7.5" fill="white"/>
<rect x="45.5" y="135.485" width="244" height="224" rx="7.5" stroke="#E5E7EB"/>
<path d="M77 154.985C70.376 154.985 65 160.361 65 166.985C65 173.609 70.376 178.985 77 178.985C83.624 178.985 89 173.609 89 166.985C89 160.361 83.624 154.985 77 154.985ZM78.6 172.585V170.185H71.4V167.785H82.6C81.264 169.385 79.936 170.985 78.6 172.585ZM82.6 166.185H71.4C72.736 164.585 74.064 162.985 75.4 161.385V163.785H82.6V166.185Z" fill="#643E96"/>
<path d="M66.2 198.265C66.2 198.158 66.2533 198.105 66.36 198.105H67.928C68.0347 198.105 68.088 198.158 68.088 198.265V203.385L72.2 198.233C72.2747 198.148 72.36 198.105 72.456 198.105H74.28C74.3333 198.105 74.3653 198.126 74.376 198.169C74.3973 198.212 74.3867 198.26 74.344 198.313L70.968 202.377L74.728 208.793C74.8027 208.921 74.7653 208.985 74.616 208.985H72.84C72.7333 208.985 72.6533 208.942 72.6 208.857L69.752 203.833L68.088 205.849V208.825C68.088 208.932 68.0347 208.985 67.928 208.985H66.36C66.2533 208.985 66.2 208.932 66.2 208.825V198.265ZM80.6975 208.985C80.5908 208.985 80.5375 208.932 80.5375 208.825V208.265H80.5215C80.3402 208.532 80.0682 208.75 79.7055 208.921C79.3428 209.081 78.8895 209.161 78.3455 209.161C77.9935 209.161 77.6575 209.113 77.3375 209.017C77.0282 208.921 76.7562 208.777 76.5215 208.585C76.2868 208.393 76.1002 208.153 75.9615 207.865C75.8228 207.566 75.7535 207.214 75.7535 206.809C75.7535 205.966 76.0255 205.348 76.5695 204.953C77.1242 204.558 77.8815 204.361 78.8415 204.361H80.4095C80.4735 204.361 80.5055 204.329 80.5055 204.265V203.897C80.5055 203.449 80.3828 203.124 80.1375 202.921C79.8922 202.718 79.4442 202.617 78.7935 202.617C78.3562 202.617 77.9988 202.67 77.7215 202.777C77.4442 202.873 77.2148 202.996 77.0335 203.145C76.9375 203.22 76.8628 203.209 76.8095 203.113L76.2175 202.057C76.1642 201.972 76.1748 201.902 76.2495 201.849C76.5588 201.625 76.9322 201.444 77.3695 201.305C77.8068 201.166 78.3455 201.097 78.9855 201.097C80.1588 201.097 80.9855 201.31 81.4655 201.737C81.9562 202.164 82.2015 202.846 82.2015 203.785V208.825C82.2015 208.932 82.1482 208.985 82.0415 208.985H80.6975ZM78.7935 207.705C79.3482 207.705 79.7695 207.598 80.0575 207.385C80.3562 207.172 80.5055 206.841 80.5055 206.393V205.801C80.5055 205.737 80.4735 205.705 80.4095 205.705H79.1295C78.5535 205.705 78.1322 205.79 77.8655 205.961C77.5988 206.121 77.4655 206.382 77.4655 206.745C77.4655 207.385 77.9082 207.705 78.7935 207.705ZM89.2325 208.985C89.1258 208.985 89.0725 208.932 89.0725 208.825V208.249H89.0565C88.8752 208.516 88.6192 208.734 88.2885 208.905C87.9578 209.076 87.5312 209.161 87.0085 209.161C86.3472 209.161 85.7872 209.006 85.3285 208.697C84.8698 208.388 84.5392 207.924 84.3365 207.305C84.2405 207.006 84.1712 206.702 84.1285 206.393C84.0858 206.073 84.0645 205.652 84.0645 205.129C84.0645 204.606 84.0858 204.19 84.1285 203.881C84.1712 203.561 84.2405 203.252 84.3365 202.953C84.5392 202.334 84.8698 201.87 85.3285 201.561C85.7872 201.252 86.3472 201.097 87.0085 201.097C87.5312 201.097 87.9578 201.182 88.2885 201.353C88.6192 201.524 88.8752 201.742 89.0565 202.009H89.0725V198.265C89.0725 198.158 89.1258 198.105 89.2325 198.105H90.7045C90.8112 198.105 90.8645 198.158 90.8645 198.265V208.825C90.8645 208.932 90.8112 208.985 90.7045 208.985H89.2325ZM87.4725 207.561C88.2192 207.561 88.6992 207.23 88.9125 206.569C88.9658 206.388 89.0032 206.19 89.0245 205.977C89.0565 205.764 89.0725 205.481 89.0725 205.129C89.0725 204.777 89.0565 204.494 89.0245 204.281C89.0032 204.068 88.9658 203.87 88.9125 203.689C88.6992 203.028 88.2192 202.697 87.4725 202.697C86.7365 202.697 86.2618 203.028 86.0485 203.689C85.9952 203.87 85.9525 204.068 85.9205 204.281C85.8992 204.494 85.8885 204.777 85.8885 205.129C85.8885 205.481 85.8992 205.764 85.9205 205.977C85.9525 206.19 85.9952 206.388 86.0485 206.569C86.2618 207.23 86.7365 207.561 87.4725 207.561ZM93.3593 199.817C93.2526 199.817 93.1993 199.764 93.1993 199.657V198.265C93.1993 198.158 93.2526 198.105 93.3593 198.105H94.8313C94.9379 198.105 94.9913 198.158 94.9913 198.265V199.657C94.9913 199.764 94.9379 199.817 94.8313 199.817H93.3593ZM93.3593 208.985C93.2526 208.985 93.1993 208.932 93.1993 208.825V201.433C93.1993 201.326 93.2526 201.273 93.3593 201.273H94.8313C94.9379 201.273 94.9913 201.326 94.9913 201.433V208.825C94.9913 208.932 94.9379 208.985 94.8313 208.985H93.3593ZM97.0363 205.529C96.9296 205.529 96.8763 205.476 96.8763 205.369V204.105C96.8763 203.998 96.9296 203.945 97.0363 203.945H101.436C101.543 203.945 101.596 203.998 101.596 204.105V205.369C101.596 205.476 101.543 205.529 101.436 205.529H97.0363ZM110.718 209.161C110.312 209.161 109.918 209.124 109.534 209.049C109.15 208.974 108.782 208.873 108.43 208.745C108.088 208.617 107.768 208.468 107.47 208.297C107.182 208.116 106.931 207.924 106.718 207.721C106.632 207.636 106.622 207.556 106.686 207.481L107.678 206.329C107.752 206.244 107.827 206.238 107.902 206.313C108.072 206.452 108.264 206.59 108.478 206.729C108.702 206.868 108.936 206.99 109.182 207.097C109.438 207.204 109.704 207.294 109.982 207.369C110.259 207.433 110.552 207.465 110.862 207.465C111.512 207.465 112.014 207.321 112.366 207.033C112.728 206.734 112.91 206.356 112.91 205.897C112.91 205.502 112.766 205.182 112.478 204.937C112.19 204.681 111.672 204.5 110.926 204.393L110.35 204.313C109.294 204.164 108.483 203.838 107.918 203.337C107.352 202.825 107.07 202.116 107.07 201.209C107.07 200.718 107.155 200.27 107.326 199.865C107.496 199.46 107.742 199.113 108.062 198.825C108.382 198.537 108.766 198.318 109.214 198.169C109.672 198.009 110.184 197.929 110.75 197.929C111.432 197.929 112.078 198.03 112.686 198.233C113.304 198.425 113.832 198.686 114.27 199.017C114.344 199.081 114.355 199.156 114.302 199.241L113.534 200.425C113.47 200.51 113.395 200.526 113.31 200.473C112.862 200.185 112.43 199.972 112.014 199.833C111.598 199.694 111.16 199.625 110.702 199.625C110.147 199.625 109.72 199.764 109.422 200.041C109.134 200.308 108.99 200.654 108.99 201.081C108.99 201.454 109.139 201.769 109.438 202.025C109.736 202.27 110.254 202.446 110.99 202.553L111.566 202.633C112.622 202.782 113.427 203.113 113.982 203.625C114.536 204.126 114.814 204.846 114.814 205.785C114.814 206.265 114.728 206.713 114.558 207.129C114.387 207.545 114.126 207.902 113.774 208.201C113.432 208.5 113.006 208.734 112.494 208.905C111.982 209.076 111.39 209.161 110.718 209.161ZM121.244 208.985C121.138 208.985 121.084 208.932 121.084 208.825V208.265H121.068C120.887 208.532 120.615 208.75 120.252 208.921C119.89 209.081 119.436 209.161 118.892 209.161C118.54 209.161 118.204 209.113 117.884 209.017C117.575 208.921 117.303 208.777 117.068 208.585C116.834 208.393 116.647 208.153 116.508 207.865C116.37 207.566 116.3 207.214 116.3 206.809C116.3 205.966 116.572 205.348 117.116 204.953C117.671 204.558 118.428 204.361 119.388 204.361H120.956C121.02 204.361 121.052 204.329 121.052 204.265V203.897C121.052 203.449 120.93 203.124 120.684 202.921C120.439 202.718 119.991 202.617 119.34 202.617C118.903 202.617 118.546 202.67 118.268 202.777C117.991 202.873 117.762 202.996 117.58 203.145C117.484 203.22 117.41 203.209 117.356 203.113L116.764 202.057C116.711 201.972 116.722 201.902 116.796 201.849C117.106 201.625 117.479 201.444 117.916 201.305C118.354 201.166 118.892 201.097 119.532 201.097C120.706 201.097 121.532 201.31 122.012 201.737C122.503 202.164 122.748 202.846 122.748 203.785V208.825C122.748 208.932 122.695 208.985 122.588 208.985H121.244ZM119.34 207.705C119.895 207.705 120.316 207.598 120.604 207.385C120.903 207.172 121.052 206.841 121.052 206.393V205.801C121.052 205.737 121.02 205.705 120.956 205.705H119.676C119.1 205.705 118.679 205.79 118.412 205.961C118.146 206.121 118.012 206.382 118.012 206.745C118.012 207.385 118.455 207.705 119.34 207.705ZM127.107 209.081C126.35 209.081 125.806 208.9 125.475 208.537C125.155 208.174 124.995 207.62 124.995 206.873V198.265C124.995 198.158 125.049 198.105 125.155 198.105H126.627C126.734 198.105 126.787 198.158 126.787 198.265V206.777C126.787 207.044 126.841 207.23 126.947 207.337C127.054 207.433 127.225 207.481 127.459 207.481H127.811C127.918 207.481 127.971 207.534 127.971 207.641V208.921C127.971 209.028 127.918 209.081 127.811 209.081H127.107ZM132.708 209.161C131.918 209.161 131.241 208.974 130.676 208.601C130.121 208.228 129.737 207.705 129.524 207.033C129.438 206.756 129.374 206.478 129.332 206.201C129.289 205.913 129.268 205.556 129.268 205.129C129.268 204.702 129.289 204.35 129.332 204.073C129.374 203.785 129.438 203.502 129.524 203.225C129.737 202.553 130.121 202.03 130.676 201.657C131.241 201.284 131.918 201.097 132.708 201.097C133.486 201.097 134.153 201.284 134.708 201.657C135.273 202.03 135.662 202.553 135.876 203.225C135.961 203.502 136.025 203.785 136.068 204.073C136.11 204.35 136.132 204.702 136.132 205.129C136.132 205.556 136.11 205.913 136.068 206.201C136.025 206.478 135.961 206.756 135.876 207.033C135.662 207.705 135.273 208.228 134.708 208.601C134.153 208.974 133.486 209.161 132.708 209.161ZM132.708 207.561C133.07 207.561 133.369 207.476 133.604 207.305C133.849 207.124 134.03 206.873 134.148 206.553C134.212 206.35 134.254 206.148 134.276 205.945C134.297 205.732 134.308 205.46 134.308 205.129C134.308 204.798 134.297 204.532 134.276 204.329C134.254 204.126 134.212 203.918 134.148 203.705C134.03 203.385 133.849 203.14 133.604 202.969C133.369 202.788 133.07 202.697 132.708 202.697C132.345 202.697 132.041 202.788 131.796 202.969C131.55 203.14 131.369 203.385 131.252 203.705C131.188 203.918 131.145 204.126 131.124 204.329C131.102 204.532 131.092 204.798 131.092 205.129C131.092 205.46 131.102 205.732 131.124 205.945C131.145 206.148 131.188 206.35 131.252 206.553C131.369 206.873 131.55 207.124 131.796 207.305C132.041 207.476 132.345 207.561 132.708 207.561ZM142.939 208.985C142.832 208.985 142.779 208.932 142.779 208.825V204.377C142.779 203.876 142.656 203.47 142.411 203.161C142.165 202.852 141.803 202.697 141.323 202.697C140.853 202.697 140.491 202.852 140.235 203.161C139.979 203.47 139.851 203.876 139.851 204.377V208.825C139.851 208.932 139.797 208.985 139.691 208.985H138.219C138.112 208.985 138.059 208.932 138.059 208.825V201.433C138.059 201.326 138.112 201.273 138.219 201.273H139.691C139.797 201.273 139.851 201.326 139.851 201.433V201.993H139.867C140.037 201.748 140.288 201.54 140.619 201.369C140.96 201.188 141.387 201.097 141.899 201.097C142.315 201.097 142.683 201.172 143.003 201.321C143.333 201.46 143.616 201.657 143.851 201.913C144.085 202.169 144.261 202.473 144.379 202.825C144.507 203.166 144.571 203.545 144.571 203.961V208.825C144.571 208.932 144.517 208.985 144.411 208.985H142.939Z" fill="#1E1F24"/>
<path d="M67.964 222.433H67.94L66.692 223.309C66.604 223.365 66.56 223.341 66.56 223.237V222.013C66.56 221.949 66.588 221.893 66.644 221.845L67.952 220.897C68.008 220.849 68.08 220.825 68.168 220.825H69.188C69.268 220.825 69.308 220.865 69.308 220.945V228.865C69.308 228.945 69.268 228.985 69.188 228.985H68.084C68.004 228.985 67.964 228.945 67.964 228.865V222.433ZM75.3219 220.945C75.3219 220.865 75.3619 220.825 75.4419 220.825H76.5459C76.6339 220.825 76.7019 220.865 76.7499 220.945L80.0739 226.573H80.1219V220.945C80.1219 220.865 80.1619 220.825 80.2419 220.825H81.2859C81.3659 220.825 81.4059 220.865 81.4059 220.945V228.865C81.4059 228.945 81.3659 228.985 81.2859 228.985H80.1939C80.1059 228.985 80.0379 228.945 79.9899 228.865L76.6539 223.249H76.6059V228.865C76.6059 228.945 76.5659 228.985 76.4859 228.985H75.4419C75.3619 228.985 75.3219 228.945 75.3219 228.865V220.945ZM85.4526 229.117C84.8606 229.117 84.3526 228.977 83.9286 228.697C83.5126 228.417 83.2246 228.025 83.0646 227.521C83.0006 227.313 82.9526 227.105 82.9206 226.897C82.8886 226.681 82.8726 226.413 82.8726 226.093C82.8726 225.773 82.8886 225.509 82.9206 225.301C82.9526 225.085 83.0006 224.873 83.0646 224.665C83.2246 224.161 83.5126 223.769 83.9286 223.489C84.3526 223.209 84.8606 223.069 85.4526 223.069C86.0366 223.069 86.5366 223.209 86.9526 223.489C87.3766 223.769 87.6686 224.161 87.8286 224.665C87.8926 224.873 87.9406 225.085 87.9726 225.301C88.0046 225.509 88.0206 225.773 88.0206 226.093C88.0206 226.413 88.0046 226.681 87.9726 226.897C87.9406 227.105 87.8926 227.313 87.8286 227.521C87.6686 228.025 87.3766 228.417 86.9526 228.697C86.5366 228.977 86.0366 229.117 85.4526 229.117ZM85.4526 227.917C85.7246 227.917 85.9486 227.853 86.1246 227.725C86.3086 227.589 86.4446 227.401 86.5326 227.161C86.5806 227.009 86.6126 226.857 86.6286 226.705C86.6446 226.545 86.6526 226.341 86.6526 226.093C86.6526 225.845 86.6446 225.645 86.6286 225.493C86.6126 225.341 86.5806 225.185 86.5326 225.025C86.4446 224.785 86.3086 224.601 86.1246 224.473C85.9486 224.337 85.7246 224.269 85.4526 224.269C85.1806 224.269 84.9526 224.337 84.7686 224.473C84.5846 224.601 84.4486 224.785 84.3606 225.025C84.3126 225.185 84.2806 225.341 84.2646 225.493C84.2486 225.645 84.2406 225.845 84.2406 226.093C84.2406 226.341 84.2486 226.545 84.2646 226.705C84.2806 226.857 84.3126 227.009 84.3606 227.161C84.4486 227.401 84.5846 227.589 84.7686 227.725C84.9526 227.853 85.1806 227.917 85.4526 227.917ZM91.0258 228.985C90.9458 228.985 90.8938 228.945 90.8698 228.865L88.8298 223.321C88.8058 223.241 88.8378 223.201 88.9258 223.201H90.1018C90.1738 223.201 90.2218 223.241 90.2458 223.321L91.5178 227.077H91.5418L92.7898 223.321C92.8138 223.241 92.8618 223.201 92.9338 223.201H94.0858C94.1738 223.201 94.2058 223.241 94.1818 223.321L92.1418 228.865C92.1178 228.945 92.0658 228.985 91.9858 228.985H91.0258ZM94.2803 227.641C94.2803 227.561 94.3203 227.521 94.4003 227.521H95.5283C95.6083 227.521 95.6483 227.561 95.6483 227.641V228.949C95.6483 229.013 95.6443 229.061 95.6363 229.093C95.6283 229.125 95.6043 229.161 95.5643 229.201L94.5683 230.233C94.5123 230.289 94.4563 230.317 94.4003 230.317C94.3203 230.317 94.2803 230.277 94.2803 230.197V227.641ZM102.019 222.433H101.995L100.747 223.309C100.659 223.365 100.615 223.341 100.615 223.237V222.013C100.615 221.949 100.643 221.893 100.699 221.845L102.007 220.897C102.063 220.849 102.135 220.825 102.223 220.825H103.243C103.323 220.825 103.363 220.865 103.363 220.945V228.865C103.363 228.945 103.323 228.985 103.243 228.985H102.139C102.059 228.985 102.019 228.945 102.019 228.865V222.433ZM106.613 227.521C106.589 227.441 106.565 227.349 106.541 227.245C106.517 227.133 106.497 226.985 106.481 226.801C106.473 226.609 106.465 226.365 106.457 226.069C106.449 225.765 106.445 225.377 106.445 224.905C106.445 224.433 106.449 224.049 106.457 223.753C106.465 223.449 106.473 223.205 106.481 223.021C106.497 222.829 106.517 222.681 106.541 222.577C106.565 222.473 106.589 222.377 106.613 222.289C106.773 221.777 107.045 221.385 107.429 221.113C107.821 220.833 108.321 220.693 108.929 220.693C109.537 220.693 110.033 220.833 110.417 221.113C110.809 221.385 111.089 221.777 111.257 222.289C111.281 222.377 111.305 222.473 111.329 222.577C111.353 222.681 111.369 222.829 111.377 223.021C111.393 223.205 111.405 223.449 111.413 223.753C111.421 224.049 111.425 224.433 111.425 224.905C111.425 225.377 111.421 225.765 111.413 226.069C111.405 226.365 111.393 226.609 111.377 226.801C111.369 226.985 111.353 227.133 111.329 227.245C111.305 227.349 111.281 227.441 111.257 227.521C111.089 228.033 110.809 228.429 110.417 228.709C110.033 228.981 109.537 229.117 108.929 229.117C108.321 229.117 107.821 228.981 107.429 228.709C107.045 228.429 106.773 228.033 106.613 227.521ZM107.933 227.269C108.085 227.701 108.417 227.917 108.929 227.917C109.441 227.917 109.777 227.701 109.937 227.269C109.961 227.205 109.977 227.133 109.985 227.053C110.001 226.973 110.013 226.849 110.021 226.681C110.029 226.513 110.033 226.289 110.033 226.009C110.041 225.729 110.045 225.361 110.045 224.905C110.045 224.449 110.041 224.081 110.033 223.801C110.033 223.521 110.029 223.297 110.021 223.129C110.013 222.961 110.001 222.837 109.985 222.757C109.977 222.677 109.961 222.605 109.937 222.541C109.777 222.109 109.441 221.893 108.929 221.893C108.417 221.893 108.085 222.109 107.933 222.541C107.909 222.605 107.889 222.677 107.873 222.757C107.865 222.837 107.857 222.961 107.849 223.129C107.841 223.297 107.833 223.521 107.825 223.801C107.825 224.081 107.825 224.449 107.825 224.905C107.825 225.361 107.825 225.729 107.825 226.009C107.833 226.289 107.841 226.513 107.849 226.681C107.857 226.849 107.865 226.973 107.873 227.053C107.889 227.133 107.909 227.205 107.933 227.269ZM118.819 229.117C118.115 229.117 117.511 228.953 117.007 228.625C116.503 228.289 116.147 227.797 115.939 227.149C115.899 227.021 115.863 226.893 115.831 226.765C115.807 226.637 115.787 226.489 115.771 226.321C115.755 226.153 115.743 225.957 115.735 225.733C115.727 225.501 115.723 225.225 115.723 224.905C115.723 224.585 115.727 224.313 115.735 224.089C115.743 223.857 115.755 223.657 115.771 223.489C115.787 223.321 115.807 223.173 115.831 223.045C115.863 222.917 115.899 222.789 115.939 222.661C116.147 222.013 116.503 221.525 117.007 221.197C117.511 220.861 118.115 220.693 118.819 220.693C119.531 220.693 120.139 220.861 120.643 221.197C121.147 221.525 121.503 222.013 121.711 222.661C121.751 222.789 121.783 222.917 121.807 223.045C121.839 223.173 121.863 223.321 121.879 223.489C121.895 223.657 121.907 223.857 121.915 224.089C121.923 224.313 121.927 224.585 121.927 224.905C121.927 225.225 121.923 225.501 121.915 225.733C121.907 225.957 121.895 226.153 121.879 226.321C121.863 226.489 121.839 226.637 121.807 226.765C121.783 226.893 121.751 227.021 121.711 227.149C121.503 227.797 121.147 228.289 120.643 228.625C120.139 228.953 119.531 229.117 118.819 229.117ZM118.819 227.845C119.227 227.845 119.555 227.753 119.803 227.569C120.051 227.377 120.231 227.113 120.343 226.777C120.367 226.705 120.387 226.621 120.403 226.525C120.419 226.429 120.431 226.309 120.439 226.165C120.455 226.021 120.467 225.849 120.475 225.649C120.483 225.441 120.487 225.193 120.487 224.905C120.487 224.617 120.483 224.373 120.475 224.173C120.467 223.965 120.455 223.789 120.439 223.645C120.431 223.501 120.419 223.381 120.403 223.285C120.387 223.189 120.367 223.105 120.343 223.033C120.231 222.697 120.051 222.437 119.803 222.253C119.555 222.061 119.227 221.965 118.819 221.965C118.411 221.965 118.083 222.061 117.835 222.253C117.595 222.437 117.419 222.697 117.307 223.033C117.283 223.105 117.259 223.189 117.235 223.285C117.219 223.381 117.203 223.501 117.187 223.645C117.179 223.789 117.171 223.965 117.163 224.173C117.163 224.373 117.163 224.617 117.163 224.905C117.163 225.193 117.163 225.441 117.163 225.649C117.171 225.849 117.179 226.021 117.187 226.165C117.203 226.309 117.219 226.429 117.235 226.525C117.259 226.621 117.283 226.705 117.307 226.777C117.419 227.113 117.595 227.377 117.835 227.569C118.083 227.753 118.411 227.845 118.819 227.845ZM125.718 229.117C125.134 229.117 124.63 228.981 124.206 228.709C123.79 228.437 123.498 228.041 123.33 227.521C123.21 227.161 123.15 226.685 123.15 226.093C123.15 225.501 123.21 225.025 123.33 224.665C123.498 224.145 123.79 223.749 124.206 223.477C124.63 223.205 125.134 223.069 125.718 223.069C126.15 223.069 126.534 223.149 126.87 223.309C127.206 223.469 127.49 223.689 127.722 223.969C127.77 224.033 127.766 224.089 127.71 224.137L126.954 224.797C126.89 224.845 126.834 224.837 126.786 224.773C126.642 224.613 126.486 224.489 126.318 224.401C126.158 224.313 125.958 224.269 125.718 224.269C125.462 224.269 125.238 224.333 125.046 224.461C124.862 224.581 124.726 224.769 124.638 225.025C124.59 225.169 124.558 225.329 124.542 225.505C124.526 225.673 124.518 225.869 124.518 226.093C124.518 226.317 124.526 226.517 124.542 226.693C124.558 226.869 124.59 227.029 124.638 227.173C124.726 227.421 124.862 227.609 125.046 227.737C125.238 227.857 125.462 227.917 125.718 227.917C125.958 227.917 126.158 227.873 126.318 227.785C126.486 227.697 126.642 227.573 126.786 227.413C126.834 227.357 126.89 227.353 126.954 227.401L127.71 228.061C127.758 228.101 127.762 228.157 127.722 228.229C127.49 228.501 127.206 228.717 126.87 228.877C126.534 229.037 126.15 229.117 125.718 229.117ZM130.849 229.057C130.265 229.057 129.849 228.917 129.601 228.637C129.361 228.357 129.241 227.933 129.241 227.365V224.317C129.241 224.269 129.217 224.245 129.169 224.245H128.785C128.705 224.245 128.665 224.205 128.665 224.125V223.321C128.665 223.241 128.705 223.201 128.785 223.201H129.169C129.217 223.201 129.241 223.177 129.241 223.129V221.545C129.241 221.465 129.281 221.425 129.361 221.425H130.465C130.545 221.425 130.585 221.465 130.585 221.545V223.129C130.585 223.177 130.609 223.201 130.657 223.201H131.425C131.505 223.201 131.545 223.241 131.545 223.321V224.125C131.545 224.205 131.505 224.245 131.425 224.245H130.657C130.609 224.245 130.585 224.269 130.585 224.317V227.317C130.585 227.525 130.629 227.669 130.717 227.749C130.805 227.821 130.941 227.857 131.125 227.857H131.425C131.505 227.857 131.545 227.897 131.545 227.977V228.937C131.545 229.017 131.505 229.057 131.425 229.057H130.849ZM137.937 222.433H137.913L136.665 223.309C136.577 223.365 136.533 223.341 136.533 223.237V222.013C136.533 221.949 136.561 221.893 136.617 221.845L137.925 220.897C137.981 220.849 138.053 220.825 138.141 220.825H139.161C139.241 220.825 139.281 220.865 139.281 220.945V228.865C139.281 228.945 139.241 228.985 139.161 228.985H138.057C137.977 228.985 137.937 228.945 137.937 228.865V222.433ZM142.531 227.521C142.507 227.441 142.483 227.349 142.459 227.245C142.435 227.133 142.415 226.985 142.399 226.801C142.391 226.609 142.383 226.365 142.375 226.069C142.367 225.765 142.363 225.377 142.363 224.905C142.363 224.433 142.367 224.049 142.375 223.753C142.383 223.449 142.391 223.205 142.399 223.021C142.415 222.829 142.435 222.681 142.459 222.577C142.483 222.473 142.507 222.377 142.531 222.289C142.691 221.777 142.963 221.385 143.347 221.113C143.739 220.833 144.239 220.693 144.847 220.693C145.455 220.693 145.951 220.833 146.335 221.113C146.727 221.385 147.007 221.777 147.175 222.289C147.199 222.377 147.223 222.473 147.247 222.577C147.271 222.681 147.287 222.829 147.295 223.021C147.311 223.205 147.323 223.449 147.331 223.753C147.339 224.049 147.343 224.433 147.343 224.905C147.343 225.377 147.339 225.765 147.331 226.069C147.323 226.365 147.311 226.609 147.295 226.801C147.287 226.985 147.271 227.133 147.247 227.245C147.223 227.349 147.199 227.441 147.175 227.521C147.007 228.033 146.727 228.429 146.335 228.709C145.951 228.981 145.455 229.117 144.847 229.117C144.239 229.117 143.739 228.981 143.347 228.709C142.963 228.429 142.691 228.033 142.531 227.521ZM143.851 227.269C144.003 227.701 144.335 227.917 144.847 227.917C145.359 227.917 145.695 227.701 145.855 227.269C145.879 227.205 145.895 227.133 145.903 227.053C145.919 226.973 145.931 226.849 145.939 226.681C145.947 226.513 145.951 226.289 145.951 226.009C145.959 225.729 145.963 225.361 145.963 224.905C145.963 224.449 145.959 224.081 145.951 223.801C145.951 223.521 145.947 223.297 145.939 223.129C145.931 222.961 145.919 222.837 145.903 222.757C145.895 222.677 145.879 222.605 145.855 222.541C145.695 222.109 145.359 221.893 144.847 221.893C144.335 221.893 144.003 222.109 143.851 222.541C143.827 222.605 143.807 222.677 143.791 222.757C143.783 222.837 143.775 222.961 143.767 223.129C143.759 223.297 143.751 223.521 143.743 223.801C143.743 224.081 143.743 224.449 143.743 224.905C143.743 225.361 143.743 225.729 143.743 226.009C143.751 226.289 143.759 226.513 143.767 226.681C143.775 226.849 143.783 226.973 143.791 227.053C143.807 227.133 143.827 227.205 143.851 227.269ZM149.105 224.665C149.025 224.665 148.985 224.625 148.985 224.545V223.321C148.985 223.241 149.025 223.201 149.105 223.201H150.305C150.385 223.201 150.425 223.241 150.425 223.321V224.545C150.425 224.625 150.385 224.665 150.305 224.665H149.105ZM148.985 227.641C148.985 227.561 149.025 227.521 149.105 227.521H150.305C150.385 227.521 150.425 227.561 150.425 227.641V228.865C150.425 228.945 150.385 228.985 150.305 228.985H149.105C149.025 228.985 148.985 228.945 148.985 228.865V227.641ZM152.126 227.965C152.126 227.901 152.146 227.849 152.186 227.809L155.066 224.221C155.226 224.021 155.354 223.821 155.45 223.621C155.546 223.421 155.594 223.205 155.594 222.973C155.594 222.669 155.498 222.413 155.306 222.205C155.122 221.997 154.858 221.893 154.514 221.893C154.186 221.893 153.93 221.985 153.746 222.169C153.562 222.353 153.45 222.601 153.41 222.913C153.394 222.993 153.35 223.025 153.278 223.009L152.222 222.793C152.142 222.777 152.11 222.729 152.126 222.649C152.15 222.409 152.218 222.173 152.33 221.941C152.442 221.709 152.598 221.501 152.798 221.317C152.998 221.125 153.242 220.973 153.53 220.861C153.826 220.749 154.166 220.693 154.55 220.693C154.934 220.693 155.274 220.753 155.57 220.873C155.866 220.993 156.114 221.157 156.314 221.365C156.522 221.565 156.678 221.805 156.782 222.085C156.894 222.357 156.95 222.653 156.95 222.973C156.95 223.341 156.882 223.681 156.746 223.993C156.61 224.297 156.422 224.593 156.182 224.881L153.806 227.761V227.785H156.83C156.91 227.785 156.95 227.825 156.95 227.905V228.865C156.95 228.945 156.91 228.985 156.83 228.985H152.246C152.166 228.985 152.126 228.945 152.126 228.865V227.965ZM158.82 227.521C158.796 227.441 158.772 227.349 158.748 227.245C158.724 227.133 158.704 226.985 158.688 226.801C158.68 226.609 158.672 226.365 158.664 226.069C158.656 225.765 158.652 225.377 158.652 224.905C158.652 224.433 158.656 224.049 158.664 223.753C158.672 223.449 158.68 223.205 158.688 223.021C158.704 222.829 158.724 222.681 158.748 222.577C158.772 222.473 158.796 222.377 158.82 222.289C158.98 221.777 159.252 221.385 159.636 221.113C160.028 220.833 160.528 220.693 161.136 220.693C161.744 220.693 162.24 220.833 162.624 221.113C163.016 221.385 163.296 221.777 163.464 222.289C163.488 222.377 163.512 222.473 163.536 222.577C163.56 222.681 163.576 222.829 163.584 223.021C163.6 223.205 163.612 223.449 163.62 223.753C163.628 224.049 163.632 224.433 163.632 224.905C163.632 225.377 163.628 225.765 163.62 226.069C163.612 226.365 163.6 226.609 163.584 226.801C163.576 226.985 163.56 227.133 163.536 227.245C163.512 227.349 163.488 227.441 163.464 227.521C163.296 228.033 163.016 228.429 162.624 228.709C162.24 228.981 161.744 229.117 161.136 229.117C160.528 229.117 160.028 228.981 159.636 228.709C159.252 228.429 158.98 228.033 158.82 227.521ZM160.14 227.269C160.292 227.701 160.624 227.917 161.136 227.917C161.648 227.917 161.984 227.701 162.144 227.269C162.168 227.205 162.184 227.133 162.192 227.053C162.208 226.973 162.22 226.849 162.228 226.681C162.236 226.513 162.24 226.289 162.24 226.009C162.248 225.729 162.252 225.361 162.252 224.905C162.252 224.449 162.248 224.081 162.24 223.801C162.24 223.521 162.236 223.297 162.228 223.129C162.22 222.961 162.208 222.837 162.192 222.757C162.184 222.677 162.168 222.605 162.144 222.541C161.984 222.109 161.648 221.893 161.136 221.893C160.624 221.893 160.292 222.109 160.14 222.541C160.116 222.605 160.096 222.677 160.08 222.757C160.072 222.837 160.064 222.961 160.056 223.129C160.048 223.297 160.04 223.521 160.032 223.801C160.032 224.081 160.032 224.449 160.032 224.905C160.032 225.361 160.032 225.729 160.032 226.009C160.04 226.289 160.048 226.513 160.056 226.681C160.064 226.849 160.072 226.973 160.08 227.053C160.096 227.133 160.116 227.205 160.14 227.269ZM170.282 220.945C170.306 220.865 170.358 220.825 170.438 220.825H171.542C171.622 220.825 171.674 220.865 171.698 220.945L174.458 228.865C174.482 228.945 174.454 228.985 174.374 228.985H173.198C173.118 228.985 173.066 228.945 173.042 228.865L172.502 227.281H169.43L168.89 228.865C168.866 228.945 168.814 228.985 168.734 228.985H167.57C167.49 228.985 167.462 228.945 167.486 228.865L170.282 220.945ZM172.07 226.021L170.99 222.853H170.954L169.862 226.021H172.07ZM175.576 220.945C175.576 220.865 175.616 220.825 175.696 220.825H176.764C176.868 220.825 176.936 220.865 176.968 220.945L179.212 225.973H179.26L181.468 220.945C181.5 220.865 181.568 220.825 181.672 220.825H182.728C182.808 220.825 182.848 220.865 182.848 220.945V228.865C182.848 228.945 182.808 228.985 182.728 228.985H181.684C181.604 228.985 181.564 228.945 181.564 228.865V223.873H181.516L179.788 227.713C179.74 227.817 179.664 227.869 179.56 227.869H178.864C178.76 227.869 178.684 227.817 178.636 227.713L176.908 223.873H176.86V228.865C176.86 228.945 176.82 228.985 176.74 228.985H175.696C175.616 228.985 175.576 228.945 175.576 228.865V220.945Z" fill="#80828D"/>
<path d="M186.792 227.641C186.792 227.561 186.832 227.521 186.912 227.521H188.112C188.192 227.521 188.232 227.561 188.232 227.641V228.865C188.232 228.945 188.192 228.985 188.112 228.985H186.912C186.832 228.985 186.792 228.945 186.792 228.865V227.641Z" fill="#80828D"/>
<path d="M193.02 228.985C192.94 228.985 192.9 228.945 192.9 228.865V220.945C192.9 220.865 192.94 220.825 193.02 220.825H196.08C196.472 220.825 196.832 220.889 197.16 221.017C197.496 221.137 197.78 221.309 198.012 221.533C198.252 221.749 198.436 222.013 198.564 222.325C198.7 222.637 198.768 222.981 198.768 223.357C198.768 223.741 198.7 224.089 198.564 224.401C198.436 224.713 198.252 224.981 198.012 225.205C197.78 225.421 197.496 225.593 197.16 225.721C196.832 225.841 196.472 225.901 196.08 225.901H194.388C194.34 225.901 194.316 225.925 194.316 225.973V228.865C194.316 228.945 194.276 228.985 194.196 228.985H193.02ZM195.996 224.617C196.42 224.617 196.752 224.505 196.992 224.281C197.232 224.049 197.352 223.741 197.352 223.357C197.352 222.981 197.232 222.677 196.992 222.445C196.752 222.213 196.42 222.097 195.996 222.097H194.388C194.34 222.097 194.316 222.121 194.316 222.169V224.545C194.316 224.593 194.34 224.617 194.388 224.617H195.996ZM203.281 228.985C203.201 228.985 203.161 228.945 203.161 228.865V228.445H203.149C203.013 228.645 202.809 228.809 202.537 228.937C202.265 229.057 201.925 229.117 201.517 229.117C201.253 229.117 201.001 229.081 200.761 229.009C200.529 228.937 200.325 228.829 200.149 228.685C199.973 228.541 199.833 228.361 199.729 228.145C199.625 227.921 199.573 227.657 199.573 227.353C199.573 226.721 199.777 226.257 200.185 225.961C200.601 225.665 201.169 225.517 201.889 225.517H203.065C203.113 225.517 203.137 225.493 203.137 225.445V225.169C203.137 224.833 203.045 224.589 202.861 224.437C202.677 224.285 202.341 224.209 201.853 224.209C201.525 224.209 201.257 224.249 201.049 224.329C200.841 224.401 200.669 224.493 200.533 224.605C200.461 224.661 200.405 224.653 200.365 224.581L199.921 223.789C199.881 223.725 199.889 223.673 199.945 223.633C200.177 223.465 200.457 223.329 200.785 223.225C201.113 223.121 201.517 223.069 201.997 223.069C202.877 223.069 203.497 223.229 203.857 223.549C204.225 223.869 204.409 224.381 204.409 225.085V228.865C204.409 228.945 204.369 228.985 204.289 228.985H203.281ZM201.853 228.025C202.269 228.025 202.585 227.945 202.801 227.785C203.025 227.625 203.137 227.377 203.137 227.041V226.597C203.137 226.549 203.113 226.525 203.065 226.525H202.105C201.673 226.525 201.357 226.589 201.157 226.717C200.957 226.837 200.857 227.033 200.857 227.305C200.857 227.785 201.189 228.025 201.853 228.025ZM206.238 222.109C206.158 222.109 206.118 222.069 206.118 221.989V220.945C206.118 220.865 206.158 220.825 206.238 220.825H207.342C207.422 220.825 207.462 220.865 207.462 220.945V221.989C207.462 222.069 207.422 222.109 207.342 222.109H206.238ZM206.238 228.985C206.158 228.985 206.118 228.945 206.118 228.865V223.321C206.118 223.241 206.158 223.201 206.238 223.201H207.342C207.422 223.201 207.462 223.241 207.462 223.321V228.865C207.462 228.945 207.422 228.985 207.342 228.985H206.238ZM212.776 228.985C212.696 228.985 212.656 228.945 212.656 228.865V228.433H212.644C212.508 228.633 212.316 228.797 212.068 228.925C211.82 229.053 211.5 229.117 211.108 229.117C210.612 229.117 210.192 229.001 209.848 228.769C209.504 228.537 209.256 228.189 209.104 227.725C209.032 227.501 208.98 227.273 208.948 227.041C208.916 226.801 208.9 226.485 208.9 226.093C208.9 225.701 208.916 225.389 208.948 225.157C208.98 224.917 209.032 224.685 209.104 224.461C209.256 223.997 209.504 223.649 209.848 223.417C210.192 223.185 210.612 223.069 211.108 223.069C211.5 223.069 211.82 223.133 212.068 223.261C212.316 223.389 212.508 223.553 212.644 223.753H212.656V220.945C212.656 220.865 212.696 220.825 212.776 220.825H213.88C213.96 220.825 214 220.865 214 220.945V228.865C214 228.945 213.96 228.985 213.88 228.985H212.776ZM211.456 227.917C212.016 227.917 212.376 227.669 212.536 227.173C212.576 227.037 212.604 226.889 212.62 226.729C212.644 226.569 212.656 226.357 212.656 226.093C212.656 225.829 212.644 225.617 212.62 225.457C212.604 225.297 212.576 225.149 212.536 225.013C212.376 224.517 212.016 224.269 211.456 224.269C210.904 224.269 210.548 224.517 210.388 225.013C210.348 225.149 210.316 225.297 210.292 225.457C210.276 225.617 210.268 225.829 210.268 226.093C210.268 226.357 210.276 226.569 210.292 226.729C210.316 226.889 210.348 227.037 210.388 227.173C210.548 227.669 210.904 227.917 211.456 227.917Z" fill="#00C165"/>
<path d="M66.05 251.605C66.05 251.512 66.0967 251.465 66.19 251.465H67.562C67.6553 251.465 67.702 251.512 67.702 251.605V255.357C67.702 255.413 67.73 255.441 67.786 255.441H71.412C71.468 255.441 71.496 255.413 71.496 255.357V251.605C71.496 251.512 71.5427 251.465 71.636 251.465H73.008C73.1013 251.465 73.148 251.512 73.148 251.605V260.845C73.148 260.938 73.1013 260.985 73.008 260.985H71.636C71.5427 260.985 71.496 260.938 71.496 260.845V257.009C71.496 256.953 71.468 256.925 71.412 256.925H67.786C67.73 256.925 67.702 256.953 67.702 257.009V260.845C67.702 260.938 67.6553 260.985 67.562 260.985H66.19C66.0967 260.985 66.05 260.938 66.05 260.845V251.605ZM79.2412 260.985C79.1478 260.985 79.1012 260.938 79.1012 260.845V260.355H79.0872C78.9285 260.588 78.6905 260.78 78.3732 260.929C78.0558 261.069 77.6592 261.139 77.1832 261.139C76.8752 261.139 76.5812 261.097 76.3012 261.013C76.0305 260.929 75.7925 260.803 75.5872 260.635C75.3818 260.467 75.2185 260.257 75.0972 260.005C74.9758 259.744 74.9152 259.436 74.9152 259.081C74.9152 258.344 75.1532 257.802 75.6292 257.457C76.1145 257.112 76.7772 256.939 77.6172 256.939H78.9892C79.0452 256.939 79.0732 256.911 79.0732 256.855V256.533C79.0732 256.141 78.9658 255.856 78.7512 255.679C78.5365 255.502 78.1445 255.413 77.5752 255.413C77.1925 255.413 76.8798 255.46 76.6372 255.553C76.3945 255.637 76.1938 255.744 76.0352 255.875C75.9512 255.94 75.8858 255.931 75.8392 255.847L75.3212 254.923C75.2745 254.848 75.2838 254.788 75.3492 254.741C75.6198 254.545 75.9465 254.386 76.3292 254.265C76.7118 254.144 77.1832 254.083 77.7432 254.083C78.7698 254.083 79.4932 254.27 79.9132 254.643C80.3425 255.016 80.5572 255.614 80.5572 256.435V260.845C80.5572 260.938 80.5105 260.985 80.4172 260.985H79.2412ZM77.5752 259.865C78.0605 259.865 78.4292 259.772 78.6812 259.585C78.9425 259.398 79.0732 259.109 79.0732 258.717V258.199C79.0732 258.143 79.0452 258.115 78.9892 258.115H77.8692C77.3652 258.115 76.9965 258.19 76.7632 258.339C76.5298 258.479 76.4132 258.708 76.4132 259.025C76.4132 259.585 76.8005 259.865 77.5752 259.865ZM82.6913 252.963C82.598 252.963 82.5513 252.916 82.5513 252.823V251.605C82.5513 251.512 82.598 251.465 82.6913 251.465H83.9793C84.0726 251.465 84.1193 251.512 84.1193 251.605V252.823C84.1193 252.916 84.0726 252.963 83.9793 252.963H82.6913ZM82.6913 260.985C82.598 260.985 82.5513 260.938 82.5513 260.845V254.377C82.5513 254.284 82.598 254.237 82.6913 254.237H83.9793C84.0726 254.237 84.1193 254.284 84.1193 254.377V260.845C84.1193 260.938 84.0726 260.985 83.9793 260.985H82.6913ZM86.3007 260.985C86.2073 260.985 86.1607 260.938 86.1607 260.845V254.377C86.1607 254.284 86.2073 254.237 86.3007 254.237H87.5887C87.682 254.237 87.7287 254.284 87.7287 254.377V254.951H87.7427C87.9013 254.69 88.1253 254.48 88.4147 254.321C88.704 254.162 89.0633 254.083 89.4927 254.083C89.7633 254.083 90.02 254.134 90.2627 254.237C90.5147 254.33 90.7293 254.466 90.9067 254.643C90.972 254.708 90.9813 254.774 90.9347 254.839L90.1927 255.777C90.1367 255.852 90.0713 255.861 89.9967 255.805C89.838 255.702 89.6793 255.623 89.5207 255.567C89.362 255.511 89.1893 255.483 89.0027 255.483C88.5547 255.483 88.228 255.632 88.0227 255.931C87.8267 256.23 87.7287 256.65 87.7287 257.191V260.845C87.7287 260.938 87.682 260.985 87.5887 260.985H86.3007ZM95.3892 258.801C95.3425 258.652 95.3005 258.507 95.2632 258.367C95.2352 258.218 95.2119 258.05 95.1932 257.863C95.1745 257.667 95.1605 257.443 95.1512 257.191C95.1419 256.93 95.1372 256.608 95.1372 256.225C95.1372 255.852 95.1419 255.534 95.1512 255.273C95.1605 255.012 95.1745 254.788 95.1932 254.601C95.2119 254.405 95.2352 254.237 95.2632 254.097C95.3005 253.948 95.3425 253.798 95.3892 253.649C95.6319 252.865 96.0379 252.282 96.6072 251.899C97.1859 251.507 97.8812 251.311 98.6932 251.311C99.4585 251.311 100.117 251.493 100.667 251.857C101.227 252.221 101.643 252.72 101.913 253.355C101.941 253.439 101.918 253.495 101.843 253.523L100.653 254.097C100.569 254.144 100.509 254.12 100.471 254.027C100.313 253.691 100.093 253.402 99.8132 253.159C99.5425 252.916 99.1692 252.795 98.6932 252.795C98.2359 252.795 97.8672 252.907 97.5872 253.131C97.3165 253.355 97.1159 253.663 96.9852 254.055C96.9572 254.158 96.9292 254.26 96.9012 254.363C96.8825 254.466 96.8639 254.601 96.8452 254.769C96.8359 254.928 96.8265 255.124 96.8172 255.357C96.8172 255.59 96.8172 255.88 96.8172 256.225C96.8172 256.58 96.8172 256.874 96.8172 257.107C96.8265 257.331 96.8359 257.527 96.8452 257.695C96.8639 257.854 96.8825 257.989 96.9012 258.101C96.9292 258.204 96.9572 258.302 96.9852 258.395C97.1159 258.787 97.3165 259.095 97.5872 259.319C97.8672 259.543 98.2359 259.655 98.6932 259.655C99.1692 259.655 99.5425 259.534 99.8132 259.291C100.093 259.048 100.313 258.759 100.471 258.423C100.509 258.33 100.569 258.306 100.653 258.353L101.843 258.927C101.918 258.955 101.941 259.011 101.913 259.095C101.643 259.73 101.227 260.229 100.667 260.593C100.117 260.957 99.4585 261.139 98.6932 261.139C97.8812 261.139 97.1859 260.948 96.6072 260.565C96.0379 260.173 95.6319 259.585 95.3892 258.801ZM106.088 261.139C105.397 261.139 104.805 260.976 104.31 260.649C103.825 260.322 103.489 259.865 103.302 259.277C103.227 259.034 103.171 258.792 103.134 258.549C103.097 258.297 103.078 257.984 103.078 257.611C103.078 257.238 103.097 256.93 103.134 256.687C103.171 256.435 103.227 256.188 103.302 255.945C103.489 255.357 103.825 254.9 104.31 254.573C104.805 254.246 105.397 254.083 106.088 254.083C106.769 254.083 107.353 254.246 107.838 254.573C108.333 254.9 108.673 255.357 108.86 255.945C108.935 256.188 108.991 256.435 109.028 256.687C109.065 256.93 109.084 257.238 109.084 257.611C109.084 257.984 109.065 258.297 109.028 258.549C108.991 258.792 108.935 259.034 108.86 259.277C108.673 259.865 108.333 260.322 107.838 260.649C107.353 260.976 106.769 261.139 106.088 261.139ZM106.088 259.739C106.405 259.739 106.667 259.664 106.872 259.515C107.087 259.356 107.245 259.137 107.348 258.857C107.404 258.68 107.441 258.502 107.46 258.325C107.479 258.138 107.488 257.9 107.488 257.611C107.488 257.322 107.479 257.088 107.46 256.911C107.441 256.734 107.404 256.552 107.348 256.365C107.245 256.085 107.087 255.87 106.872 255.721C106.667 255.562 106.405 255.483 106.088 255.483C105.771 255.483 105.505 255.562 105.29 255.721C105.075 255.87 104.917 256.085 104.814 256.365C104.758 256.552 104.721 256.734 104.702 256.911C104.683 257.088 104.674 257.322 104.674 257.611C104.674 257.9 104.683 258.138 104.702 258.325C104.721 258.502 104.758 258.68 104.814 258.857C104.917 259.137 105.075 259.356 105.29 259.515C105.505 259.664 105.771 259.739 106.088 259.739ZM112.59 261.069C111.927 261.069 111.451 260.91 111.162 260.593C110.882 260.276 110.742 259.79 110.742 259.137V251.605C110.742 251.512 110.789 251.465 110.882 251.465H112.17C112.263 251.465 112.31 251.512 112.31 251.605V259.053C112.31 259.286 112.357 259.45 112.45 259.543C112.543 259.627 112.693 259.669 112.898 259.669H113.206C113.299 259.669 113.346 259.716 113.346 259.809V260.929C113.346 261.022 113.299 261.069 113.206 261.069H112.59ZM117.49 261.139C116.8 261.139 116.207 260.976 115.712 260.649C115.227 260.322 114.891 259.865 114.704 259.277C114.63 259.034 114.574 258.792 114.536 258.549C114.499 258.297 114.48 257.984 114.48 257.611C114.48 257.238 114.499 256.93 114.536 256.687C114.574 256.435 114.63 256.188 114.704 255.945C114.891 255.357 115.227 254.9 115.712 254.573C116.207 254.246 116.8 254.083 117.49 254.083C118.172 254.083 118.755 254.246 119.24 254.573C119.735 254.9 120.076 255.357 120.262 255.945C120.337 256.188 120.393 256.435 120.43 256.687C120.468 256.93 120.486 257.238 120.486 257.611C120.486 257.984 120.468 258.297 120.43 258.549C120.393 258.792 120.337 259.034 120.262 259.277C120.076 259.865 119.735 260.322 119.24 260.649C118.755 260.976 118.172 261.139 117.49 261.139ZM117.49 259.739C117.808 259.739 118.069 259.664 118.274 259.515C118.489 259.356 118.648 259.137 118.75 258.857C118.806 258.68 118.844 258.502 118.862 258.325C118.881 258.138 118.89 257.9 118.89 257.611C118.89 257.322 118.881 257.088 118.862 256.911C118.844 256.734 118.806 256.552 118.75 256.365C118.648 256.085 118.489 255.87 118.274 255.721C118.069 255.562 117.808 255.483 117.49 255.483C117.173 255.483 116.907 255.562 116.692 255.721C116.478 255.87 116.319 256.085 116.216 256.365C116.16 256.552 116.123 256.734 116.104 256.911C116.086 257.088 116.076 257.322 116.076 257.611C116.076 257.9 116.086 258.138 116.104 258.325C116.123 258.502 116.16 258.68 116.216 258.857C116.319 259.137 116.478 259.356 116.692 259.515C116.907 259.664 117.173 259.739 117.49 259.739ZM122.312 260.985C122.219 260.985 122.172 260.938 122.172 260.845V254.377C122.172 254.284 122.219 254.237 122.312 254.237H123.6C123.694 254.237 123.74 254.284 123.74 254.377V254.951H123.754C123.913 254.69 124.137 254.48 124.426 254.321C124.716 254.162 125.075 254.083 125.504 254.083C125.775 254.083 126.032 254.134 126.274 254.237C126.526 254.33 126.741 254.466 126.918 254.643C126.984 254.708 126.993 254.774 126.946 254.839L126.204 255.777C126.148 255.852 126.083 255.861 126.008 255.805C125.85 255.702 125.691 255.623 125.532 255.567C125.374 255.511 125.201 255.483 125.014 255.483C124.566 255.483 124.24 255.632 124.034 255.931C123.838 256.23 123.74 256.65 123.74 257.191V260.845C123.74 260.938 123.694 260.985 123.6 260.985H122.312Z" fill="#344767"/>
<path d="M223.054 252.907V252.865H220.688C220.632 252.865 220.604 252.893 220.604 252.949V254.041C220.604 254.134 220.557 254.181 220.464 254.181H219.26C219.167 254.181 219.12 254.134 219.12 254.041V251.605C219.12 251.512 219.167 251.465 219.26 251.465H224.594C224.687 251.465 224.734 251.512 224.734 251.605V252.697C224.734 252.8 224.72 252.884 224.692 252.949L221.542 260.859C221.523 260.906 221.5 260.938 221.472 260.957C221.453 260.976 221.416 260.985 221.36 260.985H220.03C219.927 260.985 219.899 260.934 219.946 260.831L223.054 252.907ZM226.818 259.179C226.799 259.095 226.836 259.039 226.93 259.011L228.12 258.717C228.204 258.708 228.26 258.745 228.288 258.829C228.381 259.1 228.535 259.319 228.75 259.487C228.964 259.655 229.249 259.739 229.604 259.739C229.874 259.739 230.117 259.674 230.332 259.543C230.546 259.403 230.696 259.207 230.78 258.955C230.826 258.824 230.859 258.68 230.878 258.521C230.896 258.353 230.906 258.148 230.906 257.905C230.906 257.644 230.896 257.434 230.878 257.275C230.859 257.116 230.826 256.976 230.78 256.855C230.686 256.575 230.532 256.374 230.318 256.253C230.103 256.132 229.86 256.071 229.59 256.071C229.272 256.071 229.016 256.141 228.82 256.281C228.633 256.421 228.502 256.57 228.428 256.729C228.39 256.822 228.334 256.869 228.26 256.869H227.084C226.99 256.869 226.944 256.822 226.944 256.729V251.605C226.944 251.512 226.99 251.465 227.084 251.465H232.152C232.245 251.465 232.292 251.512 232.292 251.605V252.725C232.292 252.818 232.245 252.865 232.152 252.865H228.47C228.414 252.865 228.386 252.893 228.386 252.949V255.091H228.428C228.54 254.998 228.712 254.904 228.946 254.811C229.188 254.718 229.482 254.671 229.828 254.671C230.444 254.671 230.962 254.811 231.382 255.091C231.811 255.362 232.11 255.758 232.278 256.281C232.343 256.486 232.394 256.71 232.432 256.953C232.469 257.196 232.488 257.513 232.488 257.905C232.488 258.512 232.422 259.011 232.292 259.403C232.105 259.963 231.769 260.392 231.284 260.691C230.798 260.99 230.238 261.139 229.604 261.139C229.24 261.139 228.899 261.092 228.582 260.999C228.264 260.906 227.984 260.775 227.742 260.607C227.499 260.43 227.298 260.224 227.14 259.991C226.981 259.748 226.874 259.478 226.818 259.179ZM234.501 259.277C234.473 259.184 234.445 259.076 234.417 258.955C234.389 258.824 234.366 258.652 234.347 258.437C234.338 258.213 234.329 257.928 234.319 257.583C234.31 257.228 234.305 256.776 234.305 256.225C234.305 255.674 234.31 255.226 234.319 254.881C234.329 254.526 234.338 254.242 234.347 254.027C234.366 253.803 234.389 253.63 234.417 253.509C234.445 253.388 234.473 253.276 234.501 253.173C234.688 252.576 235.005 252.118 235.453 251.801C235.911 251.474 236.494 251.311 237.203 251.311C237.913 251.311 238.491 251.474 238.939 251.801C239.397 252.118 239.723 252.576 239.919 253.173C239.947 253.276 239.975 253.388 240.003 253.509C240.031 253.63 240.05 253.803 240.059 254.027C240.078 254.242 240.092 254.526 240.101 254.881C240.111 255.226 240.115 255.674 240.115 256.225C240.115 256.776 240.111 257.228 240.101 257.583C240.092 257.928 240.078 258.213 240.059 258.437C240.05 258.652 240.031 258.824 240.003 258.955C239.975 259.076 239.947 259.184 239.919 259.277C239.723 259.874 239.397 260.336 238.939 260.663C238.491 260.98 237.913 261.139 237.203 261.139C236.494 261.139 235.911 260.98 235.453 260.663C235.005 260.336 234.688 259.874 234.501 259.277ZM236.041 258.983C236.219 259.487 236.606 259.739 237.203 259.739C237.801 259.739 238.193 259.487 238.379 258.983C238.407 258.908 238.426 258.824 238.435 258.731C238.454 258.638 238.468 258.493 238.477 258.297C238.487 258.101 238.491 257.84 238.491 257.513C238.501 257.186 238.505 256.757 238.505 256.225C238.505 255.693 238.501 255.264 238.491 254.937C238.491 254.61 238.487 254.349 238.477 254.153C238.468 253.957 238.454 253.812 238.435 253.719C238.426 253.626 238.407 253.542 238.379 253.467C238.193 252.963 237.801 252.711 237.203 252.711C236.606 252.711 236.219 252.963 236.041 253.467C236.013 253.542 235.99 253.626 235.971 253.719C235.962 253.812 235.953 253.957 235.943 254.153C235.934 254.349 235.925 254.61 235.915 254.937C235.915 255.264 235.915 255.693 235.915 256.225C235.915 256.757 235.915 257.186 235.915 257.513C235.925 257.84 235.934 258.101 235.943 258.297C235.953 258.493 235.962 258.638 235.971 258.731C235.99 258.824 236.013 258.908 236.041 258.983ZM248.405 261.139C248.051 261.139 247.705 261.106 247.369 261.041C247.033 260.976 246.711 260.887 246.403 260.775C246.105 260.663 245.825 260.532 245.563 260.383C245.311 260.224 245.092 260.056 244.905 259.879C244.831 259.804 244.821 259.734 244.877 259.669L245.745 258.661C245.811 258.586 245.876 258.582 245.941 258.647C246.091 258.768 246.259 258.89 246.445 259.011C246.641 259.132 246.847 259.24 247.061 259.333C247.285 259.426 247.519 259.506 247.761 259.571C248.004 259.627 248.261 259.655 248.531 259.655C249.101 259.655 249.539 259.529 249.847 259.277C250.165 259.016 250.323 258.684 250.323 258.283C250.323 257.938 250.197 257.658 249.945 257.443C249.693 257.219 249.241 257.06 248.587 256.967L248.083 256.897C247.159 256.766 246.45 256.482 245.955 256.043C245.461 255.595 245.213 254.974 245.213 254.181C245.213 253.752 245.288 253.36 245.437 253.005C245.587 252.65 245.801 252.347 246.081 252.095C246.361 251.843 246.697 251.652 247.089 251.521C247.491 251.381 247.939 251.311 248.433 251.311C249.031 251.311 249.595 251.4 250.127 251.577C250.669 251.745 251.131 251.974 251.513 252.263C251.579 252.319 251.588 252.384 251.541 252.459L250.869 253.495C250.813 253.57 250.748 253.584 250.673 253.537C250.281 253.285 249.903 253.098 249.539 252.977C249.175 252.856 248.793 252.795 248.391 252.795C247.906 252.795 247.533 252.916 247.271 253.159C247.019 253.392 246.893 253.696 246.893 254.069C246.893 254.396 247.024 254.671 247.285 254.895C247.547 255.11 247.999 255.264 248.643 255.357L249.147 255.427C250.071 255.558 250.776 255.847 251.261 256.295C251.747 256.734 251.989 257.364 251.989 258.185C251.989 258.605 251.915 258.997 251.765 259.361C251.616 259.725 251.387 260.038 251.079 260.299C250.781 260.56 250.407 260.766 249.959 260.915C249.511 261.064 248.993 261.139 248.405 261.139ZM255.994 251.605C256.022 251.512 256.083 251.465 256.176 251.465H257.464C257.558 251.465 257.618 251.512 257.646 251.605L260.866 260.845C260.894 260.938 260.862 260.985 260.768 260.985H259.396C259.303 260.985 259.242 260.938 259.214 260.845L258.584 258.997H255L254.37 260.845C254.342 260.938 254.282 260.985 254.188 260.985H252.83C252.737 260.985 252.704 260.938 252.732 260.845L255.994 251.605ZM258.08 257.527L256.82 253.831H256.778L255.504 257.527H258.08ZM267.575 260.985C267.472 260.985 267.402 260.938 267.365 260.845L265.545 257.135H263.907C263.851 257.135 263.823 257.163 263.823 257.219V260.845C263.823 260.938 263.776 260.985 263.683 260.985H262.311C262.218 260.985 262.171 260.938 262.171 260.845V251.605C262.171 251.512 262.218 251.465 262.311 251.465H265.993C266.432 251.465 266.833 251.535 267.197 251.675C267.57 251.815 267.892 252.011 268.163 252.263C268.434 252.506 268.644 252.804 268.793 253.159C268.952 253.504 269.031 253.887 269.031 254.307C269.031 254.932 268.868 255.474 268.541 255.931C268.214 256.388 267.776 256.72 267.225 256.925L269.227 260.803C269.255 260.85 269.255 260.892 269.227 260.929C269.208 260.966 269.176 260.985 269.129 260.985H267.575ZM265.937 255.651C266.376 255.651 266.726 255.53 266.987 255.287C267.258 255.044 267.393 254.718 267.393 254.307C267.393 253.887 267.258 253.556 266.987 253.313C266.726 253.07 266.376 252.949 265.937 252.949H263.907C263.851 252.949 263.823 252.977 263.823 253.033V255.567C263.823 255.623 263.851 255.651 263.907 255.651H265.937Z" fill="#27272A"/>
<path d="M66.022 290.801C65.9753 290.652 65.9333 290.507 65.896 290.367C65.868 290.218 65.8447 290.05 65.826 289.863C65.8073 289.667 65.7933 289.443 65.784 289.191C65.7747 288.93 65.77 288.608 65.77 288.225C65.77 287.852 65.7747 287.534 65.784 287.273C65.7933 287.012 65.8073 286.788 65.826 286.601C65.8447 286.405 65.868 286.237 65.896 286.097C65.9333 285.948 65.9753 285.798 66.022 285.649C66.2647 284.865 66.6707 284.282 67.24 283.899C67.8187 283.507 68.514 283.311 69.326 283.311C70.0913 283.311 70.7493 283.493 71.3 283.857C71.86 284.221 72.2753 284.72 72.546 285.355C72.574 285.439 72.5507 285.495 72.476 285.523L71.286 286.097C71.202 286.144 71.1413 286.12 71.104 286.027C70.9453 285.691 70.726 285.402 70.446 285.159C70.1753 284.916 69.802 284.795 69.326 284.795C68.8687 284.795 68.5 284.907 68.22 285.131C67.9493 285.355 67.7487 285.663 67.618 286.055C67.59 286.158 67.562 286.26 67.534 286.363C67.5153 286.466 67.4967 286.601 67.478 286.769C67.4687 286.928 67.4593 287.124 67.45 287.357C67.45 287.59 67.45 287.88 67.45 288.225C67.45 288.58 67.45 288.874 67.45 289.107C67.4593 289.331 67.4687 289.527 67.478 289.695C67.4967 289.854 67.5153 289.989 67.534 290.101C67.562 290.204 67.59 290.302 67.618 290.395C67.7487 290.787 67.9493 291.095 68.22 291.319C68.5 291.543 68.8687 291.655 69.326 291.655C69.802 291.655 70.1753 291.534 70.446 291.291C70.726 291.048 70.9453 290.759 71.104 290.423C71.1413 290.33 71.202 290.306 71.286 290.353L72.476 290.927C72.5507 290.955 72.574 291.011 72.546 291.095C72.2753 291.73 71.86 292.229 71.3 292.593C70.7493 292.957 70.0913 293.139 69.326 293.139C68.514 293.139 67.8187 292.948 67.24 292.565C66.6707 292.173 66.2647 291.585 66.022 290.801ZM76.7207 293.139C76.0301 293.139 75.4374 292.976 74.9427 292.649C74.4574 292.322 74.1214 291.865 73.9347 291.277C73.8601 291.034 73.8041 290.792 73.7667 290.549C73.7294 290.297 73.7107 289.984 73.7107 289.611C73.7107 289.238 73.7294 288.93 73.7667 288.687C73.8041 288.435 73.8601 288.188 73.9347 287.945C74.1214 287.357 74.4574 286.9 74.9427 286.573C75.4374 286.246 76.0301 286.083 76.7207 286.083C77.4021 286.083 77.9854 286.246 78.4707 286.573C78.9654 286.9 79.3061 287.357 79.4927 287.945C79.5674 288.188 79.6234 288.435 79.6607 288.687C79.6981 288.93 79.7167 289.238 79.7167 289.611C79.7167 289.984 79.6981 290.297 79.6607 290.549C79.6234 290.792 79.5674 291.034 79.4927 291.277C79.3061 291.865 78.9654 292.322 78.4707 292.649C77.9854 292.976 77.4021 293.139 76.7207 293.139ZM76.7207 291.739C77.0381 291.739 77.2994 291.664 77.5047 291.515C77.7194 291.356 77.8781 291.137 77.9807 290.857C78.0367 290.68 78.0741 290.502 78.0927 290.325C78.1114 290.138 78.1207 289.9 78.1207 289.611C78.1207 289.322 78.1114 289.088 78.0927 288.911C78.0741 288.734 78.0367 288.552 77.9807 288.365C77.8781 288.085 77.7194 287.87 77.5047 287.721C77.2994 287.562 77.0381 287.483 76.7207 287.483C76.4034 287.483 76.1374 287.562 75.9227 287.721C75.7081 287.87 75.5494 288.085 75.4467 288.365C75.3907 288.552 75.3534 288.734 75.3347 288.911C75.3161 289.088 75.3067 289.322 75.3067 289.611C75.3067 289.9 75.3161 290.138 75.3347 290.325C75.3534 290.502 75.3907 290.68 75.4467 290.857C75.5494 291.137 75.7081 291.356 75.9227 291.515C76.1374 291.664 76.4034 291.739 76.7207 291.739ZM85.5469 292.985C85.4535 292.985 85.4069 292.938 85.4069 292.845V292.355H85.3929C85.2062 292.588 84.9729 292.78 84.6929 292.929C84.4222 293.069 84.0722 293.139 83.6429 293.139C83.2789 293.139 82.9522 293.078 82.6629 292.957C82.3829 292.826 82.1402 292.649 81.9349 292.425C81.7389 292.201 81.5849 291.94 81.4729 291.641C81.3702 291.333 81.3189 290.997 81.3189 290.633V286.377C81.3189 286.284 81.3655 286.237 81.4589 286.237H82.7469C82.8402 286.237 82.8869 286.284 82.8869 286.377V290.269C82.8869 290.708 82.9895 291.062 83.1949 291.333C83.4002 291.604 83.7175 291.739 84.1469 291.739C84.5482 291.739 84.8562 291.604 85.0709 291.333C85.2949 291.062 85.4069 290.712 85.4069 290.283V286.377C85.4069 286.284 85.4535 286.237 85.5469 286.237H86.8349C86.9282 286.237 86.9749 286.284 86.9749 286.377V292.845C86.9749 292.938 86.9282 292.985 86.8349 292.985H85.5469ZM89.1581 295.505C89.0648 295.505 89.0181 295.458 89.0181 295.365V286.377C89.0181 286.284 89.0648 286.237 89.1581 286.237H90.4461C90.5394 286.237 90.5861 286.284 90.5861 286.377V286.881H90.6001C90.7588 286.648 90.9828 286.456 91.2721 286.307C91.5614 286.158 91.9348 286.083 92.3921 286.083C92.9708 286.083 93.4608 286.218 93.8621 286.489C94.2634 286.76 94.5528 287.166 94.7301 287.707C94.8141 287.968 94.8748 288.239 94.9121 288.519C94.9494 288.79 94.9681 289.154 94.9681 289.611C94.9681 290.068 94.9494 290.437 94.9121 290.717C94.8748 290.988 94.8141 291.254 94.7301 291.515C94.5528 292.056 94.2634 292.462 93.8621 292.733C93.4608 293.004 92.9708 293.139 92.3921 293.139C91.9348 293.139 91.5614 293.064 91.2721 292.915C90.9828 292.766 90.7588 292.574 90.6001 292.341H90.5861V295.365C90.5861 295.458 90.5394 295.505 90.4461 295.505H89.1581ZM91.9861 291.739C92.6301 291.739 93.0454 291.45 93.2321 290.871C93.2788 290.712 93.3114 290.54 93.3301 290.353C93.3581 290.166 93.3721 289.919 93.3721 289.611C93.3721 289.303 93.3581 289.056 93.3301 288.869C93.3114 288.682 93.2788 288.51 93.2321 288.351C93.0454 287.772 92.6301 287.483 91.9861 287.483C91.3328 287.483 90.9128 287.772 90.7261 288.351C90.6794 288.51 90.6421 288.682 90.6141 288.869C90.5954 289.056 90.5861 289.303 90.5861 289.611C90.5861 289.919 90.5954 290.166 90.6141 290.353C90.6421 290.54 90.6794 290.712 90.7261 290.871C90.9128 291.45 91.3328 291.739 91.9861 291.739ZM99.293 293.139C98.6023 293.139 98.0097 292.976 97.515 292.649C97.0297 292.322 96.6937 291.865 96.507 291.277C96.4323 291.034 96.3763 290.792 96.339 290.549C96.3017 290.297 96.283 289.984 96.283 289.611C96.283 289.238 96.3017 288.93 96.339 288.687C96.3763 288.435 96.4323 288.188 96.507 287.945C96.6937 287.357 97.0297 286.9 97.515 286.573C98.0097 286.246 98.6023 286.083 99.293 286.083C99.9743 286.083 100.558 286.246 101.043 286.573C101.538 286.9 101.878 287.357 102.065 287.945C102.14 288.188 102.196 288.435 102.233 288.687C102.27 288.93 102.289 289.238 102.289 289.611C102.289 289.984 102.27 290.297 102.233 290.549C102.196 290.792 102.14 291.034 102.065 291.277C101.878 291.865 101.538 292.322 101.043 292.649C100.558 292.976 99.9743 293.139 99.293 293.139ZM99.293 291.739C99.6103 291.739 99.8717 291.664 100.077 291.515C100.292 291.356 100.45 291.137 100.553 290.857C100.609 290.68 100.646 290.502 100.665 290.325C100.684 290.138 100.693 289.9 100.693 289.611C100.693 289.322 100.684 289.088 100.665 288.911C100.646 288.734 100.609 288.552 100.553 288.365C100.45 288.085 100.292 287.87 100.077 287.721C99.8717 287.562 99.6103 287.483 99.293 287.483C98.9757 287.483 98.7097 287.562 98.495 287.721C98.2803 287.87 98.1217 288.085 98.019 288.365C97.963 288.552 97.9257 288.734 97.907 288.911C97.8883 289.088 97.879 289.322 97.879 289.611C97.879 289.9 97.8883 290.138 97.907 290.325C97.9257 290.502 97.963 290.68 98.019 290.857C98.1217 291.137 98.2803 291.356 98.495 291.515C98.7097 291.664 98.9757 291.739 99.293 291.739ZM108.245 292.985C108.152 292.985 108.105 292.938 108.105 292.845V288.953C108.105 288.514 107.998 288.16 107.783 287.889C107.568 287.618 107.251 287.483 106.831 287.483C106.42 287.483 106.103 287.618 105.879 287.889C105.655 288.16 105.543 288.514 105.543 288.953V292.845C105.543 292.938 105.496 292.985 105.403 292.985H104.115C104.022 292.985 103.975 292.938 103.975 292.845V286.377C103.975 286.284 104.022 286.237 104.115 286.237H105.403C105.496 286.237 105.543 286.284 105.543 286.377V286.867H105.557C105.706 286.652 105.926 286.47 106.215 286.321C106.514 286.162 106.887 286.083 107.335 286.083C107.699 286.083 108.021 286.148 108.301 286.279C108.59 286.4 108.838 286.573 109.043 286.797C109.248 287.021 109.402 287.287 109.505 287.595C109.617 287.894 109.673 288.225 109.673 288.589V292.845C109.673 292.938 109.626 292.985 109.533 292.985H108.245Z" fill="#344767"/>
<path d="M216.77 289.961C216.677 289.961 216.63 289.914 216.63 289.821V288.715C216.63 288.622 216.677 288.575 216.77 288.575H220.62C220.713 288.575 220.76 288.622 220.76 288.715V289.821C220.76 289.914 220.713 289.961 220.62 289.961H216.77ZM224.845 285.341H224.817L223.361 286.363C223.258 286.428 223.207 286.4 223.207 286.279V284.851C223.207 284.776 223.239 284.711 223.305 284.655L224.831 283.549C224.896 283.493 224.98 283.465 225.083 283.465H226.273C226.366 283.465 226.413 283.512 226.413 283.605V292.845C226.413 292.938 226.366 292.985 226.273 292.985H224.985C224.891 292.985 224.845 292.938 224.845 292.845V285.341ZM230.204 291.277C230.176 291.184 230.148 291.076 230.12 290.955C230.092 290.824 230.069 290.652 230.05 290.437C230.041 290.213 230.032 289.928 230.022 289.583C230.013 289.228 230.008 288.776 230.008 288.225C230.008 287.674 230.013 287.226 230.022 286.881C230.032 286.526 230.041 286.242 230.05 286.027C230.069 285.803 230.092 285.63 230.12 285.509C230.148 285.388 230.176 285.276 230.204 285.173C230.391 284.576 230.708 284.118 231.156 283.801C231.614 283.474 232.197 283.311 232.906 283.311C233.616 283.311 234.194 283.474 234.642 283.801C235.1 284.118 235.426 284.576 235.622 285.173C235.65 285.276 235.678 285.388 235.706 285.509C235.734 285.63 235.753 285.803 235.762 286.027C235.781 286.242 235.795 286.526 235.804 286.881C235.814 287.226 235.818 287.674 235.818 288.225C235.818 288.776 235.814 289.228 235.804 289.583C235.795 289.928 235.781 290.213 235.762 290.437C235.753 290.652 235.734 290.824 235.706 290.955C235.678 291.076 235.65 291.184 235.622 291.277C235.426 291.874 235.1 292.336 234.642 292.663C234.194 292.98 233.616 293.139 232.906 293.139C232.197 293.139 231.614 292.98 231.156 292.663C230.708 292.336 230.391 291.874 230.204 291.277ZM231.744 290.983C231.922 291.487 232.309 291.739 232.906 291.739C233.504 291.739 233.896 291.487 234.082 290.983C234.11 290.908 234.129 290.824 234.138 290.731C234.157 290.638 234.171 290.493 234.18 290.297C234.19 290.101 234.194 289.84 234.194 289.513C234.204 289.186 234.208 288.757 234.208 288.225C234.208 287.693 234.204 287.264 234.194 286.937C234.194 286.61 234.19 286.349 234.18 286.153C234.171 285.957 234.157 285.812 234.138 285.719C234.129 285.626 234.11 285.542 234.082 285.467C233.896 284.963 233.504 284.711 232.906 284.711C232.309 284.711 231.922 284.963 231.744 285.467C231.716 285.542 231.693 285.626 231.674 285.719C231.665 285.812 231.656 285.957 231.646 286.153C231.637 286.349 231.628 286.61 231.618 286.937C231.618 287.264 231.618 287.693 231.618 288.225C231.618 288.757 231.618 289.186 231.618 289.513C231.628 289.84 231.637 290.101 231.646 290.297C231.656 290.493 231.665 290.638 231.674 290.731C231.693 290.824 231.716 290.908 231.744 290.983ZM237.888 291.277C237.86 291.184 237.832 291.076 237.804 290.955C237.776 290.824 237.753 290.652 237.734 290.437C237.725 290.213 237.715 289.928 237.706 289.583C237.697 289.228 237.692 288.776 237.692 288.225C237.692 287.674 237.697 287.226 237.706 286.881C237.715 286.526 237.725 286.242 237.734 286.027C237.753 285.803 237.776 285.63 237.804 285.509C237.832 285.388 237.86 285.276 237.888 285.173C238.075 284.576 238.392 284.118 238.84 283.801C239.297 283.474 239.881 283.311 240.59 283.311C241.299 283.311 241.878 283.474 242.326 283.801C242.783 284.118 243.11 284.576 243.306 285.173C243.334 285.276 243.362 285.388 243.39 285.509C243.418 285.63 243.437 285.803 243.446 286.027C243.465 286.242 243.479 286.526 243.488 286.881C243.497 287.226 243.502 287.674 243.502 288.225C243.502 288.776 243.497 289.228 243.488 289.583C243.479 289.928 243.465 290.213 243.446 290.437C243.437 290.652 243.418 290.824 243.39 290.955C243.362 291.076 243.334 291.184 243.306 291.277C243.11 291.874 242.783 292.336 242.326 292.663C241.878 292.98 241.299 293.139 240.59 293.139C239.881 293.139 239.297 292.98 238.84 292.663C238.392 292.336 238.075 291.874 237.888 291.277ZM239.428 290.983C239.605 291.487 239.993 291.739 240.59 291.739C241.187 291.739 241.579 291.487 241.766 290.983C241.794 290.908 241.813 290.824 241.822 290.731C241.841 290.638 241.855 290.493 241.864 290.297C241.873 290.101 241.878 289.84 241.878 289.513C241.887 289.186 241.892 288.757 241.892 288.225C241.892 287.693 241.887 287.264 241.878 286.937C241.878 286.61 241.873 286.349 241.864 286.153C241.855 285.957 241.841 285.812 241.822 285.719C241.813 285.626 241.794 285.542 241.766 285.467C241.579 284.963 241.187 284.711 240.59 284.711C239.993 284.711 239.605 284.963 239.428 285.467C239.4 285.542 239.377 285.626 239.358 285.719C239.349 285.812 239.339 285.957 239.33 286.153C239.321 286.349 239.311 286.61 239.302 286.937C239.302 287.264 239.302 287.693 239.302 288.225C239.302 288.757 239.302 289.186 239.302 289.513C239.311 289.84 239.321 290.101 239.33 290.297C239.339 290.493 239.349 290.638 239.358 290.731C239.377 290.824 239.4 290.908 239.428 290.983ZM248.484 293.139C248.129 293.139 247.784 293.106 247.448 293.041C247.112 292.976 246.79 292.887 246.482 292.775C246.183 292.663 245.903 292.532 245.642 292.383C245.39 292.224 245.17 292.056 244.984 291.879C244.909 291.804 244.9 291.734 244.956 291.669L245.824 290.661C245.889 290.586 245.954 290.582 246.02 290.647C246.169 290.768 246.337 290.89 246.524 291.011C246.72 291.132 246.925 291.24 247.14 291.333C247.364 291.426 247.597 291.506 247.84 291.571C248.082 291.627 248.339 291.655 248.61 291.655C249.179 291.655 249.618 291.529 249.926 291.277C250.243 291.016 250.402 290.684 250.402 290.283C250.402 289.938 250.276 289.658 250.024 289.443C249.772 289.219 249.319 289.06 248.666 288.967L248.162 288.897C247.238 288.766 246.528 288.482 246.034 288.043C245.539 287.595 245.292 286.974 245.292 286.181C245.292 285.752 245.366 285.36 245.516 285.005C245.665 284.65 245.88 284.347 246.16 284.095C246.44 283.843 246.776 283.652 247.168 283.521C247.569 283.381 248.017 283.311 248.512 283.311C249.109 283.311 249.674 283.4 250.206 283.577C250.747 283.745 251.209 283.974 251.592 284.263C251.657 284.319 251.666 284.384 251.62 284.459L250.948 285.495C250.892 285.57 250.826 285.584 250.752 285.537C250.36 285.285 249.982 285.098 249.618 284.977C249.254 284.856 248.871 284.795 248.47 284.795C247.984 284.795 247.611 284.916 247.35 285.159C247.098 285.392 246.972 285.696 246.972 286.069C246.972 286.396 247.102 286.671 247.364 286.895C247.625 287.11 248.078 287.264 248.722 287.357L249.226 287.427C250.15 287.558 250.854 287.847 251.34 288.295C251.825 288.734 252.068 289.364 252.068 290.185C252.068 290.605 251.993 290.997 251.844 291.361C251.694 291.725 251.466 292.038 251.158 292.299C250.859 292.56 250.486 292.766 250.038 292.915C249.59 293.064 249.072 293.139 248.484 293.139ZM256.073 283.605C256.101 283.512 256.161 283.465 256.255 283.465H257.543C257.636 283.465 257.697 283.512 257.725 283.605L260.945 292.845C260.973 292.938 260.94 292.985 260.847 292.985H259.475C259.381 292.985 259.321 292.938 259.293 292.845L258.663 290.997H255.079L254.449 292.845C254.421 292.938 254.36 292.985 254.267 292.985H252.909C252.815 292.985 252.783 292.938 252.811 292.845L256.073 283.605ZM258.159 289.527L256.899 285.831H256.857L255.583 289.527H258.159ZM267.653 292.985C267.551 292.985 267.481 292.938 267.443 292.845L265.623 289.135H263.985C263.929 289.135 263.901 289.163 263.901 289.219V292.845C263.901 292.938 263.855 292.985 263.761 292.985H262.389C262.296 292.985 262.249 292.938 262.249 292.845V283.605C262.249 283.512 262.296 283.465 262.389 283.465H266.071C266.51 283.465 266.911 283.535 267.275 283.675C267.649 283.815 267.971 284.011 268.241 284.263C268.512 284.506 268.722 284.804 268.871 285.159C269.03 285.504 269.109 285.887 269.109 286.307C269.109 286.932 268.946 287.474 268.619 287.931C268.293 288.388 267.854 288.72 267.303 288.925L269.305 292.803C269.333 292.85 269.333 292.892 269.305 292.929C269.287 292.966 269.254 292.985 269.207 292.985H267.653ZM266.015 287.651C266.454 287.651 266.804 287.53 267.065 287.287C267.336 287.044 267.471 286.718 267.471 286.307C267.471 285.887 267.336 285.556 267.065 285.313C266.804 285.07 266.454 284.949 266.015 284.949H263.985C263.929 284.949 263.901 284.977 263.901 285.033V287.567C263.901 287.623 263.929 287.651 263.985 287.651H266.015Z" fill="#DE0404"/>
<line x1="65" y1="307.485" x2="270" y2="307.485" stroke="#E5E7EB"/>
<path d="M68.164 336.985C68.0707 336.985 68.024 336.938 68.024 336.845V329.033C68.024 328.977 67.996 328.949 67.94 328.949H65.448C65.3547 328.949 65.308 328.902 65.308 328.809V327.605C65.308 327.512 65.3547 327.465 65.448 327.465H72.252C72.3453 327.465 72.392 327.512 72.392 327.605V328.809C72.392 328.902 72.3453 328.949 72.252 328.949H69.76C69.704 328.949 69.676 328.977 69.676 329.033V336.845C69.676 336.938 69.6293 336.985 69.536 336.985H68.164ZM76.3653 337.139C75.6746 337.139 75.0819 336.976 74.5873 336.649C74.1019 336.322 73.7659 335.865 73.5793 335.277C73.5046 335.034 73.4486 334.792 73.4113 334.549C73.3739 334.297 73.3553 333.984 73.3553 333.611C73.3553 333.238 73.3739 332.93 73.4113 332.687C73.4486 332.435 73.5046 332.188 73.5793 331.945C73.7659 331.357 74.1019 330.9 74.5873 330.573C75.0819 330.246 75.6746 330.083 76.3653 330.083C77.0466 330.083 77.6299 330.246 78.1153 330.573C78.6099 330.9 78.9506 331.357 79.1373 331.945C79.2119 332.188 79.2679 332.435 79.3053 332.687C79.3426 332.93 79.3613 333.238 79.3613 333.611C79.3613 333.984 79.3426 334.297 79.3053 334.549C79.2679 334.792 79.2119 335.034 79.1373 335.277C78.9506 335.865 78.6099 336.322 78.1153 336.649C77.6299 336.976 77.0466 337.139 76.3653 337.139ZM76.3653 335.739C76.6826 335.739 76.9439 335.664 77.1493 335.515C77.3639 335.356 77.5226 335.137 77.6253 334.857C77.6813 334.68 77.7186 334.502 77.7373 334.325C77.7559 334.138 77.7653 333.9 77.7653 333.611C77.7653 333.322 77.7559 333.088 77.7373 332.911C77.7186 332.734 77.6813 332.552 77.6253 332.365C77.5226 332.085 77.3639 331.87 77.1493 331.721C76.9439 331.562 76.6826 331.483 76.3653 331.483C76.0479 331.483 75.7819 331.562 75.5673 331.721C75.3526 331.87 75.1939 332.085 75.0913 332.365C75.0353 332.552 74.9979 332.734 74.9793 332.911C74.9606 333.088 74.9513 333.322 74.9513 333.611C74.9513 333.9 74.9606 334.138 74.9793 334.325C74.9979 334.502 75.0353 334.68 75.0913 334.857C75.1939 335.137 75.3526 335.356 75.5673 335.515C75.7819 335.664 76.0479 335.739 76.3653 335.739ZM83.0214 337.069C82.3401 337.069 81.8547 336.906 81.5654 336.579C81.2854 336.252 81.1454 335.758 81.1454 335.095V331.539C81.1454 331.483 81.1174 331.455 81.0614 331.455H80.6134C80.5201 331.455 80.4734 331.408 80.4734 331.315V330.377C80.4734 330.284 80.5201 330.237 80.6134 330.237H81.0614C81.1174 330.237 81.1454 330.209 81.1454 330.153V328.305C81.1454 328.212 81.1921 328.165 81.2854 328.165H82.5734C82.6667 328.165 82.7134 328.212 82.7134 328.305V330.153C82.7134 330.209 82.7414 330.237 82.7974 330.237H83.6934C83.7867 330.237 83.8334 330.284 83.8334 330.377V331.315C83.8334 331.408 83.7867 331.455 83.6934 331.455H82.7974C82.7414 331.455 82.7134 331.483 82.7134 331.539V335.039C82.7134 335.282 82.7647 335.45 82.8674 335.543C82.9701 335.627 83.1287 335.669 83.3434 335.669H83.6934C83.7867 335.669 83.8334 335.716 83.8334 335.809V336.929C83.8334 337.022 83.7867 337.069 83.6934 337.069H83.0214ZM89.5634 336.985C89.4701 336.985 89.4234 336.938 89.4234 336.845V336.355H89.4094C89.2508 336.588 89.0128 336.78 88.6954 336.929C88.3781 337.069 87.9814 337.139 87.5054 337.139C87.1974 337.139 86.9034 337.097 86.6234 337.013C86.3528 336.929 86.1148 336.803 85.9094 336.635C85.7041 336.467 85.5408 336.257 85.4194 336.005C85.2981 335.744 85.2374 335.436 85.2374 335.081C85.2374 334.344 85.4754 333.802 85.9514 333.457C86.4368 333.112 87.0994 332.939 87.9394 332.939H89.3114C89.3674 332.939 89.3954 332.911 89.3954 332.855V332.533C89.3954 332.141 89.2881 331.856 89.0734 331.679C88.8588 331.502 88.4668 331.413 87.8974 331.413C87.5148 331.413 87.2021 331.46 86.9594 331.553C86.7168 331.637 86.5161 331.744 86.3574 331.875C86.2734 331.94 86.2081 331.931 86.1614 331.847L85.6434 330.923C85.5968 330.848 85.6061 330.788 85.6714 330.741C85.9421 330.545 86.2688 330.386 86.6514 330.265C87.0341 330.144 87.5054 330.083 88.0654 330.083C89.0921 330.083 89.8154 330.27 90.2354 330.643C90.6648 331.016 90.8794 331.614 90.8794 332.435V336.845C90.8794 336.938 90.8328 336.985 90.7394 336.985H89.5634ZM87.8974 335.865C88.3828 335.865 88.7514 335.772 89.0034 335.585C89.2648 335.398 89.3954 335.109 89.3954 334.717V334.199C89.3954 334.143 89.3674 334.115 89.3114 334.115H88.1914C87.6874 334.115 87.3188 334.19 87.0854 334.339C86.8521 334.479 86.7354 334.708 86.7354 335.025C86.7354 335.585 87.1228 335.865 87.8974 335.865ZM94.6936 337.069C94.0309 337.069 93.5549 336.91 93.2656 336.593C92.9856 336.276 92.8456 335.79 92.8456 335.137V327.605C92.8456 327.512 92.8922 327.465 92.9856 327.465H94.2736C94.3669 327.465 94.4136 327.512 94.4136 327.605V335.053C94.4136 335.286 94.4602 335.45 94.5536 335.543C94.6469 335.627 94.7962 335.669 95.0016 335.669H95.3096C95.4029 335.669 95.4496 335.716 95.4496 335.809V336.929C95.4496 337.022 95.4029 337.069 95.3096 337.069H94.6936Z" fill="#344767"/>
<path d="M213.458 329.341H213.43L211.974 330.363C211.871 330.428 211.82 330.4 211.82 330.279V328.851C211.82 328.776 211.853 328.711 211.918 328.655L213.444 327.549C213.509 327.493 213.593 327.465 213.696 327.465H214.886C214.979 327.465 215.026 327.512 215.026 327.605V336.845C215.026 336.938 214.979 336.985 214.886 336.985H213.598C213.505 336.985 213.458 336.938 213.458 336.845V329.341ZM218.468 335.529C218.374 335.529 218.328 335.482 218.328 335.389V334.311C218.328 334.246 218.342 334.19 218.37 334.143L221.45 327.577C221.487 327.502 221.552 327.465 221.646 327.465H222.976C223.078 327.465 223.111 327.507 223.074 327.591L220.05 334.101V334.129H222.206C222.262 334.129 222.29 334.101 222.29 334.045V331.665C222.29 331.572 222.336 331.525 222.43 331.525H223.718C223.811 331.525 223.858 331.572 223.858 331.665V334.045C223.858 334.101 223.886 334.129 223.942 334.129H224.642C224.735 334.129 224.782 334.176 224.782 334.269V335.389C224.782 335.482 224.735 335.529 224.642 335.529H223.942C223.886 335.529 223.858 335.557 223.858 335.613V336.845C223.858 336.938 223.811 336.985 223.718 336.985H222.43C222.336 336.985 222.29 336.938 222.29 336.845V335.613C222.29 335.557 222.262 335.529 222.206 335.529H218.468ZM226.501 335.277C226.473 335.184 226.445 335.076 226.417 334.955C226.389 334.824 226.366 334.652 226.347 334.437C226.338 334.213 226.329 333.928 226.319 333.583C226.31 333.228 226.305 332.776 226.305 332.225C226.305 331.674 226.31 331.226 226.319 330.881C226.329 330.526 226.338 330.242 226.347 330.027C226.366 329.803 226.389 329.63 226.417 329.509C226.445 329.388 226.473 329.276 226.501 329.173C226.688 328.576 227.005 328.118 227.453 327.801C227.911 327.474 228.494 327.311 229.203 327.311C229.913 327.311 230.491 327.474 230.939 327.801C231.397 328.118 231.723 328.576 231.919 329.173C231.947 329.276 231.975 329.388 232.003 329.509C232.031 329.63 232.05 329.803 232.059 330.027C232.078 330.242 232.092 330.526 232.101 330.881C232.111 331.226 232.115 331.674 232.115 332.225C232.115 332.776 232.111 333.228 232.101 333.583C232.092 333.928 232.078 334.213 232.059 334.437C232.05 334.652 232.031 334.824 232.003 334.955C231.975 335.076 231.947 335.184 231.919 335.277C231.723 335.874 231.397 336.336 230.939 336.663C230.491 336.98 229.913 337.139 229.203 337.139C228.494 337.139 227.911 336.98 227.453 336.663C227.005 336.336 226.688 335.874 226.501 335.277ZM228.041 334.983C228.219 335.487 228.606 335.739 229.203 335.739C229.801 335.739 230.193 335.487 230.379 334.983C230.407 334.908 230.426 334.824 230.435 334.731C230.454 334.638 230.468 334.493 230.477 334.297C230.487 334.101 230.491 333.84 230.491 333.513C230.501 333.186 230.505 332.757 230.505 332.225C230.505 331.693 230.501 331.264 230.491 330.937C230.491 330.61 230.487 330.349 230.477 330.153C230.468 329.957 230.454 329.812 230.435 329.719C230.426 329.626 230.407 329.542 230.379 329.467C230.193 328.963 229.801 328.711 229.203 328.711C228.606 328.711 228.219 328.963 228.041 329.467C228.013 329.542 227.99 329.626 227.971 329.719C227.962 329.812 227.953 329.957 227.943 330.153C227.934 330.349 227.925 330.61 227.915 330.937C227.915 331.264 227.915 331.693 227.915 332.225C227.915 332.757 227.915 333.186 227.915 333.513C227.925 333.84 227.934 334.101 227.943 334.297C227.953 334.493 227.962 334.638 227.971 334.731C227.99 334.824 228.013 334.908 228.041 334.983ZM234.185 335.277C234.157 335.184 234.129 335.076 234.101 334.955C234.073 334.824 234.049 334.652 234.031 334.437C234.021 334.213 234.012 333.928 234.003 333.583C233.993 333.228 233.989 332.776 233.989 332.225C233.989 331.674 233.993 331.226 234.003 330.881C234.012 330.526 234.021 330.242 234.031 330.027C234.049 329.803 234.073 329.63 234.101 329.509C234.129 329.388 234.157 329.276 234.185 329.173C234.371 328.576 234.689 328.118 235.137 327.801C235.594 327.474 236.177 327.311 236.887 327.311C237.596 327.311 238.175 327.474 238.623 327.801C239.08 328.118 239.407 328.576 239.603 329.173C239.631 329.276 239.659 329.388 239.687 329.509C239.715 329.63 239.733 329.803 239.743 330.027C239.761 330.242 239.775 330.526 239.785 330.881C239.794 331.226 239.799 331.674 239.799 332.225C239.799 332.776 239.794 333.228 239.785 333.583C239.775 333.928 239.761 334.213 239.743 334.437C239.733 334.652 239.715 334.824 239.687 334.955C239.659 335.076 239.631 335.184 239.603 335.277C239.407 335.874 239.08 336.336 238.623 336.663C238.175 336.98 237.596 337.139 236.887 337.139C236.177 337.139 235.594 336.98 235.137 336.663C234.689 336.336 234.371 335.874 234.185 335.277ZM235.725 334.983C235.902 335.487 236.289 335.739 236.887 335.739C237.484 335.739 237.876 335.487 238.063 334.983C238.091 334.908 238.109 334.824 238.119 334.731C238.137 334.638 238.151 334.493 238.161 334.297C238.17 334.101 238.175 333.84 238.175 333.513C238.184 333.186 238.189 332.757 238.189 332.225C238.189 331.693 238.184 331.264 238.175 330.937C238.175 330.61 238.17 330.349 238.161 330.153C238.151 329.957 238.137 329.812 238.119 329.719C238.109 329.626 238.091 329.542 238.063 329.467C237.876 328.963 237.484 328.711 236.887 328.711C236.289 328.711 235.902 328.963 235.725 329.467C235.697 329.542 235.673 329.626 235.655 329.719C235.645 329.812 235.636 329.957 235.627 330.153C235.617 330.349 235.608 330.61 235.599 330.937C235.599 331.264 235.599 331.693 235.599 332.225C235.599 332.757 235.599 333.186 235.599 333.513C235.608 333.84 235.617 334.101 235.627 334.297C235.636 334.493 235.645 334.638 235.655 334.731C235.673 334.824 235.697 334.908 235.725 334.983ZM248.089 337.139C247.734 337.139 247.389 337.106 247.053 337.041C246.717 336.976 246.395 336.887 246.087 336.775C245.788 336.663 245.508 336.532 245.247 336.383C244.995 336.224 244.776 336.056 244.589 335.879C244.514 335.804 244.505 335.734 244.561 335.669L245.429 334.661C245.494 334.586 245.56 334.582 245.625 334.647C245.774 334.768 245.942 334.89 246.129 335.011C246.325 335.132 246.53 335.24 246.745 335.333C246.969 335.426 247.202 335.506 247.445 335.571C247.688 335.627 247.944 335.655 248.215 335.655C248.784 335.655 249.223 335.529 249.531 335.277C249.848 335.016 250.007 334.684 250.007 334.283C250.007 333.938 249.881 333.658 249.629 333.443C249.377 333.219 248.924 333.06 248.271 332.967L247.767 332.897C246.843 332.766 246.134 332.482 245.639 332.043C245.144 331.595 244.897 330.974 244.897 330.181C244.897 329.752 244.972 329.36 245.121 329.005C245.27 328.65 245.485 328.347 245.765 328.095C246.045 327.843 246.381 327.652 246.773 327.521C247.174 327.381 247.622 327.311 248.117 327.311C248.714 327.311 249.279 327.4 249.811 327.577C250.352 327.745 250.814 327.974 251.197 328.263C251.262 328.319 251.272 328.384 251.225 328.459L250.553 329.495C250.497 329.57 250.432 329.584 250.357 329.537C249.965 329.285 249.587 329.098 249.223 328.977C248.859 328.856 248.476 328.795 248.075 328.795C247.59 328.795 247.216 328.916 246.955 329.159C246.703 329.392 246.577 329.696 246.577 330.069C246.577 330.396 246.708 330.671 246.969 330.895C247.23 331.11 247.683 331.264 248.327 331.357L248.831 331.427C249.755 331.558 250.46 331.847 250.945 332.295C251.43 332.734 251.673 333.364 251.673 334.185C251.673 334.605 251.598 334.997 251.449 335.361C251.3 335.725 251.071 336.038 250.763 336.299C250.464 336.56 250.091 336.766 249.643 336.915C249.195 337.064 248.677 337.139 248.089 337.139ZM255.678 327.605C255.706 327.512 255.767 327.465 255.86 327.465H257.148C257.241 327.465 257.302 327.512 257.33 327.605L260.55 336.845C260.578 336.938 260.545 336.985 260.452 336.985H259.08C258.987 336.985 258.926 336.938 258.898 336.845L258.268 334.997H254.684L254.054 336.845C254.026 336.938 253.965 336.985 253.872 336.985H252.514C252.421 336.985 252.388 336.938 252.416 336.845L255.678 327.605ZM257.764 333.527L256.504 329.831H256.462L255.188 333.527H257.764ZM267.259 336.985C267.156 336.985 267.086 336.938 267.049 336.845L265.229 333.135H263.591C263.535 333.135 263.507 333.163 263.507 333.219V336.845C263.507 336.938 263.46 336.985 263.367 336.985H261.995C261.901 336.985 261.855 336.938 261.855 336.845V327.605C261.855 327.512 261.901 327.465 261.995 327.465H265.677C266.115 327.465 266.517 327.535 266.881 327.675C267.254 327.815 267.576 328.011 267.847 328.263C268.117 328.506 268.327 328.804 268.477 329.159C268.635 329.504 268.715 329.887 268.715 330.307C268.715 330.932 268.551 331.474 268.225 331.931C267.898 332.388 267.459 332.72 266.909 332.925L268.911 336.803C268.939 336.85 268.939 336.892 268.911 336.929C268.892 336.966 268.859 336.985 268.813 336.985H267.259ZM265.621 331.651C266.059 331.651 266.409 331.53 266.671 331.287C266.941 331.044 267.077 330.718 267.077 330.307C267.077 329.887 266.941 329.556 266.671 329.313C266.409 329.07 266.059 328.949 265.621 328.949H263.591C263.535 328.949 263.507 328.977 263.507 329.033V331.567C263.507 331.623 263.535 331.651 263.591 331.651H265.621Z" fill="#27272A"/>
</svg>
