<svg width="15" height="16" viewBox="0 0 15 16" fill="none" xmlns="http://www.w3.org/2000/svg">
<path d="M7.65962 5.37541C9.13672 5.37541 10.3342 6.57286 10.3342 8.05C10.3342 9.5271 9.13672 10.7246 7.65962 10.7246C6.18248 10.7246 4.98503 9.5271 4.98503 8.05C4.98503 7.56282 5.11527 7.10607 5.34284 6.7127M11.6715 4.03811C11.6715 4.22275 11.5218 4.37244 11.3372 4.37244C11.1526 4.37244 11.0029 4.22275 11.0029 4.03811M11.6715 4.03811C11.6715 3.85347 11.5218 3.70379 11.3372 3.70379C11.1526 3.70379 11.0029 3.85347 11.0029 4.03811M11.6715 4.03811H11.0029M6.32232 14.7365H8.99691C10.8693 14.7365 11.8055 14.7365 12.5207 14.3721C13.1497 14.0516 13.6612 13.5401 13.9817 12.9111C14.3461 12.1959 14.3461 11.2597 14.3461 9.38729V6.7127C14.3461 4.84032 14.3461 3.90412 13.9817 3.18897C13.6612 2.5599 13.1497 2.04844 12.5207 1.72792C11.8055 1.36353 10.8693 1.36353 8.99691 1.36353H6.32232C4.44994 1.36353 3.51374 1.36353 2.79858 1.72792C2.16951 2.04844 1.65806 2.5599 1.33754 3.18897C0.973145 3.90412 0.973145 4.84032 0.973145 6.7127V9.38729C0.973145 11.2597 0.973145 12.1959 1.33754 12.9111C1.65806 13.5401 2.16951 14.0516 2.79858 14.3721C3.51374 14.7365 4.44994 14.7365 6.32232 14.7365Z" stroke="white" stroke-width="1.00297" stroke-linecap="round" stroke-linejoin="round"/>
</svg>
