<svg width="135" height="60" viewBox="0 0 135 60" fill="none" xmlns="http://www.w3.org/2000/svg">
<path d="M16.1852 29.2528C17.0281 18.3348 28.1714 13.9533 29.3968 9.93269C30.1255 7.54747 29.4647 5.37577 28.4281 3.63941C27.5669 2.19934 26.4475 1.05887 25.6476 0.345455C24.8991 0.194827 24.1407 0.083925 23.3739 0.0144043C23.4286 0.355387 23.465 0.696369 23.4783 1.03901C23.4998 1.48593 23.4468 1.95271 23.3342 2.44432C22.955 4.09957 21.8852 6.03125 20.61 8.33702C19.33 10.6511 17.8528 13.3276 16.8012 16.3137C15.4516 20.1439 14.8057 24.4906 16.1852 29.2528Z" fill="url(#paint0_linear_5003_7711)"/>
<path d="M5.84679 35.1571C9.14059 38.8532 13.6913 41.3196 18.7024 41.9916C16.7069 37.9263 15.6884 34.1242 15.6669 30.6763C12.3698 21.3191 16.6622 13.556 19.7986 7.8851C21.3172 5.13572 22.6271 2.7654 22.5542 1.08035C22.5426 0.861857 22.5244 0.641708 22.4946 0.421559C22.4946 0.418249 22.4946 0.416593 22.4946 0.416593C21.9034 0.385144 21.3139 0.383488 20.721 0.405007V0.408317C20.2193 1.93943 18.4208 5.99976 12.5602 10.3763C11.4756 11.1873 10.4637 12.1441 9.54797 13.2134C7.16829 15.9859 5.42948 19.5099 4.69256 23.1532C4.61307 23.5355 4.54517 23.9212 4.49218 24.3052C3.96888 27.96 4.43753 31.633 5.84679 35.1587V35.1571Z" fill="url(#paint1_linear_5003_7711)"/>
<path d="M2.46011 29.9796C2.93704 31.0191 3.49511 32.0122 4.12605 32.9475C3.34276 30.0657 3.15066 27.116 3.57294 24.1746C4.39929 18.3928 7.55233 12.9553 12.007 9.6299C17.2085 5.74999 19.0864 2.09519 19.7024 0.473037C19.7024 0.469727 19.7058 0.469727 19.7058 0.469727C18.7138 0.554145 17.7285 0.708083 16.7581 0.931542C15.3869 1.24935 14.0472 1.70289 12.7605 2.29216C12.676 2.33023 12.5932 2.3683 12.5104 2.40968C6.09339 5.44708 1.92356 11.3679 0.843845 17.9128C0.189723 21.8755 0.666653 26.0649 2.46011 29.9813V29.9796Z" fill="url(#paint2_linear_5003_7711)"/>
<path d="M38.1271 23.7112C37.5309 28.0463 36.9596 32.2175 38.3424 34.9967C43.7211 28.8656 45.3258 19.9124 41.709 12.0185C39.0909 6.30287 34.2719 2.29716 28.7144 0.545898C31.8475 2.60503 36.9546 6.768 38.407 12.7402C39.1886 15.9547 38.6487 19.8958 38.1254 23.7112H38.1271Z" fill="url(#paint3_linear_5003_7711)"/>
<path d="M18.1792 29.5147C19.0403 30.0047 19.966 30.382 20.9083 30.7048C21.8522 31.0243 22.821 31.266 23.7964 31.4861C24.27 31.5937 24.7469 31.6864 25.2255 31.7691C24.7353 33.3168 24.3727 38.2313 27.0835 41.7172C27.3303 41.6593 27.577 41.5997 27.8221 41.5318C28.9565 41.2256 30.0793 40.8234 31.1822 40.3185C33.6877 39.1714 35.8637 37.6023 37.6687 35.7318C35.9631 32.6713 36.5923 28.0746 37.2084 23.5856C37.7201 19.8579 38.2483 16.0012 37.5081 12.9605C36.0078 6.77316 30.1488 2.51419 27.327 0.777832C28.9929 2.49102 31.0795 5.41089 30.4121 8.8323C30.4866 9.1021 30.5612 9.38681 30.634 9.68475C30.7665 10.2409 30.9139 10.7375 31.0729 11.1828C31.1275 11.1894 31.1822 11.196 31.2385 11.196C31.366 11.2026 31.4985 11.1894 31.6309 11.1679C31.8976 11.1265 32.1609 11.0354 32.4142 10.913C32.6709 10.7954 32.9061 10.6316 33.1379 10.4611C33.2505 10.37 33.3598 10.2757 33.4691 10.1797L33.7838 9.87345L33.5221 10.2293C33.4277 10.3402 33.3333 10.4544 33.234 10.5653C33.027 10.7789 32.8117 10.9891 32.5583 11.1596C32.3116 11.3334 32.0383 11.484 31.7353 11.5866C31.5862 11.6346 31.4322 11.6744 31.2699 11.6959C32.343 14.2764 33.8815 14.917 35.564 15.7976C37.263 16.6881 35.8074 18.0802 35.1963 18.9608C35.0672 19.1445 34.9761 19.3067 34.9579 19.4375C34.9264 19.6626 34.9529 19.8414 35.0042 19.9953C35.1235 20.3545 35.3801 20.568 35.3288 20.8842C35.2708 21.2368 34.8055 21.6307 34.5968 21.836C34.5389 21.8939 34.5008 21.9369 34.4991 21.9585C34.4991 21.9734 34.5174 21.9883 34.5554 22.0048C34.7492 22.0892 35.41 22.2018 35.4861 22.7232C35.5772 23.3406 34.7691 23.7544 34.567 23.8421C34.3667 23.9266 34.2127 24.6681 34.7807 26.2538C35.3222 27.7667 35.2924 29.2598 32.9773 30.0543C32.8663 30.094 32.7471 30.1321 32.6229 30.1669C31.5779 30.4665 30.3393 30.632 29.1867 30.7512C28.4133 30.7909 27.6217 30.8008 26.8368 30.7992C25.8647 30.7892 24.8877 30.7628 23.9156 30.6817C22.9419 30.5989 21.9698 30.4963 21.011 30.3092C20.0521 30.1238 19.1016 29.8822 18.1809 29.5147H18.1792Z" fill="url(#paint4_linear_5003_7711)"/>
<g style="mix-blend-mode:overlay" opacity="0.2">
<path d="M18.3294 17.0718C19.3893 12.6175 23.6237 11.1278 25.2383 7.11875C26.8529 3.10973 23.3736 0.0144043 23.3736 0.0144043C23.4283 0.355387 23.4647 0.696369 23.478 1.03901C23.4995 1.48593 23.4465 1.95271 23.3339 2.44432C24.0874 4.98017 23.2345 7.92817 20.5584 10.9507C17.2414 14.6982 18.3294 17.0735 18.3294 17.0735V17.0718Z" fill="white"/>
</g>
<g style="mix-blend-mode:overlay" opacity="0.2">
<path d="M9.24169 32.4307C6.03401 24.1313 11.4508 12.9997 16.2251 8.71096C20.9298 4.49171 20.7294 0.530692 20.7211 0.408203C20.221 1.93931 18.4226 5.99965 12.562 10.3761C11.4773 11.1872 10.4655 12.144 9.54971 13.2132C4.51876 23.0802 9.24335 32.4307 9.24335 32.4307H9.24169Z" fill="white"/>
</g>
<g style="mix-blend-mode:overlay" opacity="0.2">
<path d="M3.78955 13.8093C5.17066 9.05538 9.09705 7.74277 12.8512 5.10926C15.2259 3.44242 16.2941 1.86496 16.7577 0.931396C15.3866 1.24921 14.0469 1.70274 12.7601 2.29202C12.6757 2.33009 12.5929 2.36816 12.5101 2.40954C11.9255 3.97375 9.58557 5.9253 6.89125 8.10692C3.8707 10.5484 3.79121 13.7116 3.78955 13.8093Z" fill="white"/>
</g>
<path d="M21.9822 43.3204C14.9988 43.3204 8.79373 40.0016 4.84912 34.8604C12.5645 46.2071 21.9822 59.9854 21.9822 59.9854C21.9822 59.9854 31.7129 45.641 39.1152 34.8604C35.1706 40.0016 28.9655 43.3204 21.9822 43.3204Z" fill="url(#paint5_linear_5003_7711)"/>
<path d="M69.8837 24.8036V25.2008H61.4629V24.8036H63.0278L59.2273 16.8832L57.9853 18.4226V24.8036H59.5502V25.2008H51.3281V24.8036H52.9179V8.43974H51.3281V8.04248H59.1528V8.43974H57.9853V17.6016L63.6737 10.6247C64.1208 10.0619 64.3443 9.61166 64.3443 9.27068C64.3443 8.9297 64.182 8.70789 63.8608 8.6003C63.5379 8.49271 62.9699 8.43974 62.1584 8.43974H60.8419V8.04248H68.1449V8.43974C66.7869 8.43974 65.6857 8.95287 64.8411 9.97913L62.531 12.8344L68.8901 24.8019H69.8837V24.8036Z" fill="#643E98"/>
<path d="M83.0263 24.2571C83.6556 24.2571 84.0613 23.4295 84.2435 21.7742L84.6906 21.8239C84.3759 24.3895 83.225 25.6724 81.2378 25.6724C80.4098 25.6724 79.7391 25.3959 79.2258 24.8398C78.7124 24.2853 78.4226 23.6199 78.3564 22.8419H78.2073C77.9755 23.7357 77.5863 24.4309 77.0398 24.9275C76.4934 25.4241 75.6273 25.6724 74.4432 25.6724C73.2592 25.6724 72.2656 25.4125 71.4624 24.8894C70.6592 24.368 70.2568 23.5371 70.2568 22.395C70.2568 19.9286 72.7988 18.6955 77.8827 18.6955V17.8761C77.8827 16.2705 77.684 15.2112 77.2866 14.698C77.1044 14.4663 76.8345 14.2594 76.4785 14.0773C76.1224 13.8952 75.6968 13.8042 75.2 13.8042C74.2561 13.8042 73.4231 14.0194 72.7028 14.4497C71.9824 14.8801 71.623 15.3519 71.623 15.865C71.623 16.014 71.6976 16.0884 71.8466 16.0884C71.946 16.0884 72.0122 16.0603 72.0453 16.0024C72.0784 15.9444 72.1033 15.8865 72.1198 15.8286C72.1364 15.7706 72.153 15.721 72.1695 15.6796C72.1861 15.6382 72.2225 15.567 72.2805 15.4677C72.3384 15.3684 72.4825 15.236 72.716 15.0705C72.9478 14.9049 73.2625 14.8222 73.6599 14.8222C74.0574 14.8222 74.4018 15.0009 74.6916 15.3552C74.9814 15.711 75.1272 16.1464 75.1272 16.6595C75.1272 17.1726 74.9367 17.608 74.5558 17.9638C74.175 18.3197 73.6947 18.4985 73.1151 18.4985C72.5355 18.4985 72.042 18.2966 71.6363 17.891C71.2306 17.4855 71.0269 16.9922 71.0269 16.4129C71.0269 15.4528 71.4657 14.6964 72.3434 14.1402C73.2211 13.5857 74.483 13.3076 76.1307 13.3076C77.7784 13.3076 79.0916 13.5228 80.0687 13.9532C81.0457 14.3835 81.7081 14.9927 82.0559 15.7773C82.4036 16.5635 82.5775 17.6444 82.5775 19.0182V23.2391C82.5775 23.9178 82.7266 24.2571 83.0246 24.2571H83.0263ZM77.8844 21.4515V19.1424H77.7105C76.9322 19.1424 76.2781 19.3543 75.7482 19.7763C75.2182 20.1984 74.9533 20.8688 74.9533 21.7875C74.9533 22.7062 75.0858 23.3765 75.3507 23.7986C75.6157 24.2207 75.9717 24.4326 76.4188 24.4326C76.866 24.4326 77.222 24.1181 77.487 23.4891C77.7519 22.8601 77.8844 22.1814 77.8844 21.4531V21.4515Z" fill="#643E98"/>
<path d="M98.3029 24.8032H99.843V25.2005H93.6081V23.4873H93.4839C93.1693 24.2818 92.7338 24.8446 92.179 25.1756C91.6242 25.5067 90.8989 25.6722 90.0047 25.6722C88.5474 25.6722 87.4329 25.0846 86.6645 23.9094C85.8944 22.7341 85.5103 21.261 85.5103 19.4899C85.5103 15.3683 87.1249 13.3075 90.3541 13.3075C91.861 13.3075 92.9043 13.8951 93.4839 15.0703H93.6081V8.44103H91.8445V8.04377H93.3349C95.1399 8.04377 96.7959 7.88652 98.3029 7.57202V24.8032ZM93.7075 19.4899V18.8195C93.7075 17.3628 93.517 16.2323 93.1362 15.4295C92.7553 14.6267 92.3164 14.2245 91.8196 14.2245C91.356 14.2245 91.0248 14.6466 90.826 15.4908C90.6273 16.3349 90.528 17.6227 90.528 19.3525C90.528 21.0822 90.6141 22.3816 90.7879 23.2506C90.9618 24.1196 91.3046 24.5549 91.8196 24.5549C92.4158 24.5549 92.8795 24.0302 93.2107 22.9791C93.5419 21.928 93.7075 20.7661 93.7075 19.4899Z" fill="#643E98"/>
<path d="M102.053 14.175H100.289V13.7778H101.779C103.585 13.7778 105.241 13.6205 106.747 13.306V24.8018H108.288V25.199H100.513V24.8018H102.053V14.175ZM104.401 12.2632C103.747 12.2632 103.192 12.0364 102.737 11.5796C102.281 11.1244 102.053 10.5699 102.053 9.91605C102.053 9.26223 102.28 8.70772 102.737 8.25252C103.192 7.79733 103.75 7.57056 104.413 7.57056C105.075 7.57056 105.63 7.79733 106.077 8.25252C106.524 8.70772 106.747 9.26223 106.747 9.91605C106.747 10.5699 106.519 11.1244 106.064 11.5796C105.608 12.0348 105.053 12.2632 104.399 12.2632H104.401Z" fill="#643E98"/>
<path d="M61.438 37.1698V37.3188C63.0775 37.3519 64.5099 37.6912 65.7354 38.3368C66.3812 38.6678 66.8913 39.123 67.2639 39.7023C67.6365 40.2817 67.822 40.9438 67.822 41.6887C67.822 45.0323 65.1392 46.7041 59.7738 46.7041H51.3281V46.3068H53.1663V29.9446H51.3281V29.5474H59.8731C62.3903 29.5474 64.2284 29.8254 65.3876 30.38C66.5468 30.9345 67.1264 31.878 67.1264 33.2104C67.1264 34.5429 66.5684 35.5361 65.4489 36.1899C64.3311 36.8437 63.0841 37.1698 61.7096 37.1698H61.4364H61.438ZM61.0654 36.1022C61.6119 35.3904 61.8852 34.5346 61.8852 33.5316C61.8852 32.5285 61.6285 31.6826 61.1151 30.9858C60.6018 30.2906 59.7738 29.943 58.6311 29.943H58.2088V37.1682H58.7553C59.7489 37.1682 60.519 36.8123 61.0654 36.1005V36.1022ZM61.8222 45.1283C62.3439 44.342 62.6055 43.1916 62.6055 41.6771C62.6055 40.1625 62.2578 39.1031 61.5622 38.499C60.8667 37.8948 59.9476 37.5936 58.805 37.5936H58.2088V46.3085H58.954C60.3451 46.3085 61.3006 45.9145 61.8222 45.1283Z" fill="#C691C1"/>
<path d="M74.9636 45.4127C75.3362 46.1907 76.0234 46.5797 77.0253 46.5797C78.0272 46.5797 78.8966 46.2569 79.6335 45.6114C80.3705 44.9658 80.8457 44.0968 81.061 43.0044L81.1107 42.7809L81.5578 42.8554C81.326 44.2127 80.7547 45.2721 79.8438 46.0335C78.933 46.7949 77.749 47.1756 76.2917 47.1756C74.0892 47.1756 72.3835 46.6509 71.1747 45.5998C69.9658 44.5487 69.3613 43.0391 69.3613 41.0677C69.3613 39.0963 69.9409 37.5635 71.1001 36.4628C72.2593 35.362 73.8325 34.8125 75.8198 34.8125C77.4426 34.8125 78.7956 35.1154 79.8819 35.7179C80.9666 36.3221 81.5081 37.254 81.5081 38.512C81.5081 39.77 81.0031 40.6638 79.9929 41.1935C78.9827 41.7232 77.6662 41.988 76.0433 41.988H74.4039C74.4039 43.4943 74.591 44.6364 74.9619 45.4144L74.9636 45.4127ZM74.3807 39.7518V41.5395H75.0017C75.7469 41.5395 76.2636 41.2879 76.555 40.783C76.8448 40.2782 76.9906 39.5366 76.9906 38.56C76.9906 36.3585 76.6014 35.2578 75.8231 35.2578C75.3097 35.2578 74.9404 35.5557 74.7169 36.1516C74.4933 36.7475 74.3823 37.9476 74.3823 39.7518H74.3807Z" fill="#C691C1"/>
<path d="M95.4457 45.7606C96.075 45.7606 96.4807 44.933 96.6629 43.2778L97.11 43.3274C96.7954 45.8931 95.6445 47.1759 93.6572 47.1759C92.8292 47.1759 92.1586 46.8995 91.6452 46.345C91.1318 45.7904 90.842 45.125 90.7758 44.3471H90.6267C90.3949 45.2409 90.0057 45.9361 89.4593 46.4327C88.9128 46.9293 88.0467 47.1775 86.8626 47.1775C85.6786 47.1775 84.685 46.9177 83.8818 46.3946C83.0787 45.8732 82.6763 45.0423 82.6763 43.9001C82.6763 41.4338 85.2182 40.2006 90.3022 40.2006V39.3813C90.3022 37.7757 90.1035 36.7163 89.706 36.2032C89.5238 35.9715 89.2539 35.7646 88.8979 35.5825C88.5418 35.4004 88.1162 35.3094 87.6194 35.3094C86.6755 35.3094 85.8425 35.5246 85.1222 35.9549C84.4018 36.3853 84.0425 36.857 84.0425 37.3702C84.0425 37.5191 84.117 37.5936 84.266 37.5936C84.3654 37.5936 84.4316 37.5655 84.4648 37.5075C84.4979 37.4496 84.5227 37.3917 84.5393 37.3338C84.5558 37.2758 84.5724 37.2262 84.589 37.1848C84.6055 37.1434 84.6419 37.0722 84.6999 36.9729C84.7579 36.8736 84.9019 36.7412 85.1354 36.5756C85.3673 36.4101 85.6819 36.3274 86.0794 36.3274C86.4768 36.3274 86.8212 36.5061 87.111 36.862C87.4009 37.2179 87.5466 37.6532 87.5466 38.1663C87.5466 38.6795 87.3561 39.1131 86.9753 39.4707C86.5944 39.8266 86.1141 40.0053 85.5345 40.0053C84.9549 40.0053 84.4614 39.8034 84.0557 39.3962C83.65 38.9907 83.4463 38.499 83.4463 37.9181C83.4463 36.958 83.8852 36.2016 84.7628 35.6454C85.6405 35.0909 86.9024 34.8145 88.5501 34.8145C90.1978 34.8145 91.5111 35.0296 92.4881 35.46C93.4652 35.8904 94.1276 36.4995 94.4753 37.2841C94.8231 38.0703 94.997 39.1512 94.997 40.5251V44.746C94.997 45.4246 95.146 45.764 95.4441 45.764L95.4457 45.7606ZM90.3038 42.955V40.6459H90.1299C89.3516 40.6459 88.6975 40.8578 88.1676 41.2799C87.6377 41.702 87.3727 42.3723 87.3727 43.291C87.3727 44.2097 87.5052 44.8801 87.7701 45.3021C88.0351 45.7242 88.3911 45.9361 88.8383 45.9361C89.2854 45.9361 89.6414 45.6216 89.9064 44.9926C90.1714 44.3636 90.3038 43.685 90.3038 42.9566V42.955Z" fill="#C691C1"/>
<path d="M110.971 46.3068H112.512V46.704H106.277V44.7674H106.152C105.507 46.3895 104.347 47.2006 102.675 47.2006C101.251 47.2006 100.249 46.757 99.6692 45.8714C99.0896 44.9859 98.7998 43.7229 98.7998 42.0859V35.68H97.0361V35.2828H98.5265C100.265 35.2828 101.888 35.1255 103.395 34.811V41.0431C103.395 42.7149 103.47 43.9199 103.619 44.6565C103.768 45.3931 104.099 45.7605 104.612 45.7605C105.192 45.7605 105.631 45.1944 105.929 44.0606C106.227 42.9267 106.376 41.6307 106.376 40.1741V35.7049H104.612V35.2828H106.103C107.842 35.2828 109.464 35.1255 110.971 34.811V46.3068Z" fill="#C691C1"/>
<path d="M119.689 45.7603C120.319 45.7603 120.724 44.9327 120.907 43.2774L121.354 43.3271C121.205 44.5519 120.857 45.5004 120.31 46.1708C119.764 46.8412 118.953 47.1755 117.876 47.1755C115.657 47.1755 114.548 45.9672 114.548 43.5505V35.6798H113.256V35.2825H113.43C114.208 35.2825 115.177 34.9846 116.336 34.3887C116.916 34.0907 117.446 33.6438 117.926 33.0479C118.406 32.452 118.737 31.7734 118.919 31.012H119.242V35.2825H121.552V35.6798H119.242V44.7423C119.242 45.421 119.391 45.7603 119.689 45.7603Z" fill="#C691C1"/>
<path d="M131.491 34.8096C132.451 34.8096 133.175 35.1621 133.664 35.8656C134.152 36.5691 134.397 37.4514 134.397 38.5107C134.397 41.0102 133.553 42.9799 131.863 44.42C131.549 44.6848 131.047 45.0539 130.36 45.5257C129.673 45.9974 129.101 46.3997 128.646 46.7307C128.19 47.0618 127.771 47.5004 127.391 48.0466C127.01 48.5929 126.819 49.1557 126.819 49.735C126.819 50.7116 127.217 51.4234 128.012 51.8703C128.111 51.9365 128.202 51.9696 128.285 51.9696C128.434 51.9696 128.508 51.8951 128.508 51.7461C128.508 51.6634 128.442 51.5806 128.31 51.4978C127.796 51.1668 127.54 50.7447 127.54 50.2316C127.54 49.7184 127.697 49.2914 128.012 48.9521C128.326 48.6127 128.744 48.4422 129.265 48.4422C129.787 48.4422 130.237 48.6243 130.62 48.9885C131.001 49.3526 131.191 49.8409 131.191 50.4534C131.191 51.0658 130.984 51.5657 130.57 51.9563C130.156 52.3453 129.61 52.539 128.931 52.539C128.252 52.539 127.656 52.2857 127.142 51.7825C126.629 51.2777 126.372 50.6321 126.372 49.8459C126.372 49.0597 126.559 48.4009 126.93 47.8712C127.303 47.3415 127.821 46.8118 128.484 46.2821C126.447 45.62 125.077 44.4911 124.373 42.8922C123.67 41.2949 123.317 39.0222 123.317 36.0758V35.6786H121.528V35.2813H123.019C124.956 35.2813 126.679 35.1241 128.185 34.8096C128.152 35.571 128.136 36.4201 128.136 37.3553C128.136 38.2906 128.23 39.2423 128.422 40.2107C128.613 41.179 128.858 41.9272 129.154 42.4568C129.734 43.4997 130.313 44.0211 130.893 44.0211C131.82 44.0211 132.648 43.21 133.377 41.5878C133.758 40.7271 133.948 39.6843 133.948 38.4594C133.948 37.2345 133.617 36.3407 132.955 35.7779C132.673 35.4965 132.428 35.3558 132.221 35.3558C132.014 35.3558 131.911 35.4303 131.911 35.5793C131.911 35.6786 131.986 35.7613 132.135 35.8276C132.698 36.0924 132.98 36.4979 132.98 37.0442C132.98 37.5904 132.809 38.0241 132.47 38.3485C132.13 38.6713 131.704 38.8318 131.191 38.8318C130.678 38.8318 130.242 38.6448 129.886 38.274C129.53 37.9016 129.351 37.4249 129.351 36.8455C129.351 36.2662 129.553 35.7829 129.959 35.3922C130.365 35.0032 130.875 34.8096 131.488 34.8096H131.491Z" fill="#C691C1"/>
<defs>
<linearGradient id="paint0_linear_5003_7711" x1="-12.3871" y1="5.50981" x2="54.554" y2="24.201" gradientUnits="userSpaceOnUse">
<stop offset="0.13" stop-color="#643E98"/>
<stop offset="1" stop-color="#C691C1"/>
</linearGradient>
<linearGradient id="paint1_linear_5003_7711" x1="-14.0963" y1="11.6315" x2="52.8441" y2="30.3211" gradientUnits="userSpaceOnUse">
<stop offset="0.13" stop-color="#643E98"/>
<stop offset="1" stop-color="#C691C1"/>
</linearGradient>
<linearGradient id="paint2_linear_5003_7711" x1="-13.5343" y1="9.61031" x2="53.4069" y2="28.3015" gradientUnits="userSpaceOnUse">
<stop offset="0.13" stop-color="#643E98"/>
<stop offset="1" stop-color="#C691C1"/>
</linearGradient>
<linearGradient id="paint3_linear_5003_7711" x1="-12.2506" y1="5.00136" x2="54.6987" y2="23.6943" gradientUnits="userSpaceOnUse">
<stop offset="0.13" stop-color="#643E98"/>
<stop offset="1" stop-color="#C691C1"/>
</linearGradient>
<linearGradient id="paint4_linear_5003_7711" x1="-13.6072" y1="9.8643" x2="53.342" y2="28.5572" gradientUnits="userSpaceOnUse">
<stop offset="0.13" stop-color="#643E98"/>
<stop offset="1" stop-color="#C691C1"/>
</linearGradient>
<linearGradient id="paint5_linear_5003_7711" x1="4.84747" y1="47.4237" x2="39.1152" y2="47.4237" gradientUnits="userSpaceOnUse">
<stop stop-color="#AB6AA8"/>
<stop offset="1" stop-color="#47459B"/>
</linearGradient>
</defs>
</svg>
