<svg width="59" height="59" viewBox="0 0 59 59" fill="none" xmlns="http://www.w3.org/2000/svg">
<rect x="0.596191" y="0.445557" width="57.9725" height="57.9725" rx="28.9862" fill="url(#paint0_radial_5003_7507)"/>
<path d="M29.1088 42.2836C27.5308 42.2836 26.0062 42.0597 24.5349 41.6119C23.085 41.1641 21.9122 40.5458 21.0166 39.7568L22.5839 36.0466C23.5434 36.7502 24.5563 37.2833 25.6224 37.6458C26.6886 37.987 27.7867 38.1576 28.9169 38.1576C30.2389 38.1576 31.2304 37.9123 31.8914 37.4219C32.5525 36.9315 32.883 36.2065 32.883 35.2469C32.883 34.3514 32.5631 33.6797 31.9234 33.2319C31.3051 32.7628 30.3775 32.5282 29.1407 32.5282H25.3665V28.5941H28.693C29.7591 28.5941 30.612 28.3489 31.2517 27.8584C31.8914 27.3467 32.2113 26.6537 32.2113 25.7794C32.2113 24.9265 31.9128 24.2761 31.3157 23.8284C30.7187 23.3806 29.8551 23.1567 28.7249 23.1567C26.5713 23.1567 24.6522 23.871 22.9677 25.2997L21.3684 21.6534C22.328 20.8218 23.4901 20.1821 24.8548 19.7343C26.2408 19.2652 27.6908 19.0306 29.2047 19.0306C31.6356 19.0306 33.5333 19.5744 34.898 20.6619C36.284 21.728 36.977 23.2207 36.977 25.1397C36.977 26.4618 36.6039 27.6026 35.8576 28.5621C35.1112 29.5003 34.0877 30.1294 32.787 30.4492V30.0334C34.3223 30.2893 35.5164 30.9183 36.3693 31.9205C37.2222 32.9227 37.6487 34.1808 37.6487 35.6947C37.6487 37.7418 36.8811 39.3517 35.3458 40.5244C33.8318 41.6972 31.7528 42.2836 29.1088 42.2836Z" fill="white"/>
<defs>
<radialGradient id="paint0_radial_5003_7507" cx="0" cy="0" r="1" gradientUnits="userSpaceOnUse" gradientTransform="translate(65.6471 48.2953) rotate(-124.455) scale(114.98 433.864)">
<stop offset="0.237518" stop-color="#643E96"/>
<stop offset="1" stop-color="#C891C3"/>
</radialGradient>
</defs>
</svg>
