<svg width="59" height="59" viewBox="0 0 59 59" fill="none" xmlns="http://www.w3.org/2000/svg">
<rect x="0.395996" y="0.907349" width="57.9725" height="57.9725" rx="28.9862" fill="url(#paint0_radial_5003_7466)"/>
<path d="M22.1278 42.3936V38.7153L29.2924 31.2628C30.188 30.3246 30.8383 29.493 31.2435 28.768C31.6486 28.043 31.8512 27.2967 31.8512 26.5291C31.8512 25.5695 31.542 24.8446 30.9236 24.3541C30.3052 23.8637 29.4203 23.6185 28.2689 23.6185C27.3093 23.6185 26.3604 23.7997 25.4222 24.1622C24.5053 24.5034 23.5991 25.0365 22.7035 25.7615L21.1363 22.1152C22.0745 21.3049 23.2366 20.6652 24.6226 20.1961C26.0086 19.727 27.4479 19.4924 28.9405 19.4924C31.4567 19.4924 33.3864 20.0575 34.7298 21.1876C36.0732 22.2964 36.7448 23.885 36.7448 25.9534C36.7448 27.3394 36.425 28.6614 35.7853 29.9195C35.1456 31.1775 34.1114 32.5102 32.6828 33.9176L26.9255 39.5789V38.2995H37.6084V42.3936H22.1278Z" fill="white"/>
<defs>
<radialGradient id="paint0_radial_5003_7466" cx="0" cy="0" r="1" gradientUnits="userSpaceOnUse" gradientTransform="translate(65.4469 48.7571) rotate(-124.455) scale(114.98 433.864)">
<stop offset="0.237518" stop-color="#643E96"/>
<stop offset="1" stop-color="#C891C3"/>
</radialGradient>
</defs>
</svg>
