<svg width="23" height="23" viewBox="0 0 23 23" fill="none" xmlns="http://www.w3.org/2000/svg">
<g clip-path="url(#clip0_5003_7533)">
<path d="M2.37054 0.820557C2.10648 1.16952 1.95947 1.5988 1.95947 2.05819V20.2411C1.95947 20.6679 2.08674 21.0687 2.31661 21.4036L12.2101 11.084L2.37054 0.820557Z" fill="#F3F4F6"/>
<path d="M13.116 10.1395L16.3256 6.79175L5.04348 0.278125C4.5538 -0.00465457 3.99199 -0.0716914 3.46777 0.0756535L13.116 10.1395Z" fill="#F3F4F6"/>
<path d="M13.1168 12.0293L3.37109 22.1947C3.58122 22.2653 3.79867 22.3009 4.01628 22.3009C4.36933 22.3009 4.72255 22.208 5.04429 22.0222L16.4075 15.4616L13.1168 12.0293Z" fill="#F3F4F6"/>
<path d="M20.7918 9.37L17.4934 7.46558L14.0234 11.0847L17.5743 14.7888L20.7918 12.9311C21.4356 12.5595 21.82 11.8937 21.82 11.1506C21.82 10.4072 21.4356 9.74159 20.7918 9.37Z" fill="#F3F4F6"/>
</g>
<defs>
<clipPath id="clip0_5003_7533">
<rect width="22.2576" height="22.3011" fill="white" transform="translate(0.717773)"/>
</clipPath>
</defs>
</svg>
