<svg width="26" height="26" viewBox="0 0 26 26" fill="none" xmlns="http://www.w3.org/2000/svg">
<path fill-rule="evenodd" clip-rule="evenodd" d="M12.9128 21.03C8.48168 21.03 4.87598 17.4243 4.87598 12.9932C4.87598 8.56208 8.48168 4.95637 12.9128 4.95637C17.3439 4.95637 20.9496 8.56208 20.9496 12.9932C20.9496 17.4243 17.3439 21.03 12.9128 21.03Z" fill="#FFC107"/>
<path fill-rule="evenodd" clip-rule="evenodd" d="M12.9126 3.73968C12.7099 3.73968 12.5361 3.58039 12.5361 3.36318V1.0173C12.5361 0.81457 12.7099 0.640801 12.9126 0.640801C13.1298 0.640801 13.2891 0.81457 13.2891 1.0173V3.36318C13.2891 3.58039 13.1298 3.73968 12.9126 3.73968ZM17.7347 5.02847C17.6623 5.02847 17.6044 5.01399 17.5465 4.98503C17.3582 4.88366 17.3003 4.65197 17.4017 4.4782L18.5891 2.43641C18.6904 2.24816 18.9221 2.19024 19.0959 2.29161C19.2697 2.39297 19.3421 2.62466 19.2262 2.81291L18.0533 4.84022C17.9809 4.97055 17.865 5.02847 17.7347 5.02847ZM21.2535 8.56177C21.1232 8.56177 20.9929 8.48937 20.935 8.37352C20.8336 8.18527 20.8915 7.96806 21.0653 7.85222L23.1071 6.67927C23.2808 6.57791 23.5125 6.63583 23.6139 6.82408C23.7153 6.99785 23.6573 7.22954 23.4836 7.33091L21.4418 8.50385C21.3839 8.54729 21.3259 8.56177 21.2535 8.56177ZM24.9027 13.3694H22.5423C22.3396 13.3694 22.1658 13.2101 22.1658 12.9929C22.1658 12.7902 22.3396 12.6164 22.5423 12.6164H24.9027C25.1054 12.6164 25.2792 12.7902 25.2792 12.9929C25.2792 13.2101 25.1054 13.3694 24.9027 13.3694ZM23.2953 19.3644C23.2229 19.3644 23.165 19.3499 23.1071 19.3065L21.0653 18.1335C20.8915 18.0322 20.8336 17.8005 20.935 17.6267C21.0363 17.4385 21.268 17.3805 21.4418 17.4819L23.4836 18.6693C23.6573 18.7707 23.7153 19.0024 23.6139 19.1762C23.556 19.292 23.4257 19.3644 23.2953 19.3644ZM18.9077 23.7521C18.7773 23.7521 18.647 23.6797 18.5891 23.5638L17.4017 21.522C17.3003 21.3483 17.3582 21.1166 17.5465 21.0152C17.7202 20.9139 17.9519 20.9718 18.0533 21.1455L19.2262 23.1873C19.3421 23.3611 19.2697 23.5928 19.0959 23.6942C19.038 23.7376 18.9656 23.7521 18.9077 23.7521ZM12.9126 25.3594C12.7099 25.3594 12.5361 25.1857 12.5361 24.9829V22.6226C12.5361 22.4199 12.7099 22.2461 12.9126 22.2461C13.1298 22.2461 13.2891 22.4199 13.2891 22.6226V24.9829C13.2891 25.1857 13.1298 25.3594 12.9126 25.3594ZM6.93208 23.7521C6.85967 23.7521 6.80175 23.7376 6.74383 23.6942C6.55558 23.5928 6.49765 23.3611 6.59902 23.1873L7.77196 21.1455C7.88781 20.9718 8.10502 20.8994 8.29327 21.0152C8.46704 21.1166 8.52496 21.3483 8.42359 21.522L7.25065 23.5638C7.17825 23.6797 7.0624 23.7521 6.93208 23.7521ZM2.54441 19.3644C2.41408 19.3644 2.28376 19.292 2.21135 19.1762C2.10999 19.0024 2.16791 18.7707 2.35616 18.6693L4.39795 17.4819C4.57171 17.3805 4.80341 17.4385 4.90477 17.6267C5.00614 17.8005 4.94821 18.0322 4.77445 18.1335L2.73266 19.3065C2.67474 19.3499 2.60233 19.3644 2.54441 19.3644ZM3.28293 13.3694H0.937046C0.734316 13.3694 0.560547 13.2101 0.560547 12.9929C0.560547 12.7902 0.734316 12.6164 0.937046 12.6164H3.28293C3.50014 12.6164 3.65943 12.7902 3.65943 12.9929C3.65943 13.2101 3.50014 13.3694 3.28293 13.3694ZM4.5862 8.56177C4.51379 8.56177 4.45587 8.54729 4.39795 8.50385L2.35616 7.33091C2.16791 7.22954 2.10999 6.99785 2.21135 6.82408C2.31272 6.63583 2.54441 6.57791 2.73266 6.67927L4.77445 7.85222C4.94821 7.96806 5.00614 8.18527 4.90477 8.37352C4.83237 8.48937 4.70204 8.56177 4.5862 8.56177ZM8.10502 5.02847C7.97469 5.02847 7.84436 4.97055 7.77196 4.8547L6.59902 2.81291C6.49765 2.62466 6.55558 2.39297 6.74383 2.29161C6.9176 2.19024 7.14929 2.24816 7.25065 2.43641L8.42359 4.4782C8.52496 4.65197 8.46704 4.88366 8.29327 4.98503C8.23534 5.01399 8.16294 5.02847 8.10502 5.02847Z" fill="#FFC107"/>
<path fill-rule="evenodd" clip-rule="evenodd" d="M15.6351 17.555C15.5916 17.555 15.5482 17.555 15.5047 17.526L12.9127 16.5269L10.3351 17.526C10.2193 17.584 10.0744 17.555 9.97308 17.4826C9.87172 17.4102 9.81379 17.2943 9.82828 17.164L9.98756 14.3982L8.22091 12.255C8.14851 12.1537 8.11955 12.0234 8.16299 11.893C8.20643 11.7772 8.29332 11.6758 8.42364 11.6469L11.1026 10.9518L12.6086 8.6059C12.6665 8.50453 12.7968 8.44661 12.9127 8.44661C13.043 8.44661 13.1588 8.50453 13.2313 8.6059L14.7372 10.9518L17.4162 11.6469C17.532 11.6758 17.6334 11.7772 17.6768 11.893C17.7203 12.0234 17.6913 12.1537 17.6044 12.255L15.8523 14.3982L16.0116 17.164C16.0116 17.2943 15.9536 17.4102 15.8523 17.4826C15.7943 17.5405 15.7075 17.555 15.6351 17.555Z" fill="white"/>
</svg>
