<svg xmlns="http://www.w3.org/2000/svg" width="15" height="16" fill="none"><path stroke="#fff" stroke-linecap="round" stroke-linejoin="round" stroke-width="1.003" d="M5.489 1.734c1 1.45 1.872 2.96 2.617 4.515m0 0a13.9 13.9 0 0 0 4.288-2.927M8.106 6.249q.584 1.218 1.062 2.47m1.537 5.285a33 33 0 0 0-.84-3.28m4.471-2.078a11.3 11.3 0 0 0-5.168.072m0 0a11.37 11.37 0 0 0-6.23 4.06m0 0a6.686 6.686 0 1 0 9.456-9.456m-9.456 9.456a6.686 6.686 0 1 1 9.456-9.456M1.021 7.334c1.547.164 3.117.071 4.639-.279"/></svg>